G04 #@! TF.GenerationSoftware,KiCad,Pcbnew,8.0.6*
G04 #@! TF.CreationDate,2025-10-07T20:56:46+05:30*
G04 #@! TF.ProjectId,tt-ecp5-cb,74742d65-6370-4352-9d63-622e6b696361,rev?*
G04 #@! TF.SameCoordinates,Original*
G04 #@! TF.FileFunction,Soldermask,Top*
G04 #@! TF.FilePolarity,Negative*
%FSLAX46Y46*%
G04 Gerber Fmt 4.6, Leading zero omitted, Abs format (unit mm)*
G04 Created by KiCad (PCBNEW 8.0.6) date 2025-10-07 20:56:46*
%MOMM*%
%LPD*%
G01*
G04 APERTURE LIST*
G04 Aperture macros list*
%AMRoundRect*
0 Rectangle with rounded corners*
0 $1 Rounding radius*
0 $2 $3 $4 $5 $6 $7 $8 $9 X,Y pos of 4 corners*
0 Add a 4 corners polygon primitive as box body*
4,1,4,$2,$3,$4,$5,$6,$7,$8,$9,$2,$3,0*
0 Add four circle primitives for the rounded corners*
1,1,$1+$1,$2,$3*
1,1,$1+$1,$4,$5*
1,1,$1+$1,$6,$7*
1,1,$1+$1,$8,$9*
0 Add four rect primitives between the rounded corners*
20,1,$1+$1,$2,$3,$4,$5,0*
20,1,$1+$1,$4,$5,$6,$7,0*
20,1,$1+$1,$6,$7,$8,$9,0*
20,1,$1+$1,$8,$9,$2,$3,0*%
G04 Aperture macros list end*
%ADD10RoundRect,0.140000X0.170000X-0.140000X0.170000X0.140000X-0.170000X0.140000X-0.170000X-0.140000X0*%
%ADD11RoundRect,0.200000X0.275000X-0.200000X0.275000X0.200000X-0.275000X0.200000X-0.275000X-0.200000X0*%
%ADD12C,2.032000*%
%ADD13RoundRect,0.135000X-0.135000X-0.185000X0.135000X-0.185000X0.135000X0.185000X-0.135000X0.185000X0*%
%ADD14RoundRect,0.200000X-0.275000X0.200000X-0.275000X-0.200000X0.275000X-0.200000X0.275000X0.200000X0*%
%ADD15RoundRect,0.140000X-0.170000X0.140000X-0.170000X-0.140000X0.170000X-0.140000X0.170000X0.140000X0*%
%ADD16RoundRect,0.218750X0.256250X-0.218750X0.256250X0.218750X-0.256250X0.218750X-0.256250X-0.218750X0*%
%ADD17C,0.360000*%
%ADD18RoundRect,0.218750X0.218750X0.381250X-0.218750X0.381250X-0.218750X-0.381250X0.218750X-0.381250X0*%
%ADD19R,1.800000X1.800000*%
%ADD20O,1.800000X1.800000*%
%ADD21RoundRect,0.135000X0.185000X-0.135000X0.185000X0.135000X-0.185000X0.135000X-0.185000X-0.135000X0*%
%ADD22R,2.000000X2.000000*%
%ADD23RoundRect,0.150000X0.512500X0.150000X-0.512500X0.150000X-0.512500X-0.150000X0.512500X-0.150000X0*%
%ADD24RoundRect,0.225000X0.250000X-0.225000X0.250000X0.225000X-0.250000X0.225000X-0.250000X-0.225000X0*%
%ADD25RoundRect,0.150000X-0.587500X-0.150000X0.587500X-0.150000X0.587500X0.150000X-0.587500X0.150000X0*%
%ADD26RoundRect,0.218750X-0.218750X-0.256250X0.218750X-0.256250X0.218750X0.256250X-0.218750X0.256250X0*%
%ADD27RoundRect,0.150000X-0.512500X-0.150000X0.512500X-0.150000X0.512500X0.150000X-0.512500X0.150000X0*%
G04 APERTURE END LIST*
D10*
G04 #@! TO.C,C8*
X117348000Y-96591000D03*
X117348000Y-95631000D03*
G04 #@! TD*
D11*
G04 #@! TO.C,R5*
X125984000Y-101092000D03*
X125984000Y-99442000D03*
G04 #@! TD*
D12*
G04 #@! TO.C,J2*
X99969000Y-64770000D03*
X102509000Y-64770000D03*
X99969000Y-67310000D03*
X102509000Y-67310000D03*
X99969000Y-69850000D03*
X102509000Y-69850000D03*
X99969000Y-72390000D03*
X102509000Y-72390000D03*
X99969000Y-74930000D03*
X102509000Y-74930000D03*
X99969000Y-77470000D03*
X102509000Y-77470000D03*
X99969000Y-80010000D03*
X102509000Y-80010000D03*
X99969000Y-82550000D03*
X102509000Y-82550000D03*
X99969000Y-85090000D03*
X102509000Y-85090000D03*
X99969000Y-87630000D03*
X102509000Y-87630000D03*
X99969000Y-90170000D03*
X102509000Y-90170000D03*
X99969000Y-92710000D03*
X102509000Y-92710000D03*
X99969000Y-95250000D03*
X102509000Y-95250000D03*
X99969000Y-97790000D03*
X102509000Y-97790000D03*
X99969000Y-100330000D03*
X102509000Y-100330000D03*
X99969000Y-102870000D03*
X102509000Y-102870000D03*
X99969000Y-105410000D03*
X102509000Y-105410000D03*
X99969000Y-107950000D03*
X102509000Y-107950000D03*
X99969000Y-110490000D03*
X102509000Y-110490000D03*
X99969000Y-113030000D03*
X102509000Y-113030000D03*
X139969000Y-64770000D03*
X142509000Y-64770000D03*
X139969000Y-67310000D03*
X142509000Y-67310000D03*
X139969000Y-69850000D03*
X142509000Y-69850000D03*
X139969000Y-72390000D03*
X142509000Y-72390000D03*
X139969000Y-74930000D03*
X142509000Y-74930000D03*
X139969000Y-77470000D03*
X142509000Y-77470000D03*
X139969000Y-80010000D03*
X142509000Y-80010000D03*
X139969000Y-82550000D03*
X142509000Y-82550000D03*
X139969000Y-85090000D03*
X142509000Y-85090000D03*
X139969000Y-87630000D03*
X142509000Y-87630000D03*
X139969000Y-90170000D03*
X142509000Y-90170000D03*
X139969000Y-92710000D03*
X142509000Y-92710000D03*
X139969000Y-95250000D03*
X142509000Y-95250000D03*
X139969000Y-97790000D03*
X142509000Y-97790000D03*
X139969000Y-100330000D03*
X142509000Y-100330000D03*
X139969000Y-102870000D03*
X142509000Y-102870000D03*
X139969000Y-105410000D03*
X142509000Y-105410000D03*
X139969000Y-107950000D03*
X142509000Y-107950000D03*
X139969000Y-110490000D03*
X142509000Y-110490000D03*
X139969000Y-113030000D03*
X142509000Y-113030000D03*
G04 #@! TD*
D13*
G04 #@! TO.C,R8*
X120163500Y-108966000D03*
X121183500Y-108966000D03*
G04 #@! TD*
D14*
G04 #@! TO.C,R2*
X114300000Y-64517000D03*
X114300000Y-66167000D03*
G04 #@! TD*
D15*
G04 #@! TO.C,C1*
X121920000Y-68354000D03*
X121920000Y-69314000D03*
G04 #@! TD*
D14*
G04 #@! TO.C,R3*
X126746000Y-104268000D03*
X126746000Y-105918000D03*
G04 #@! TD*
D16*
G04 #@! TO.C,D2*
X129540000Y-76987500D03*
X129540000Y-75412500D03*
G04 #@! TD*
D17*
G04 #@! TO.C,U1*
X114000000Y-81100000D03*
X114800000Y-81100000D03*
X115600000Y-81100000D03*
X116400000Y-81100000D03*
X117200000Y-81100000D03*
X118000000Y-81100000D03*
X118800000Y-81100000D03*
X119600000Y-81100000D03*
X120400000Y-81100000D03*
X121200000Y-81100000D03*
X122000000Y-81100000D03*
X122800000Y-81100000D03*
X123600000Y-81100000D03*
X124400000Y-81100000D03*
X125200000Y-81100000D03*
X126000000Y-81100000D03*
X114000000Y-81900000D03*
X114800000Y-81900000D03*
X115600000Y-81900000D03*
X116400000Y-81900000D03*
X117200000Y-81900000D03*
X118000000Y-81900000D03*
X118800000Y-81900000D03*
X119600000Y-81900000D03*
X120400000Y-81900000D03*
X121200000Y-81900000D03*
X122000000Y-81900000D03*
X122800000Y-81900000D03*
X123600000Y-81900000D03*
X124400000Y-81900000D03*
X125200000Y-81900000D03*
X126000000Y-81900000D03*
X114000000Y-82700000D03*
X114800000Y-82700000D03*
X115600000Y-82700000D03*
X116400000Y-82700000D03*
X117200000Y-82700000D03*
X118000000Y-82700000D03*
X118800000Y-82700000D03*
X119600000Y-82700000D03*
X120400000Y-82700000D03*
X121200000Y-82700000D03*
X122000000Y-82700000D03*
X122800000Y-82700000D03*
X123600000Y-82700000D03*
X124400000Y-82700000D03*
X125200000Y-82700000D03*
X126000000Y-82700000D03*
X114000000Y-83500000D03*
X114800000Y-83500000D03*
X115600000Y-83500000D03*
X116400000Y-83500000D03*
X117200000Y-83500000D03*
X118000000Y-83500000D03*
X118800000Y-83500000D03*
X119600000Y-83500000D03*
X120400000Y-83500000D03*
X121200000Y-83500000D03*
X122000000Y-83500000D03*
X122800000Y-83500000D03*
X123600000Y-83500000D03*
X124400000Y-83500000D03*
X125200000Y-83500000D03*
X126000000Y-83500000D03*
X114000000Y-84300000D03*
X114800000Y-84300000D03*
X115600000Y-84300000D03*
X116400000Y-84300000D03*
X117200000Y-84300000D03*
X118000000Y-84300000D03*
X118800000Y-84300000D03*
X119600000Y-84300000D03*
X120400000Y-84300000D03*
X121200000Y-84300000D03*
X122000000Y-84300000D03*
X122800000Y-84300000D03*
X123600000Y-84300000D03*
X124400000Y-84300000D03*
X125200000Y-84300000D03*
X126000000Y-84300000D03*
X114000000Y-85100000D03*
X114800000Y-85100000D03*
X115600000Y-85100000D03*
X116400000Y-85100000D03*
X117200000Y-85100000D03*
X118000000Y-85100000D03*
X118800000Y-85100000D03*
X119600000Y-85100000D03*
X120400000Y-85100000D03*
X121200000Y-85100000D03*
X122000000Y-85100000D03*
X122800000Y-85100000D03*
X123600000Y-85100000D03*
X124400000Y-85100000D03*
X125200000Y-85100000D03*
X126000000Y-85100000D03*
X114000000Y-85900000D03*
X114800000Y-85900000D03*
X115600000Y-85900000D03*
X116400000Y-85900000D03*
X117200000Y-85900000D03*
X118000000Y-85900000D03*
X118800000Y-85900000D03*
X119600000Y-85900000D03*
X120400000Y-85900000D03*
X121200000Y-85900000D03*
X122000000Y-85900000D03*
X122800000Y-85900000D03*
X123600000Y-85900000D03*
X124400000Y-85900000D03*
X125200000Y-85900000D03*
X126000000Y-85900000D03*
X114000000Y-86700000D03*
X114800000Y-86700000D03*
X115600000Y-86700000D03*
X116400000Y-86700000D03*
X117200000Y-86700000D03*
X118000000Y-86700000D03*
X118800000Y-86700000D03*
X119600000Y-86700000D03*
X120400000Y-86700000D03*
X121200000Y-86700000D03*
X122000000Y-86700000D03*
X122800000Y-86700000D03*
X123600000Y-86700000D03*
X124400000Y-86700000D03*
X125200000Y-86700000D03*
X126000000Y-86700000D03*
X114000000Y-87500000D03*
X114800000Y-87500000D03*
X115600000Y-87500000D03*
X116400000Y-87500000D03*
X117200000Y-87500000D03*
X118000000Y-87500000D03*
X118800000Y-87500000D03*
X119600000Y-87500000D03*
X120400000Y-87500000D03*
X121200000Y-87500000D03*
X122000000Y-87500000D03*
X122800000Y-87500000D03*
X123600000Y-87500000D03*
X124400000Y-87500000D03*
X125200000Y-87500000D03*
X126000000Y-87500000D03*
X114000000Y-88300000D03*
X114800000Y-88300000D03*
X115600000Y-88300000D03*
X116400000Y-88300000D03*
X117200000Y-88300000D03*
X118000000Y-88300000D03*
X118800000Y-88300000D03*
X119600000Y-88300000D03*
X120400000Y-88300000D03*
X121200000Y-88300000D03*
X122000000Y-88300000D03*
X122800000Y-88300000D03*
X123600000Y-88300000D03*
X124400000Y-88300000D03*
X125200000Y-88300000D03*
X126000000Y-88300000D03*
X114000000Y-89100000D03*
X114800000Y-89100000D03*
X115600000Y-89100000D03*
X116400000Y-89100000D03*
X117200000Y-89100000D03*
X118000000Y-89100000D03*
X118800000Y-89100000D03*
X119600000Y-89100000D03*
X120400000Y-89100000D03*
X121200000Y-89100000D03*
X122000000Y-89100000D03*
X122800000Y-89100000D03*
X123600000Y-89100000D03*
X124400000Y-89100000D03*
X125200000Y-89100000D03*
X126000000Y-89100000D03*
X114000000Y-89900000D03*
X114800000Y-89900000D03*
X115600000Y-89900000D03*
X116400000Y-89900000D03*
X117200000Y-89900000D03*
X118000000Y-89900000D03*
X118800000Y-89900000D03*
X119600000Y-89900000D03*
X120400000Y-89900000D03*
X121200000Y-89900000D03*
X122000000Y-89900000D03*
X122800000Y-89900000D03*
X123600000Y-89900000D03*
X124400000Y-89900000D03*
X125200000Y-89900000D03*
X126000000Y-89900000D03*
X114000000Y-90700000D03*
X114800000Y-90700000D03*
X115600000Y-90700000D03*
X116400000Y-90700000D03*
X117200000Y-90700000D03*
X118000000Y-90700000D03*
X118800000Y-90700000D03*
X119600000Y-90700000D03*
X120400000Y-90700000D03*
X121200000Y-90700000D03*
X122000000Y-90700000D03*
X122800000Y-90700000D03*
X123600000Y-90700000D03*
X124400000Y-90700000D03*
X125200000Y-90700000D03*
X126000000Y-90700000D03*
X114000000Y-91500000D03*
X114800000Y-91500000D03*
X115600000Y-91500000D03*
X116400000Y-91500000D03*
X117200000Y-91500000D03*
X118000000Y-91500000D03*
X118800000Y-91500000D03*
X119600000Y-91500000D03*
X120400000Y-91500000D03*
X121200000Y-91500000D03*
X122000000Y-91500000D03*
X122800000Y-91500000D03*
X123600000Y-91500000D03*
X124400000Y-91500000D03*
X125200000Y-91500000D03*
X126000000Y-91500000D03*
X114000000Y-92300000D03*
X114800000Y-92300000D03*
X115600000Y-92300000D03*
X116400000Y-92300000D03*
X117200000Y-92300000D03*
X118000000Y-92300000D03*
X118800000Y-92300000D03*
X119600000Y-92300000D03*
X120400000Y-92300000D03*
X121200000Y-92300000D03*
X122000000Y-92300000D03*
X122800000Y-92300000D03*
X123600000Y-92300000D03*
X124400000Y-92300000D03*
X125200000Y-92300000D03*
X126000000Y-92300000D03*
X114000000Y-93100000D03*
X114800000Y-93100000D03*
X115600000Y-93100000D03*
X116400000Y-93100000D03*
X117200000Y-93100000D03*
X118000000Y-93100000D03*
X118800000Y-93100000D03*
X119600000Y-93100000D03*
X120400000Y-93100000D03*
X121200000Y-93100000D03*
X122000000Y-93100000D03*
X122800000Y-93100000D03*
X123600000Y-93100000D03*
X124400000Y-93100000D03*
X125200000Y-93100000D03*
X126000000Y-93100000D03*
G04 #@! TD*
D18*
G04 #@! TO.C,L1*
X114600500Y-68072000D03*
X112475500Y-68072000D03*
G04 #@! TD*
D10*
G04 #@! TO.C,C9*
X122174000Y-96591000D03*
X122174000Y-95631000D03*
G04 #@! TD*
D19*
G04 #@! TO.C,J1*
X129794000Y-101854000D03*
D20*
X132334000Y-101854000D03*
X129794000Y-104394000D03*
X132334000Y-104394000D03*
X129794000Y-106934000D03*
X132334000Y-106934000D03*
X129794000Y-109474000D03*
X132334000Y-109474000D03*
X129794000Y-112014000D03*
X132334000Y-112014000D03*
G04 #@! TD*
D21*
G04 #@! TO.C,R1*
X112564000Y-66294000D03*
X112564000Y-65274000D03*
G04 #@! TD*
D22*
G04 #@! TO.C,TP5*
X123698000Y-73787000D03*
G04 #@! TD*
D15*
G04 #@! TO.C,C6*
X117348000Y-77653000D03*
X117348000Y-78613000D03*
G04 #@! TD*
D21*
G04 #@! TO.C,R9*
X129540000Y-79504000D03*
X129540000Y-78484000D03*
G04 #@! TD*
D23*
G04 #@! TO.C,U3*
X129794000Y-68072000D03*
X129794000Y-67122000D03*
X129794000Y-66172000D03*
X127519000Y-66172000D03*
X127519000Y-68072000D03*
G04 #@! TD*
D10*
G04 #@! TO.C,C3*
X125730000Y-67790000D03*
X125730000Y-66830000D03*
G04 #@! TD*
D24*
G04 #@! TO.C,C5*
X110744000Y-67082000D03*
X110744000Y-65532000D03*
G04 #@! TD*
D11*
G04 #@! TO.C,R7*
X116332000Y-101092000D03*
X116332000Y-99442000D03*
G04 #@! TD*
G04 #@! TO.C,R4*
X119380000Y-101092000D03*
X119380000Y-99442000D03*
G04 #@! TD*
D25*
G04 #@! TO.C,Q1*
X116514500Y-108016000D03*
X116514500Y-109916000D03*
X118389500Y-108966000D03*
G04 #@! TD*
D15*
G04 #@! TO.C,C7*
X122174000Y-77653000D03*
X122174000Y-78613000D03*
G04 #@! TD*
D26*
G04 #@! TO.C,D1*
X121158000Y-105918000D03*
X122733000Y-105918000D03*
G04 #@! TD*
D11*
G04 #@! TO.C,R6*
X123190000Y-101092000D03*
X123190000Y-99442000D03*
G04 #@! TD*
D22*
G04 #@! TO.C,TP4*
X116713000Y-71501000D03*
G04 #@! TD*
G04 #@! TO.C,TP1*
X110871000Y-100330000D03*
G04 #@! TD*
D27*
G04 #@! TO.C,U2*
X117105000Y-66172000D03*
X117105000Y-67122000D03*
X117105000Y-68072000D03*
X119380000Y-68072000D03*
X119380000Y-66172000D03*
G04 #@! TD*
D22*
G04 #@! TO.C,TP3*
X110871000Y-107061000D03*
G04 #@! TD*
D15*
G04 #@! TO.C,C2*
X131826000Y-68128000D03*
X131826000Y-69088000D03*
G04 #@! TD*
G04 #@! TO.C,C4*
X110744000Y-71049000D03*
X110744000Y-72009000D03*
G04 #@! TD*
D22*
G04 #@! TO.C,TP2*
X110871000Y-103505000D03*
G04 #@! TD*
M02*
