M48
; DRILL file {KiCad 8.0.6} date 2025-10-07T20:56:46+0530
; FORMAT={-:-/ absolute / metric / decimal}
; #@! TF.CreationDate,2025-10-07T20:56:46+05:30
; #@! TF.GenerationSoftware,Kicad,Pcbnew,8.0.6
; #@! TF.FileFunction,Plated,1,4,PTH
FMAT,2
METRIC
; #@! TA.AperFunction,Plated,PTH,ViaDrill
T1C0.305
; #@! TA.AperFunction,Plated,PTH,ViaDrill
T2C0.406
; #@! TA.AperFunction,Plated,PTH,ComponentDrill
T3C0.889
; #@! TA.AperFunction,Plated,PTH,ComponentDrill
T4C1.000
%
G90
G05
T1
X105.6Y-105.4
X112.5Y-86.7
X113.411Y-64.643
X113.5Y-80.6
X114.3Y-103.505
X114.4Y-83.9
X114.4Y-91.1
X114.4Y-92.7
X114.681Y-98.933
X115.7Y-94.6
X116.8Y-92.7
X117.348Y-102.743
X117.6Y-84.7
X117.6Y-85.5
X117.6Y-86.3
X117.6Y-87.1
X117.6Y-87.9
X117.6Y-89.5
X118.4Y-84.7
X118.4Y-85.5
X118.4Y-86.3
X118.4Y-87.1
X118.4Y-87.9
X118.4Y-89.5
X118.4Y-93.5
X119.2Y-84.7
X119.2Y-85.5
X119.2Y-87.1
X119.2Y-88.7
X119.2Y-89.5
X119.38Y-65.151
X119.38Y-98.425
X119.431Y-94.996
X119.999Y-91.102
X120.0Y-84.7
X120.0Y-85.5
X120.0Y-86.3
X120.0Y-87.1
X120.0Y-87.9
X120.0Y-88.7
X120.0Y-91.9
X120.0Y-92.7
X120.5Y-94.6
X120.8Y-84.7
X120.8Y-87.1
X120.8Y-87.9
X120.8Y-88.7
X120.8Y-89.5
X120.8Y-91.1
X121.0Y-95.047
X121.5Y-93.8
X121.6Y-84.7
X121.6Y-85.5
X121.6Y-88.7
X121.6Y-91.9
X122.4Y-84.7
X122.4Y-85.5
X122.4Y-87.1
X122.4Y-87.9
X122.4Y-88.7
X122.4Y-92.7
X122.682Y-98.425
X123.2Y-90.3
X123.7Y-95.7
X123.988Y-97.282
X124.612Y-96.469
X124.8Y-90.3
X125.476Y-98.425
X125.6Y-83.9
X125.6Y-87.1
X125.6Y-92.7
X126.7Y-80.4
T2
X109.855Y-82.677
X109.855Y-87.503
X110.744Y-64.262
X110.744Y-73.914
X113.0Y-70.8
X113.0Y-72.3
X114.4Y-70.8
X114.4Y-72.3
X114.808Y-109.982
X115.189Y-101.092
X115.316Y-66.802
X117.348Y-76.708
X117.348Y-79.502
X117.348Y-94.742
X117.348Y-97.536
X120.523Y-101.092
X121.92Y-70.866
X122.174Y-76.708
X122.174Y-79.502
X122.174Y-94.742
X122.174Y-97.536
X122.809Y-107.315
X123.19Y-102.108
X124.46Y-67.056
X125.2Y-79.3
X125.476Y-105.156
X127.127Y-101.092
X128.524Y-67.056
X129.54Y-80.518
X131.826Y-70.104
X133.35Y-96.647
X136.271Y-96.647
X136.271Y-99.187
X137.668Y-66.04
X137.668Y-68.58
T3
X99.969Y-64.77
X99.969Y-67.31
X99.969Y-69.85
X99.969Y-72.39
X99.969Y-74.93
X99.969Y-77.47
X99.969Y-80.01
X99.969Y-82.55
X99.969Y-85.09
X99.969Y-87.63
X99.969Y-90.17
X99.969Y-92.71
X99.969Y-95.25
X99.969Y-97.79
X99.969Y-100.33
X99.969Y-102.87
X99.969Y-105.41
X99.969Y-107.95
X99.969Y-110.49
X99.969Y-113.03
X102.509Y-64.77
X102.509Y-67.31
X102.509Y-69.85
X102.509Y-72.39
X102.509Y-74.93
X102.509Y-77.47
X102.509Y-80.01
X102.509Y-82.55
X102.509Y-85.09
X102.509Y-87.63
X102.509Y-90.17
X102.509Y-92.71
X102.509Y-95.25
X102.509Y-97.79
X102.509Y-100.33
X102.509Y-102.87
X102.509Y-105.41
X102.509Y-107.95
X102.509Y-110.49
X102.509Y-113.03
X139.969Y-64.77
X139.969Y-67.31
X139.969Y-69.85
X139.969Y-72.39
X139.969Y-74.93
X139.969Y-77.47
X139.969Y-80.01
X139.969Y-82.55
X139.969Y-85.09
X139.969Y-87.63
X139.969Y-90.17
X139.969Y-92.71
X139.969Y-95.25
X139.969Y-97.79
X139.969Y-100.33
X139.969Y-102.87
X139.969Y-105.41
X139.969Y-107.95
X139.969Y-110.49
X139.969Y-113.03
X142.509Y-64.77
X142.509Y-67.31
X142.509Y-69.85
X142.509Y-72.39
X142.509Y-74.93
X142.509Y-77.47
X142.509Y-80.01
X142.509Y-82.55
X142.509Y-85.09
X142.509Y-87.63
X142.509Y-90.17
X142.509Y-92.71
X142.509Y-95.25
X142.509Y-97.79
X142.509Y-100.33
X142.509Y-102.87
X142.509Y-105.41
X142.509Y-107.95
X142.509Y-110.49
X142.509Y-113.03
T4
X129.794Y-101.854
X129.794Y-104.394
X129.794Y-106.934
X129.794Y-109.474
X129.794Y-112.014
X132.334Y-101.854
X132.334Y-104.394
X132.334Y-106.934
X132.334Y-109.474
X132.334Y-112.014
M30
