G04 #@! TF.GenerationSoftware,KiCad,Pcbnew,8.0.6*
G04 #@! TF.CreationDate,2025-10-07T20:56:46+05:30*
G04 #@! TF.ProjectId,tt-ecp5-cb,74742d65-6370-4352-9d63-622e6b696361,rev?*
G04 #@! TF.SameCoordinates,Original*
G04 #@! TF.FileFunction,Copper,L4,Bot*
G04 #@! TF.FilePolarity,Positive*
%FSLAX46Y46*%
G04 Gerber Fmt 4.6, Leading zero omitted, Abs format (unit mm)*
G04 Created by KiCad (PCBNEW 8.0.6) date 2025-10-07 20:56:46*
%MOMM*%
%LPD*%
G01*
G04 APERTURE LIST*
G04 #@! TA.AperFunction,ComponentPad*
%ADD10C,2.032000*%
G04 #@! TD*
G04 #@! TA.AperFunction,ComponentPad*
%ADD11R,1.800000X1.800000*%
G04 #@! TD*
G04 #@! TA.AperFunction,ComponentPad*
%ADD12O,1.800000X1.800000*%
G04 #@! TD*
G04 #@! TA.AperFunction,ViaPad*
%ADD13C,0.457200*%
G04 #@! TD*
G04 #@! TA.AperFunction,ViaPad*
%ADD14C,0.812800*%
G04 #@! TD*
G04 #@! TA.AperFunction,ViaPad*
%ADD15C,0.508000*%
G04 #@! TD*
G04 #@! TA.AperFunction,Conductor*
%ADD16C,0.203200*%
G04 #@! TD*
G04 #@! TA.AperFunction,Conductor*
%ADD17C,0.304800*%
G04 #@! TD*
G04 #@! TA.AperFunction,Conductor*
%ADD18C,0.711200*%
G04 #@! TD*
G04 #@! TA.AperFunction,Conductor*
%ADD19C,0.609600*%
G04 #@! TD*
G04 APERTURE END LIST*
D10*
G04 #@! TO.P,J2,A1,GND*
G04 #@! TO.N,GND*
X99969000Y-64770000D03*
G04 #@! TO.P,J2,A2,ctrl_ena*
G04 #@! TO.N,CONFIG_SCK*
X102509000Y-64770000D03*
G04 #@! TO.P,J2,A3,ctrl_inc*
G04 #@! TO.N,CONFIG_INITN*
X99969000Y-67310000D03*
G04 #@! TO.P,J2,A4,ctrl_~{rst}*
G04 #@! TO.N,CONFIG_PROGRAMN*
X102509000Y-67310000D03*
G04 #@! TO.P,J2,A5,GND*
G04 #@! TO.N,GND*
X99969000Y-69850000D03*
G04 #@! TO.P,J2,A6,RES1*
G04 #@! TO.N,res1*
X102509000Y-69850000D03*
G04 #@! TO.P,J2,A7,VCCD*
G04 #@! TO.N,unconnected-(J2A-VCCD-PadA7)*
X99969000Y-72390000D03*
G04 #@! TO.P,J2,A8,RES2*
G04 #@! TO.N,res2*
X102509000Y-72390000D03*
G04 #@! TO.P,J2,A9,ui_in[0]*
G04 #@! TO.N,in0*
X99969000Y-74930000D03*
G04 #@! TO.P,J2,A10,RES3*
G04 #@! TO.N,res3*
X102509000Y-74930000D03*
G04 #@! TO.P,J2,A11,ui_in[1]*
G04 #@! TO.N,in1*
X99969000Y-77470000D03*
G04 #@! TO.P,J2,A12,GND*
G04 #@! TO.N,GND*
X102509000Y-77470000D03*
G04 #@! TO.P,J2,A13,ui_in[3]*
G04 #@! TO.N,in3*
X99969000Y-80010000D03*
G04 #@! TO.P,J2,A14,ui_in[2]*
G04 #@! TO.N,in2*
X102509000Y-80010000D03*
G04 #@! TO.P,J2,A15,GND*
G04 #@! TO.N,GND*
X99969000Y-82550000D03*
G04 #@! TO.P,J2,A16,ui_in[6]*
G04 #@! TO.N,in6*
X102509000Y-82550000D03*
G04 #@! TO.P,J2,A17,ui_in[4]*
G04 #@! TO.N,in4*
X99969000Y-85090000D03*
G04 #@! TO.P,J2,A18,GND*
G04 #@! TO.N,GND*
X102509000Y-85090000D03*
G04 #@! TO.P,J2,A19,ui_in[5]*
G04 #@! TO.N,in5*
X99969000Y-87630000D03*
G04 #@! TO.P,J2,A20,an0*
G04 #@! TO.N,an0*
X102509000Y-87630000D03*
G04 #@! TO.P,J2,A21,GND*
G04 #@! TO.N,GND*
X99969000Y-90170000D03*
G04 #@! TO.P,J2,A22,an1*
G04 #@! TO.N,an1*
X102509000Y-90170000D03*
G04 #@! TO.P,J2,A23,GND*
G04 #@! TO.N,GND*
X99969000Y-92710000D03*
G04 #@! TO.P,J2,A24,an2*
G04 #@! TO.N,an2*
X102509000Y-92710000D03*
G04 #@! TO.P,J2,A25,GND*
G04 #@! TO.N,GND*
X99969000Y-95250000D03*
G04 #@! TO.P,J2,A26,an3*
G04 #@! TO.N,an3*
X102509000Y-95250000D03*
G04 #@! TO.P,J2,A27,GND*
G04 #@! TO.N,GND*
X99969000Y-97790000D03*
G04 #@! TO.P,J2,A28,an4*
G04 #@! TO.N,an4*
X102509000Y-97790000D03*
G04 #@! TO.P,J2,A29,GND*
G04 #@! TO.N,GND*
X99969000Y-100330000D03*
G04 #@! TO.P,J2,A30,an5*
G04 #@! TO.N,an5*
X102509000Y-100330000D03*
G04 #@! TO.P,J2,A31,GND*
G04 #@! TO.N,GND*
X99969000Y-102870000D03*
G04 #@! TO.P,J2,A32,GND*
X102509000Y-102870000D03*
G04 #@! TO.P,J2,A33,GND*
X99969000Y-105410000D03*
G04 #@! TO.P,J2,A34,ui_in[7]*
G04 #@! TO.N,in7*
X102509000Y-105410000D03*
G04 #@! TO.P,J2,A35,proj_clk*
G04 #@! TO.N,proj_clk*
X99969000Y-107950000D03*
G04 #@! TO.P,J2,A36,proj_~{rst}*
G04 #@! TO.N,proj_rstn*
X102509000Y-107950000D03*
G04 #@! TO.P,J2,A37,GND*
G04 #@! TO.N,GND*
X99969000Y-110490000D03*
G04 #@! TO.P,J2,A38,GND*
X102509000Y-110490000D03*
G04 #@! TO.P,J2,A39,uio[0]*
G04 #@! TO.N,uio0*
X99969000Y-113030000D03*
G04 #@! TO.P,J2,A40,uio[1]*
G04 #@! TO.N,uio1*
X102509000Y-113030000D03*
G04 #@! TO.P,J2,B1,GND*
G04 #@! TO.N,GND*
X139969000Y-64770000D03*
G04 #@! TO.P,J2,B2,VDDA*
G04 #@! TO.N,unconnected-(J2A-VDDA-PadB2)*
X142509000Y-64770000D03*
G04 #@! TO.P,J2,B3,GND*
G04 #@! TO.N,GND*
X139969000Y-67310000D03*
G04 #@! TO.P,J2,B4,VDDIO*
G04 #@! TO.N,+3V3*
X142509000Y-67310000D03*
G04 #@! TO.P,J2,B5,an11*
G04 #@! TO.N,unconnected-(J2D-an11-PadB5)*
X139969000Y-69850000D03*
G04 #@! TO.P,J2,B6,GND*
G04 #@! TO.N,GND*
X142509000Y-69850000D03*
G04 #@! TO.P,J2,B7,an10*
G04 #@! TO.N,unconnected-(J2D-an10-PadB7)*
X139969000Y-72390000D03*
G04 #@! TO.P,J2,B8,GND*
G04 #@! TO.N,GND*
X142509000Y-72390000D03*
G04 #@! TO.P,J2,B9,an9*
G04 #@! TO.N,unconnected-(J2D-an9-PadB9)*
X139969000Y-74930000D03*
G04 #@! TO.P,J2,B10,GND*
G04 #@! TO.N,GND*
X142509000Y-74930000D03*
G04 #@! TO.P,J2,B11,an8*
G04 #@! TO.N,unconnected-(J2D-an8-PadB11)*
X139969000Y-77470000D03*
G04 #@! TO.P,J2,B12,GND*
G04 #@! TO.N,GND*
X142509000Y-77470000D03*
G04 #@! TO.P,J2,B13,an7*
G04 #@! TO.N,unconnected-(J2D-an7-PadB13)*
X139969000Y-80010000D03*
G04 #@! TO.P,J2,B14,GND*
G04 #@! TO.N,GND*
X142509000Y-80010000D03*
G04 #@! TO.P,J2,B15,an6*
G04 #@! TO.N,unconnected-(J2D-an6-PadB15)*
X139969000Y-82550000D03*
G04 #@! TO.P,J2,B16,GND*
G04 #@! TO.N,GND*
X142509000Y-82550000D03*
G04 #@! TO.P,J2,B17,GND*
X139969000Y-85090000D03*
G04 #@! TO.P,J2,B18,GND*
X142509000Y-85090000D03*
G04 #@! TO.P,J2,B19,uo_out[6]*
G04 #@! TO.N,out6*
X139969000Y-87630000D03*
G04 #@! TO.P,J2,B20,uo_out[7]*
G04 #@! TO.N,out7*
X142509000Y-87630000D03*
G04 #@! TO.P,J2,B21,uo_out[4]*
G04 #@! TO.N,out4*
X139969000Y-90170000D03*
G04 #@! TO.P,J2,B22,uo_out[5]*
G04 #@! TO.N,out5*
X142509000Y-90170000D03*
G04 #@! TO.P,J2,B23,GND*
G04 #@! TO.N,GND*
X139969000Y-92710000D03*
G04 #@! TO.P,J2,B24,GND*
X142509000Y-92710000D03*
G04 #@! TO.P,J2,B25,uo_out[2]*
G04 #@! TO.N,out2*
X139969000Y-95250000D03*
G04 #@! TO.P,J2,B26,uo_out[3]*
G04 #@! TO.N,out3*
X142509000Y-95250000D03*
G04 #@! TO.P,J2,B27,uo_out[0]*
G04 #@! TO.N,out0*
X139969000Y-97790000D03*
G04 #@! TO.P,J2,B28,uo_out[1]*
G04 #@! TO.N,out1*
X142509000Y-97790000D03*
G04 #@! TO.P,J2,B29,GND*
G04 #@! TO.N,GND*
X139969000Y-100330000D03*
G04 #@! TO.P,J2,B30,GND*
X142509000Y-100330000D03*
G04 #@! TO.P,J2,B31,uio[6]*
G04 #@! TO.N,uio6*
X139969000Y-102870000D03*
G04 #@! TO.P,J2,B32,uio[7]*
G04 #@! TO.N,uio7*
X142509000Y-102870000D03*
G04 #@! TO.P,J2,B33,uio[4]*
G04 #@! TO.N,uio4*
X139969000Y-105410000D03*
G04 #@! TO.P,J2,B34,uio[5]*
G04 #@! TO.N,uio5*
X142509000Y-105410000D03*
G04 #@! TO.P,J2,B35,GND*
G04 #@! TO.N,GND*
X139969000Y-107950000D03*
G04 #@! TO.P,J2,B36,GND*
X142509000Y-107950000D03*
G04 #@! TO.P,J2,B37,uio[2]*
G04 #@! TO.N,uio2*
X139969000Y-110490000D03*
G04 #@! TO.P,J2,B38,uio[3]*
G04 #@! TO.N,uio3*
X142509000Y-110490000D03*
G04 #@! TO.P,J2,B39,GND*
G04 #@! TO.N,GND*
X139969000Y-113030000D03*
G04 #@! TO.P,J2,B40,GND*
X142509000Y-113030000D03*
G04 #@! TD*
D11*
G04 #@! TO.P,J1,1,Pin_1*
G04 #@! TO.N,TMS*
X129794000Y-101854000D03*
D12*
G04 #@! TO.P,J1,2,Pin_2*
G04 #@! TO.N,+3V3*
X132334000Y-101854000D03*
G04 #@! TO.P,J1,3,Pin_3*
G04 #@! TO.N,TCK*
X129794000Y-104394000D03*
G04 #@! TO.P,J1,4,Pin_4*
G04 #@! TO.N,GND*
X132334000Y-104394000D03*
G04 #@! TO.P,J1,5,Pin_5*
G04 #@! TO.N,TDO*
X129794000Y-106934000D03*
G04 #@! TO.P,J1,6,Pin_6*
G04 #@! TO.N,GND*
X132334000Y-106934000D03*
G04 #@! TO.P,J1,7,Pin_7*
G04 #@! TO.N,TDI*
X129794000Y-109474000D03*
G04 #@! TO.P,J1,8,Pin_8*
G04 #@! TO.N,GND*
X132334000Y-109474000D03*
G04 #@! TO.P,J1,9,Pin_9*
G04 #@! TO.N,CONFIG_PROGRAMN*
X129794000Y-112014000D03*
G04 #@! TO.P,J1,10,Pin_10*
G04 #@! TO.N,GND*
X132334000Y-112014000D03*
G04 #@! TD*
D13*
G04 #@! TO.N,+3V3*
X117600000Y-89500000D03*
X117600000Y-87900000D03*
X117600000Y-87100000D03*
X118400000Y-84700000D03*
X122400000Y-87100000D03*
D14*
X122174000Y-94742000D03*
X122809000Y-107315000D03*
D13*
X117600000Y-84700000D03*
X122400000Y-87900000D03*
D14*
X120523000Y-101092000D03*
X117348000Y-79502000D03*
D13*
X122400000Y-88700000D03*
D14*
X137668000Y-68580000D03*
D13*
X121600000Y-85500000D03*
X122400000Y-84700000D03*
D14*
X115189000Y-101092000D03*
D13*
X118400000Y-87100000D03*
D14*
X137668000Y-66040000D03*
D13*
X121600000Y-84700000D03*
D14*
X117348000Y-94742000D03*
X122174000Y-79502000D03*
D15*
G04 #@! TO.N,GND*
X115700000Y-94600000D03*
D13*
X119200000Y-87100000D03*
X114400000Y-91100000D03*
X122400000Y-92700000D03*
D14*
X124460000Y-67056000D03*
D15*
X112500000Y-86700000D03*
D13*
X120000000Y-86300000D03*
X125600000Y-92700000D03*
D14*
X136271000Y-96647000D03*
D13*
X120800000Y-87900000D03*
D14*
X109855000Y-87503000D03*
X128524000Y-67056000D03*
D15*
X113500000Y-80600000D03*
D14*
X114808000Y-109982000D03*
D15*
X126700000Y-80400000D03*
D13*
X125600000Y-83900000D03*
X124800000Y-90300000D03*
D14*
X117348000Y-76708000D03*
D13*
X120800000Y-84700000D03*
X125600000Y-87100000D03*
X118400000Y-87900000D03*
D14*
X115316000Y-66802000D03*
D13*
X120000000Y-87900000D03*
D14*
X110744000Y-64262000D03*
X129540000Y-80518000D03*
X110744000Y-73914000D03*
X121920000Y-70866000D03*
X133350000Y-96647000D03*
X109855000Y-82677000D03*
D13*
X114400000Y-83900000D03*
D14*
X123190000Y-102108000D03*
X122174000Y-97536000D03*
D13*
X120000000Y-84700000D03*
X120000000Y-87100000D03*
D14*
X136271000Y-99187000D03*
X131826000Y-70104000D03*
X117348000Y-97536000D03*
D13*
X120800000Y-87100000D03*
X119200000Y-84700000D03*
D14*
X125476000Y-105156000D03*
X127127000Y-101092000D03*
D13*
X114400000Y-92700000D03*
D14*
X122174000Y-76708000D03*
D15*
G04 #@! TO.N,in5*
X119430800Y-94996000D03*
D13*
G04 #@! TO.N,out0*
X118400000Y-93500000D03*
G04 #@! TO.N,in6*
X116800000Y-92700000D03*
D15*
G04 #@! TO.N,in7*
X105600000Y-105400000D03*
G04 #@! TO.N,Net-(U2-FB)*
X113411000Y-64643000D03*
X119380000Y-65151000D03*
D13*
G04 #@! TO.N,+2V5*
X118400000Y-89500000D03*
D14*
X125200000Y-79300000D03*
D13*
X122400000Y-85500000D03*
X119200000Y-89500000D03*
G04 #@! TO.N,+1V1*
X120000000Y-85500000D03*
X121600000Y-88700000D03*
X117600000Y-86300000D03*
D14*
X114400000Y-70800000D03*
X114400000Y-72300000D03*
D13*
X119200000Y-88700000D03*
X120800000Y-89500000D03*
X118400000Y-85500000D03*
D14*
X113000000Y-72300000D03*
X113000000Y-70800000D03*
D13*
X120800000Y-88700000D03*
X117600000Y-85500000D03*
X119200000Y-85500000D03*
X118400000Y-86300000D03*
X120000000Y-88700000D03*
G04 #@! TO.N,TCK*
X121500000Y-93800000D03*
D15*
X123700000Y-95700000D03*
D13*
G04 #@! TO.N,Net-(U1H-CFG_0)*
X121000000Y-95046800D03*
D15*
X119380000Y-98425000D03*
X114681000Y-98933000D03*
D13*
X120800000Y-91100000D03*
D15*
G04 #@! TO.N,Net-(U1H-CFG_1)*
X125476000Y-98425000D03*
D13*
X121600000Y-91900000D03*
D15*
X124612400Y-96469200D03*
X114300000Y-103505000D03*
G04 #@! TO.N,Net-(U1H-CFG_2)*
X117348000Y-102743000D03*
X122682000Y-98425000D03*
D13*
G04 #@! TO.N,CONFIG_INITN*
X120000000Y-92700000D03*
G04 #@! TO.N,TDO*
X123200000Y-90300000D03*
D15*
X123988359Y-97282001D03*
D13*
G04 #@! TO.N,CONFIG_PROGRAMN*
X120500000Y-94600000D03*
X120000000Y-91900000D03*
G04 #@! TO.N,CONFIG_SCK*
X119999195Y-91102414D03*
G04 #@! TD*
D16*
G04 #@! TO.N,+3V3*
X142509000Y-67310000D02*
X141239000Y-68580000D01*
X141239000Y-68580000D02*
X137668000Y-68580000D01*
G04 #@! TO.N,GND*
X99969000Y-97790000D02*
X101239000Y-99060000D01*
X142509000Y-80010000D02*
X141239000Y-81280000D01*
X101239000Y-99060000D02*
X103505000Y-99060000D01*
X142509000Y-72390000D02*
X141239000Y-73660000D01*
X101239000Y-101600000D02*
X103505000Y-101600000D01*
X101239000Y-71120000D02*
X103505000Y-71120000D01*
X99969000Y-105410000D02*
X101239000Y-104140000D01*
X142509000Y-74930000D02*
X141239000Y-76200000D01*
X141239000Y-76200000D02*
X138684000Y-76200000D01*
X141239000Y-83820000D02*
X138684000Y-83820000D01*
X142509000Y-82550000D02*
X141239000Y-83820000D01*
X99969000Y-95250000D02*
X101239000Y-96520000D01*
X99969000Y-100330000D02*
X101239000Y-101600000D01*
X101239000Y-93980000D02*
X103505000Y-93980000D01*
X101239000Y-63500000D02*
X103505000Y-63500000D01*
X141239000Y-71120000D02*
X138176000Y-71120000D01*
X99969000Y-92710000D02*
X101239000Y-93980000D01*
X101239000Y-78740000D02*
X99187000Y-78740000D01*
X101239000Y-104140000D02*
X103505000Y-104140000D01*
X141239000Y-78740000D02*
X138684000Y-78740000D01*
X99969000Y-90170000D02*
X101239000Y-91440000D01*
X141239000Y-73660000D02*
X138684000Y-73660000D01*
X141239000Y-81280000D02*
X138684000Y-81280000D01*
X101239000Y-91440000D02*
X103759000Y-91440000D01*
X142509000Y-69850000D02*
X141239000Y-71120000D01*
X142509000Y-77470000D02*
X141239000Y-78740000D01*
X99969000Y-64770000D02*
X101239000Y-63500000D01*
X102509000Y-77470000D02*
X101239000Y-78740000D01*
X101239000Y-96520000D02*
X103505000Y-96520000D01*
X99969000Y-69850000D02*
X101239000Y-71120000D01*
G04 #@! TO.N,in5*
X116600100Y-93182600D02*
X116194212Y-92776712D01*
X117500400Y-94081600D02*
X116601400Y-93182600D01*
X118516400Y-94081600D02*
X117500400Y-94081600D01*
X116194212Y-92776712D02*
X116194212Y-92205788D01*
X101239000Y-88900000D02*
X99969000Y-87630000D01*
X112888424Y-88900000D02*
X101239000Y-88900000D01*
X116194212Y-92205788D02*
X112888424Y-88900000D01*
X119430800Y-94996000D02*
X118516400Y-94081600D01*
X116601400Y-93182600D02*
X116600100Y-93182600D01*
G04 #@! TO.N,out0*
X122481000Y-96700000D02*
X123571000Y-97790000D01*
X118400000Y-93500000D02*
X118710421Y-93500000D01*
X121910421Y-96700000D02*
X122481000Y-96700000D01*
X123571000Y-97790000D02*
X139969000Y-97790000D01*
X118710421Y-93500000D02*
X121910421Y-96700000D01*
G04 #@! TO.N,in6*
X102509000Y-82550000D02*
X107041318Y-82550000D01*
X116800000Y-92308682D02*
X116800000Y-92700000D01*
X107041318Y-82550000D02*
X116800000Y-92308682D01*
G04 #@! TO.N,in7*
X105600000Y-105400000D02*
X105590000Y-105410000D01*
X105590000Y-105410000D02*
X102509000Y-105410000D01*
D17*
G04 #@! TO.N,Net-(U2-FB)*
X119380000Y-65151000D02*
X118872000Y-64643000D01*
X118872000Y-64643000D02*
X113411000Y-64643000D01*
D18*
G04 #@! TO.N,+2V5*
X124002800Y-82143600D02*
X125200000Y-80946400D01*
D19*
X120100000Y-90400000D02*
X121690000Y-90400000D01*
X118400000Y-89500000D02*
X119200000Y-89500000D01*
D18*
X125200000Y-80946400D02*
X125200000Y-79300000D01*
X123184934Y-84884934D02*
X124002800Y-84067068D01*
D19*
X119200000Y-89500000D02*
X120100000Y-90400000D01*
X123100000Y-88990000D02*
X123100000Y-86200000D01*
D18*
X123100000Y-86200000D02*
X123100000Y-84969868D01*
D19*
X122569868Y-85500000D02*
X123184934Y-84884934D01*
D18*
X124002800Y-84067068D02*
X124002800Y-82143600D01*
D19*
X121690000Y-90400000D02*
X123100000Y-88990000D01*
D18*
X122400000Y-85500000D02*
X122569868Y-85500000D01*
X123100000Y-86200000D02*
X122400000Y-85500000D01*
D16*
G04 #@! TO.N,TCK*
X123700000Y-95334053D02*
X122165947Y-93800000D01*
X122165947Y-93800000D02*
X121500000Y-93800000D01*
X123700000Y-95700000D02*
X123700000Y-95334053D01*
G04 #@! TO.N,Net-(U1H-CFG_0)*
X119380000Y-98425000D02*
X118872000Y-98933000D01*
X118872000Y-98933000D02*
X114681000Y-98933000D01*
X120800000Y-91200000D02*
X120800000Y-91100000D01*
X121000000Y-95046800D02*
X121000000Y-91400000D01*
X121000000Y-91400000D02*
X120800000Y-91200000D01*
G04 #@! TO.N,Net-(U1H-CFG_1)*
X124612400Y-96469200D02*
X124612400Y-94012400D01*
X114300000Y-103505000D02*
X120396000Y-103505000D01*
X124612400Y-94012400D02*
X122500000Y-91900000D01*
X122500000Y-91900000D02*
X121600000Y-91900000D01*
X120396000Y-103505000D02*
X125476000Y-98425000D01*
G04 #@! TO.N,Net-(U1H-CFG_2)*
X117348000Y-102743000D02*
X119805947Y-102743000D01*
X119805947Y-102743000D02*
X122682000Y-99866947D01*
X122682000Y-99866947D02*
X122682000Y-98425000D01*
G04 #@! TO.N,CONFIG_INITN*
X117694212Y-92700000D02*
X114400000Y-89405788D01*
X101239000Y-68580000D02*
X103276106Y-68580000D01*
X99969000Y-67310000D02*
X101239000Y-68580000D01*
X114400000Y-89405788D02*
X108548053Y-73851947D01*
X117694212Y-92700000D02*
X120000000Y-92700000D01*
X103276106Y-68580000D02*
X108548053Y-73851947D01*
G04 #@! TO.N,TDO*
X123988359Y-97282001D02*
X124815599Y-97282001D01*
X125374400Y-94174400D02*
X123200000Y-92000000D01*
X124815599Y-97282001D02*
X125374400Y-96723200D01*
X125374400Y-96723200D02*
X125374400Y-94174400D01*
X123200000Y-92000000D02*
X123200000Y-90300000D01*
G04 #@! TO.N,CONFIG_PROGRAMN*
X114804216Y-89307110D02*
X114804216Y-89300000D01*
X117397106Y-91900000D02*
X114804216Y-89307110D01*
X120000000Y-91900000D02*
X117397106Y-91900000D01*
X120000000Y-91900000D02*
X120500000Y-92400000D01*
X109149500Y-73950500D02*
X114804216Y-89300000D01*
X120500000Y-92400000D02*
X120500000Y-94600000D01*
X109149500Y-73950500D02*
X102509000Y-67310000D01*
G04 #@! TO.N,CONFIG_SCK*
X119999195Y-91102414D02*
X119996781Y-91100000D01*
X109700000Y-71961000D02*
X102509000Y-64770000D01*
X115115039Y-89115039D02*
X109700000Y-74416131D01*
X119996781Y-91100000D02*
X117100000Y-91100000D01*
X117100000Y-91100000D02*
X115115039Y-89115039D01*
X109700000Y-74416131D02*
X109700000Y-71961000D01*
G04 #@! TD*
G04 #@! TA.AperFunction,Conductor*
G04 #@! TO.N,GND*
G36*
X99103541Y-63428502D02*
G01*
X99150034Y-63482158D01*
X99160138Y-63552432D01*
X99130644Y-63617012D01*
X99112811Y-63633932D01*
X99002326Y-63719925D01*
X98842678Y-63893349D01*
X98713750Y-64090689D01*
X98619058Y-64306566D01*
X98561192Y-64535071D01*
X98558562Y-64566800D01*
X99573053Y-64566800D01*
X99554792Y-64598429D01*
X99524500Y-64711480D01*
X99524500Y-64828520D01*
X99554792Y-64941571D01*
X99573053Y-64973200D01*
X98558563Y-64973200D01*
X98561192Y-65004928D01*
X98619058Y-65233433D01*
X98713750Y-65449310D01*
X98842678Y-65646650D01*
X99002326Y-65820074D01*
X99188361Y-65964871D01*
X99190102Y-65966009D01*
X99190654Y-65966656D01*
X99192468Y-65968068D01*
X99192177Y-65968441D01*
X99236188Y-66020015D01*
X99245760Y-66090363D01*
X99215780Y-66154719D01*
X99198573Y-66170921D01*
X99036514Y-66297056D01*
X98882507Y-66464354D01*
X98758138Y-66654715D01*
X98666798Y-66862949D01*
X98666795Y-66862956D01*
X98610977Y-67083378D01*
X98610976Y-67083384D01*
X98610976Y-67083386D01*
X98592198Y-67310000D01*
X98608092Y-67501814D01*
X98610977Y-67536621D01*
X98666795Y-67757043D01*
X98666798Y-67757050D01*
X98758138Y-67965284D01*
X98847185Y-68101581D01*
X98882510Y-68155649D01*
X99036517Y-68322946D01*
X99198573Y-68449079D01*
X99240045Y-68506703D01*
X99243779Y-68577601D01*
X99208589Y-68639263D01*
X99190108Y-68653987D01*
X99188361Y-68655128D01*
X99002326Y-68799925D01*
X98842678Y-68973349D01*
X98713750Y-69170689D01*
X98619058Y-69386566D01*
X98561192Y-69615071D01*
X98558562Y-69646800D01*
X99573053Y-69646800D01*
X99554792Y-69678429D01*
X99524500Y-69791480D01*
X99524500Y-69908520D01*
X99554792Y-70021571D01*
X99573053Y-70053200D01*
X98558563Y-70053200D01*
X98561192Y-70084928D01*
X98619058Y-70313433D01*
X98713750Y-70529310D01*
X98842678Y-70726650D01*
X99002326Y-70900074D01*
X99188361Y-71044871D01*
X99190102Y-71046009D01*
X99190654Y-71046656D01*
X99192468Y-71048068D01*
X99192177Y-71048441D01*
X99236188Y-71100015D01*
X99245760Y-71170363D01*
X99215780Y-71234719D01*
X99198573Y-71250921D01*
X99036514Y-71377056D01*
X98882507Y-71544354D01*
X98758138Y-71734715D01*
X98666798Y-71942949D01*
X98666795Y-71942956D01*
X98610977Y-72163378D01*
X98610976Y-72163384D01*
X98610976Y-72163386D01*
X98609036Y-72186800D01*
X98592198Y-72390000D01*
X98610977Y-72616621D01*
X98666795Y-72837043D01*
X98666798Y-72837050D01*
X98758138Y-73045284D01*
X98870026Y-73216542D01*
X98882510Y-73235649D01*
X98996644Y-73359632D01*
X99030135Y-73396014D01*
X99036517Y-73402946D01*
X99215961Y-73542612D01*
X99215963Y-73542613D01*
X99215966Y-73542615D01*
X99228110Y-73549187D01*
X99278500Y-73599200D01*
X99293852Y-73668517D01*
X99269291Y-73735130D01*
X99228110Y-73770813D01*
X99215966Y-73777384D01*
X99215960Y-73777388D01*
X99036514Y-73917056D01*
X98882507Y-74084354D01*
X98758138Y-74274715D01*
X98666798Y-74482949D01*
X98666795Y-74482956D01*
X98610977Y-74703378D01*
X98592198Y-74930000D01*
X98610977Y-75156621D01*
X98666795Y-75377043D01*
X98666798Y-75377050D01*
X98758138Y-75585284D01*
X98804414Y-75656115D01*
X98882510Y-75775649D01*
X99036517Y-75942946D01*
X99215961Y-76082612D01*
X99215963Y-76082613D01*
X99215966Y-76082615D01*
X99228110Y-76089187D01*
X99278500Y-76139200D01*
X99293852Y-76208517D01*
X99269291Y-76275130D01*
X99228110Y-76310813D01*
X99215966Y-76317384D01*
X99215960Y-76317388D01*
X99036514Y-76457056D01*
X98882507Y-76624354D01*
X98758138Y-76814715D01*
X98666798Y-77022949D01*
X98666795Y-77022956D01*
X98610977Y-77243378D01*
X98610976Y-77243384D01*
X98610976Y-77243386D01*
X98592198Y-77470000D01*
X98607378Y-77653198D01*
X98610977Y-77696621D01*
X98666795Y-77917043D01*
X98666798Y-77917050D01*
X98758138Y-78125284D01*
X98831950Y-78238262D01*
X98882510Y-78315649D01*
X99036517Y-78482946D01*
X99215961Y-78622612D01*
X99215963Y-78622613D01*
X99215966Y-78622615D01*
X99228110Y-78629187D01*
X99278500Y-78679200D01*
X99293852Y-78748517D01*
X99269291Y-78815130D01*
X99228110Y-78850813D01*
X99215966Y-78857384D01*
X99215960Y-78857388D01*
X99036514Y-78997056D01*
X98882507Y-79164354D01*
X98758138Y-79354715D01*
X98666798Y-79562949D01*
X98666795Y-79562956D01*
X98610977Y-79783378D01*
X98592198Y-80010000D01*
X98610977Y-80236621D01*
X98666795Y-80457043D01*
X98666798Y-80457050D01*
X98758138Y-80665284D01*
X98879193Y-80850573D01*
X98882510Y-80855649D01*
X99036517Y-81022946D01*
X99198573Y-81149079D01*
X99240045Y-81206703D01*
X99243779Y-81277601D01*
X99208589Y-81339263D01*
X99190108Y-81353987D01*
X99188361Y-81355128D01*
X99002326Y-81499925D01*
X98842678Y-81673349D01*
X98713750Y-81870689D01*
X98619058Y-82086566D01*
X98561192Y-82315071D01*
X98558562Y-82346800D01*
X99573053Y-82346800D01*
X99554792Y-82378429D01*
X99524500Y-82491480D01*
X99524500Y-82608520D01*
X99554792Y-82721571D01*
X99573053Y-82753200D01*
X98558563Y-82753200D01*
X98561192Y-82784928D01*
X98619058Y-83013433D01*
X98713750Y-83229310D01*
X98842678Y-83426650D01*
X99002326Y-83600074D01*
X99188361Y-83744871D01*
X99190102Y-83746009D01*
X99190654Y-83746656D01*
X99192468Y-83748068D01*
X99192177Y-83748441D01*
X99236188Y-83800015D01*
X99245760Y-83870363D01*
X99215780Y-83934719D01*
X99198573Y-83950921D01*
X99036514Y-84077056D01*
X98882507Y-84244354D01*
X98758138Y-84434715D01*
X98666798Y-84642949D01*
X98666795Y-84642956D01*
X98610977Y-84863378D01*
X98610976Y-84863384D01*
X98610976Y-84863386D01*
X98592198Y-85090000D01*
X98607378Y-85273198D01*
X98610977Y-85316621D01*
X98666795Y-85537043D01*
X98666798Y-85537050D01*
X98758138Y-85745284D01*
X98834456Y-85862098D01*
X98882510Y-85935649D01*
X99036517Y-86102946D01*
X99215961Y-86242612D01*
X99215963Y-86242613D01*
X99215966Y-86242615D01*
X99228110Y-86249187D01*
X99278500Y-86299200D01*
X99293852Y-86368517D01*
X99269291Y-86435130D01*
X99228110Y-86470813D01*
X99215966Y-86477384D01*
X99215960Y-86477388D01*
X99036514Y-86617056D01*
X98882507Y-86784354D01*
X98758138Y-86974715D01*
X98666798Y-87182949D01*
X98666795Y-87182956D01*
X98610977Y-87403378D01*
X98610976Y-87403384D01*
X98610976Y-87403386D01*
X98592198Y-87630000D01*
X98610133Y-87846445D01*
X98610977Y-87856621D01*
X98666795Y-88077043D01*
X98666798Y-88077050D01*
X98758138Y-88285284D01*
X98826756Y-88390312D01*
X98882510Y-88475649D01*
X99036517Y-88642946D01*
X99198573Y-88769079D01*
X99240045Y-88826703D01*
X99243779Y-88897601D01*
X99208589Y-88959263D01*
X99190108Y-88973987D01*
X99188361Y-88975128D01*
X99002326Y-89119925D01*
X98842678Y-89293349D01*
X98713750Y-89490689D01*
X98619058Y-89706566D01*
X98561192Y-89935071D01*
X98558562Y-89966800D01*
X99573053Y-89966800D01*
X99554792Y-89998429D01*
X99524500Y-90111480D01*
X99524500Y-90228520D01*
X99554792Y-90341571D01*
X99573053Y-90373200D01*
X98558563Y-90373200D01*
X98561192Y-90404928D01*
X98619058Y-90633433D01*
X98713750Y-90849310D01*
X98842678Y-91046650D01*
X99002326Y-91220074D01*
X99157136Y-91340568D01*
X99198607Y-91398194D01*
X99202341Y-91469092D01*
X99167151Y-91530754D01*
X99157136Y-91539432D01*
X99002326Y-91659925D01*
X98842678Y-91833349D01*
X98713750Y-92030689D01*
X98619058Y-92246566D01*
X98561192Y-92475071D01*
X98558562Y-92506800D01*
X99573053Y-92506800D01*
X99554792Y-92538429D01*
X99524500Y-92651480D01*
X99524500Y-92768520D01*
X99554792Y-92881571D01*
X99573053Y-92913200D01*
X98558563Y-92913200D01*
X98561192Y-92944928D01*
X98619058Y-93173433D01*
X98713750Y-93389310D01*
X98842678Y-93586650D01*
X99002326Y-93760074D01*
X99157136Y-93880568D01*
X99198607Y-93938194D01*
X99202341Y-94009092D01*
X99167151Y-94070754D01*
X99157136Y-94079432D01*
X99002326Y-94199925D01*
X98842678Y-94373349D01*
X98713750Y-94570689D01*
X98619058Y-94786566D01*
X98561192Y-95015071D01*
X98558562Y-95046800D01*
X99573053Y-95046800D01*
X99554792Y-95078429D01*
X99524500Y-95191480D01*
X99524500Y-95308520D01*
X99554792Y-95421571D01*
X99573053Y-95453200D01*
X98558563Y-95453200D01*
X98561192Y-95484928D01*
X98619058Y-95713433D01*
X98713750Y-95929310D01*
X98842678Y-96126650D01*
X99002326Y-96300074D01*
X99157136Y-96420568D01*
X99198607Y-96478194D01*
X99202341Y-96549092D01*
X99167151Y-96610754D01*
X99157136Y-96619432D01*
X99002326Y-96739925D01*
X98842678Y-96913349D01*
X98713750Y-97110689D01*
X98619058Y-97326566D01*
X98561192Y-97555071D01*
X98558562Y-97586800D01*
X99573053Y-97586800D01*
X99554792Y-97618429D01*
X99524500Y-97731480D01*
X99524500Y-97848520D01*
X99554792Y-97961571D01*
X99573053Y-97993200D01*
X98558563Y-97993200D01*
X98561192Y-98024928D01*
X98619058Y-98253433D01*
X98713750Y-98469310D01*
X98842678Y-98666650D01*
X99002326Y-98840074D01*
X99157136Y-98960568D01*
X99198607Y-99018194D01*
X99202341Y-99089092D01*
X99167151Y-99150754D01*
X99157136Y-99159432D01*
X99002326Y-99279925D01*
X98842678Y-99453349D01*
X98713750Y-99650689D01*
X98619058Y-99866566D01*
X98561192Y-100095071D01*
X98558562Y-100126800D01*
X99573053Y-100126800D01*
X99554792Y-100158429D01*
X99524500Y-100271480D01*
X99524500Y-100388520D01*
X99554792Y-100501571D01*
X99573053Y-100533200D01*
X98558563Y-100533200D01*
X98561192Y-100564928D01*
X98619058Y-100793433D01*
X98713750Y-101009310D01*
X98842678Y-101206650D01*
X99002326Y-101380074D01*
X99157136Y-101500568D01*
X99198607Y-101558194D01*
X99202341Y-101629092D01*
X99167151Y-101690754D01*
X99157136Y-101699432D01*
X99002326Y-101819925D01*
X98842678Y-101993349D01*
X98713750Y-102190689D01*
X98619058Y-102406566D01*
X98561192Y-102635071D01*
X98558562Y-102666800D01*
X99573053Y-102666800D01*
X99554792Y-102698429D01*
X99524500Y-102811480D01*
X99524500Y-102928520D01*
X99554792Y-103041571D01*
X99573053Y-103073200D01*
X98558563Y-103073200D01*
X98561192Y-103104928D01*
X98619058Y-103333433D01*
X98713750Y-103549310D01*
X98842678Y-103746650D01*
X99002326Y-103920074D01*
X99157136Y-104040568D01*
X99198607Y-104098194D01*
X99202341Y-104169092D01*
X99167151Y-104230754D01*
X99157136Y-104239432D01*
X99002326Y-104359925D01*
X98842678Y-104533349D01*
X98713750Y-104730689D01*
X98619058Y-104946566D01*
X98561192Y-105175071D01*
X98558562Y-105206800D01*
X99573053Y-105206800D01*
X99554792Y-105238429D01*
X99524500Y-105351480D01*
X99524500Y-105468520D01*
X99554792Y-105581571D01*
X99573053Y-105613200D01*
X98558563Y-105613200D01*
X98561192Y-105644928D01*
X98619058Y-105873433D01*
X98713750Y-106089310D01*
X98842678Y-106286650D01*
X99002326Y-106460074D01*
X99188361Y-106604871D01*
X99190102Y-106606009D01*
X99190654Y-106606656D01*
X99192468Y-106608068D01*
X99192177Y-106608441D01*
X99236188Y-106660015D01*
X99245760Y-106730363D01*
X99215780Y-106794719D01*
X99198573Y-106810921D01*
X99036514Y-106937056D01*
X98882507Y-107104354D01*
X98758138Y-107294715D01*
X98666798Y-107502949D01*
X98666795Y-107502956D01*
X98610977Y-107723378D01*
X98610976Y-107723384D01*
X98610976Y-107723386D01*
X98592198Y-107950000D01*
X98607670Y-108136723D01*
X98610977Y-108176621D01*
X98666795Y-108397043D01*
X98666798Y-108397050D01*
X98758138Y-108605284D01*
X98834456Y-108722098D01*
X98882510Y-108795649D01*
X99036517Y-108962946D01*
X99198573Y-109089079D01*
X99240045Y-109146703D01*
X99243779Y-109217601D01*
X99208589Y-109279263D01*
X99190108Y-109293987D01*
X99188361Y-109295128D01*
X99002326Y-109439925D01*
X98842678Y-109613349D01*
X98713750Y-109810689D01*
X98619058Y-110026566D01*
X98561192Y-110255071D01*
X98558562Y-110286800D01*
X99573053Y-110286800D01*
X99554792Y-110318429D01*
X99524500Y-110431480D01*
X99524500Y-110548520D01*
X99554792Y-110661571D01*
X99573053Y-110693200D01*
X98558563Y-110693200D01*
X98561192Y-110724928D01*
X98619058Y-110953433D01*
X98713750Y-111169310D01*
X98842678Y-111366650D01*
X99002326Y-111540074D01*
X99188361Y-111684871D01*
X99190102Y-111686009D01*
X99190654Y-111686656D01*
X99192468Y-111688068D01*
X99192177Y-111688441D01*
X99236188Y-111740015D01*
X99245760Y-111810363D01*
X99215780Y-111874719D01*
X99198573Y-111890921D01*
X99036514Y-112017056D01*
X98882507Y-112184354D01*
X98758138Y-112374715D01*
X98666798Y-112582949D01*
X98666795Y-112582956D01*
X98610977Y-112803378D01*
X98610976Y-112803384D01*
X98610976Y-112803386D01*
X98592198Y-113030000D01*
X98602116Y-113149697D01*
X98610977Y-113256621D01*
X98666795Y-113477043D01*
X98666798Y-113477050D01*
X98758138Y-113685284D01*
X98834456Y-113802098D01*
X98882510Y-113875649D01*
X99036517Y-114042946D01*
X99109632Y-114099853D01*
X99194705Y-114166068D01*
X99236177Y-114223693D01*
X99239911Y-114294591D01*
X99204721Y-114356253D01*
X99141781Y-114389102D01*
X99117315Y-114391500D01*
X98243501Y-114391500D01*
X98234512Y-114391179D01*
X98035721Y-114376961D01*
X98017933Y-114374403D01*
X97827597Y-114332998D01*
X97810359Y-114327937D01*
X97627850Y-114259864D01*
X97611498Y-114252396D01*
X97440541Y-114159047D01*
X97425417Y-114149327D01*
X97269486Y-114032598D01*
X97255900Y-114020825D01*
X97118174Y-113883099D01*
X97106401Y-113869513D01*
X97090436Y-113848187D01*
X97048766Y-113792522D01*
X96989672Y-113713582D01*
X96979952Y-113698458D01*
X96886603Y-113527501D01*
X96879135Y-113511149D01*
X96811060Y-113328633D01*
X96806003Y-113311411D01*
X96764593Y-113121054D01*
X96762038Y-113103277D01*
X96756797Y-113030000D01*
X96747821Y-112904487D01*
X96747500Y-112895499D01*
X96747500Y-64904500D01*
X96747821Y-64895512D01*
X96751276Y-64847200D01*
X96762038Y-64696716D01*
X96764593Y-64678947D01*
X96806004Y-64488584D01*
X96811058Y-64471369D01*
X96879138Y-64288842D01*
X96886599Y-64272505D01*
X96979955Y-64101535D01*
X96989668Y-64086422D01*
X97106407Y-63930478D01*
X97118167Y-63916907D01*
X97255907Y-63779167D01*
X97269478Y-63767407D01*
X97425422Y-63650668D01*
X97440535Y-63640955D01*
X97611505Y-63547599D01*
X97627842Y-63540138D01*
X97810369Y-63472058D01*
X97827584Y-63467004D01*
X98017947Y-63425593D01*
X98035716Y-63423038D01*
X98205471Y-63410898D01*
X98234513Y-63408821D01*
X98243501Y-63408500D01*
X98305945Y-63408500D01*
X99035420Y-63408500D01*
X99103541Y-63428502D01*
G37*
G04 #@! TD.AperFunction*
G04 #@! TA.AperFunction,Conductor*
G36*
X132537200Y-111553968D02*
G01*
X132526993Y-111548075D01*
X132399826Y-111514000D01*
X132268174Y-111514000D01*
X132141007Y-111548075D01*
X132130800Y-111553968D01*
X132130800Y-109934031D01*
X132141007Y-109939925D01*
X132268174Y-109974000D01*
X132399826Y-109974000D01*
X132526993Y-109939925D01*
X132537200Y-109934031D01*
X132537200Y-111553968D01*
G37*
G04 #@! TD.AperFunction*
G04 #@! TA.AperFunction,Conductor*
G36*
X132537200Y-109013968D02*
G01*
X132526993Y-109008075D01*
X132399826Y-108974000D01*
X132268174Y-108974000D01*
X132141007Y-109008075D01*
X132130800Y-109013968D01*
X132130800Y-107394031D01*
X132141007Y-107399925D01*
X132268174Y-107434000D01*
X132399826Y-107434000D01*
X132526993Y-107399925D01*
X132537200Y-107394031D01*
X132537200Y-109013968D01*
G37*
G04 #@! TD.AperFunction*
G04 #@! TA.AperFunction,Conductor*
G36*
X132537200Y-106473968D02*
G01*
X132526993Y-106468075D01*
X132399826Y-106434000D01*
X132268174Y-106434000D01*
X132141007Y-106468075D01*
X132130800Y-106473968D01*
X132130800Y-104854031D01*
X132141007Y-104859925D01*
X132268174Y-104894000D01*
X132399826Y-104894000D01*
X132526993Y-104859925D01*
X132537200Y-104854031D01*
X132537200Y-106473968D01*
G37*
G04 #@! TD.AperFunction*
G04 #@! TA.AperFunction,Conductor*
G36*
X112714769Y-89377702D02*
G01*
X112735743Y-89394605D01*
X115699607Y-92358469D01*
X115733633Y-92420781D01*
X115736512Y-92447564D01*
X115736512Y-92836973D01*
X115767703Y-92953377D01*
X115767704Y-92953380D01*
X115827958Y-93057743D01*
X115827966Y-93057753D01*
X116319918Y-93549705D01*
X116330495Y-93558981D01*
X116802492Y-94030978D01*
X116836518Y-94093290D01*
X116831453Y-94164105D01*
X116802493Y-94209168D01*
X116748078Y-94263583D01*
X116656665Y-94409066D01*
X116656664Y-94409069D01*
X116599912Y-94571255D01*
X116580675Y-94742000D01*
X116599912Y-94912744D01*
X116656664Y-95074930D01*
X116656665Y-95074933D01*
X116748079Y-95220417D01*
X116748080Y-95220419D01*
X116869580Y-95341919D01*
X116869582Y-95341920D01*
X117015066Y-95433334D01*
X117015067Y-95433334D01*
X117015070Y-95433336D01*
X117177254Y-95490087D01*
X117177253Y-95490087D01*
X117194543Y-95492034D01*
X117348000Y-95509325D01*
X117518746Y-95490087D01*
X117680930Y-95433336D01*
X117826419Y-95341919D01*
X117947919Y-95220419D01*
X118039336Y-95074930D01*
X118096087Y-94912746D01*
X118115325Y-94742000D01*
X118108273Y-94679406D01*
X118120523Y-94609474D01*
X118168636Y-94557267D01*
X118233481Y-94539300D01*
X118274624Y-94539300D01*
X118342745Y-94559302D01*
X118363719Y-94576205D01*
X118789993Y-95002479D01*
X118824019Y-95064791D01*
X118825979Y-95076386D01*
X118834076Y-95143076D01*
X118886617Y-95281613D01*
X118970778Y-95403541D01*
X118970779Y-95403542D01*
X118970780Y-95403543D01*
X119081678Y-95501790D01*
X119212867Y-95570643D01*
X119356720Y-95606100D01*
X119356721Y-95606100D01*
X119504879Y-95606100D01*
X119504880Y-95606100D01*
X119648733Y-95570643D01*
X119779922Y-95501790D01*
X119842264Y-95446559D01*
X119906516Y-95416359D01*
X119976897Y-95425690D01*
X120014912Y-95451777D01*
X121629386Y-97066251D01*
X121669569Y-97089450D01*
X121669571Y-97089452D01*
X121721519Y-97119443D01*
X121733756Y-97126508D01*
X121850164Y-97157700D01*
X122239224Y-97157700D01*
X122307345Y-97177702D01*
X122328319Y-97194605D01*
X122733519Y-97599805D01*
X122767545Y-97662117D01*
X122762480Y-97732932D01*
X122719933Y-97789768D01*
X122653413Y-97814579D01*
X122644424Y-97814900D01*
X122607918Y-97814900D01*
X122464068Y-97850356D01*
X122332882Y-97919207D01*
X122332878Y-97919209D01*
X122221978Y-98017458D01*
X122137817Y-98139386D01*
X122085277Y-98277923D01*
X122067419Y-98424997D01*
X122067419Y-98425002D01*
X122085277Y-98572076D01*
X122137816Y-98710611D01*
X122168614Y-98755230D01*
X122201996Y-98803592D01*
X122224232Y-98871015D01*
X122224300Y-98875167D01*
X122224300Y-99625170D01*
X122204298Y-99693291D01*
X122187395Y-99714266D01*
X121294594Y-100607066D01*
X121232282Y-100641091D01*
X121161466Y-100636026D01*
X121116404Y-100607065D01*
X121001419Y-100492080D01*
X121001417Y-100492079D01*
X120855933Y-100400665D01*
X120855930Y-100400664D01*
X120693746Y-100343913D01*
X120693744Y-100343912D01*
X120693746Y-100343912D01*
X120523000Y-100324675D01*
X120352255Y-100343912D01*
X120190069Y-100400664D01*
X120190066Y-100400665D01*
X120044582Y-100492079D01*
X120044580Y-100492080D01*
X119923080Y-100613580D01*
X119923079Y-100613582D01*
X119831665Y-100759066D01*
X119831664Y-100759069D01*
X119774912Y-100921255D01*
X119755675Y-101092000D01*
X119774912Y-101262744D01*
X119831664Y-101424930D01*
X119831665Y-101424933D01*
X119923079Y-101570417D01*
X119923080Y-101570419D01*
X120038065Y-101685404D01*
X120072091Y-101747716D01*
X120067026Y-101818531D01*
X120038066Y-101863594D01*
X119653266Y-102248395D01*
X119590953Y-102282420D01*
X119564170Y-102285300D01*
X117799190Y-102285300D01*
X117731069Y-102265298D01*
X117715637Y-102253613D01*
X117697121Y-102237209D01*
X117697117Y-102237207D01*
X117565931Y-102168356D01*
X117422081Y-102132900D01*
X117422080Y-102132900D01*
X117273920Y-102132900D01*
X117273918Y-102132900D01*
X117130068Y-102168356D01*
X116998882Y-102237207D01*
X116998878Y-102237209D01*
X116887978Y-102335458D01*
X116803817Y-102457386D01*
X116751277Y-102595923D01*
X116733419Y-102742997D01*
X116733419Y-102743002D01*
X116751277Y-102890079D01*
X116751540Y-102891145D01*
X116751504Y-102891950D01*
X116752196Y-102897645D01*
X116751249Y-102897759D01*
X116748423Y-102962073D01*
X116707453Y-103020056D01*
X116641639Y-103046685D01*
X116629202Y-103047300D01*
X114751190Y-103047300D01*
X114683069Y-103027298D01*
X114667637Y-103015613D01*
X114649121Y-102999209D01*
X114649117Y-102999207D01*
X114517931Y-102930356D01*
X114374081Y-102894900D01*
X114374080Y-102894900D01*
X114225920Y-102894900D01*
X114225918Y-102894900D01*
X114082068Y-102930356D01*
X113950882Y-102999207D01*
X113950878Y-102999209D01*
X113839978Y-103097458D01*
X113755817Y-103219386D01*
X113703277Y-103357923D01*
X113685419Y-103504997D01*
X113685419Y-103505002D01*
X113703277Y-103652076D01*
X113755817Y-103790613D01*
X113839978Y-103912541D01*
X113839979Y-103912542D01*
X113839980Y-103912543D01*
X113950878Y-104010790D01*
X114082067Y-104079643D01*
X114225920Y-104115100D01*
X114225921Y-104115100D01*
X114374079Y-104115100D01*
X114374080Y-104115100D01*
X114517933Y-104079643D01*
X114649122Y-104010790D01*
X114667637Y-103994386D01*
X114731890Y-103964187D01*
X114751190Y-103962700D01*
X120456258Y-103962700D01*
X120572666Y-103931508D01*
X120592471Y-103920074D01*
X120637632Y-103894000D01*
X120677035Y-103871251D01*
X125477343Y-99070942D01*
X125539653Y-99036919D01*
X125549353Y-99035279D01*
X125550079Y-99035100D01*
X125550080Y-99035100D01*
X125693933Y-98999643D01*
X125825122Y-98930790D01*
X125936020Y-98832543D01*
X126020184Y-98710610D01*
X126072722Y-98572079D01*
X126090581Y-98425000D01*
X126090581Y-98424997D01*
X126090581Y-98424994D01*
X126086197Y-98388886D01*
X126097842Y-98318851D01*
X126145503Y-98266231D01*
X126211278Y-98247700D01*
X138589150Y-98247700D01*
X138657271Y-98267702D01*
X138703764Y-98321358D01*
X138704537Y-98323086D01*
X138758138Y-98445284D01*
X138840977Y-98572079D01*
X138882510Y-98635649D01*
X139036517Y-98802946D01*
X139198573Y-98929079D01*
X139240045Y-98986703D01*
X139243779Y-99057601D01*
X139208589Y-99119263D01*
X139190108Y-99133987D01*
X139188361Y-99135128D01*
X139002326Y-99279925D01*
X138842678Y-99453349D01*
X138713750Y-99650689D01*
X138619058Y-99866566D01*
X138561192Y-100095071D01*
X138558562Y-100126800D01*
X139573053Y-100126800D01*
X139554792Y-100158429D01*
X139524500Y-100271480D01*
X139524500Y-100388520D01*
X139554792Y-100501571D01*
X139573053Y-100533200D01*
X138558563Y-100533200D01*
X138561192Y-100564928D01*
X138619058Y-100793433D01*
X138713750Y-101009310D01*
X138842678Y-101206650D01*
X139002326Y-101380074D01*
X139188361Y-101524871D01*
X139190102Y-101526009D01*
X139190654Y-101526656D01*
X139192468Y-101528068D01*
X139192177Y-101528441D01*
X139236188Y-101580015D01*
X139245760Y-101650363D01*
X139215780Y-101714719D01*
X139198573Y-101730921D01*
X139036514Y-101857056D01*
X138882507Y-102024354D01*
X138758138Y-102214715D01*
X138666798Y-102422949D01*
X138666795Y-102422956D01*
X138610977Y-102643378D01*
X138610976Y-102643384D01*
X138610976Y-102643386D01*
X138592198Y-102870000D01*
X138605232Y-103027298D01*
X138610977Y-103096621D01*
X138666795Y-103317043D01*
X138666798Y-103317050D01*
X138758138Y-103525284D01*
X138840977Y-103652079D01*
X138882510Y-103715649D01*
X138926606Y-103763550D01*
X139025745Y-103871245D01*
X139036517Y-103882946D01*
X139215961Y-104022612D01*
X139215963Y-104022613D01*
X139215966Y-104022615D01*
X139228110Y-104029187D01*
X139278500Y-104079200D01*
X139293852Y-104148517D01*
X139269291Y-104215130D01*
X139228110Y-104250813D01*
X139215966Y-104257384D01*
X139215960Y-104257388D01*
X139036514Y-104397056D01*
X138882507Y-104564354D01*
X138758138Y-104754715D01*
X138666798Y-104962949D01*
X138666795Y-104962956D01*
X138610977Y-105183378D01*
X138610976Y-105183384D01*
X138610976Y-105183386D01*
X138592198Y-105410000D01*
X138608092Y-105601814D01*
X138610977Y-105636621D01*
X138666795Y-105857043D01*
X138666798Y-105857050D01*
X138758138Y-106065284D01*
X138804414Y-106136115D01*
X138882510Y-106255649D01*
X139036517Y-106422946D01*
X139198573Y-106549079D01*
X139240045Y-106606703D01*
X139243779Y-106677601D01*
X139208589Y-106739263D01*
X139190108Y-106753987D01*
X139188361Y-106755128D01*
X139002326Y-106899925D01*
X138842678Y-107073349D01*
X138713750Y-107270689D01*
X138619058Y-107486566D01*
X138561192Y-107715071D01*
X138558562Y-107746800D01*
X139573053Y-107746800D01*
X139554792Y-107778429D01*
X139524500Y-107891480D01*
X139524500Y-108008520D01*
X139554792Y-108121571D01*
X139573053Y-108153200D01*
X138558563Y-108153200D01*
X138561192Y-108184928D01*
X138619058Y-108413433D01*
X138713750Y-108629310D01*
X138842678Y-108826650D01*
X139002326Y-109000074D01*
X139188361Y-109144871D01*
X139190102Y-109146009D01*
X139190654Y-109146656D01*
X139192468Y-109148068D01*
X139192177Y-109148441D01*
X139236188Y-109200015D01*
X139245760Y-109270363D01*
X139215780Y-109334719D01*
X139198573Y-109350921D01*
X139036514Y-109477056D01*
X138882507Y-109644354D01*
X138758138Y-109834715D01*
X138666798Y-110042949D01*
X138666795Y-110042956D01*
X138610977Y-110263378D01*
X138610976Y-110263384D01*
X138610976Y-110263386D01*
X138592198Y-110490000D01*
X138607670Y-110676723D01*
X138610977Y-110716621D01*
X138666795Y-110937043D01*
X138666798Y-110937050D01*
X138758138Y-111145284D01*
X138834456Y-111262098D01*
X138882510Y-111335649D01*
X139036517Y-111502946D01*
X139198573Y-111629079D01*
X139240045Y-111686703D01*
X139243779Y-111757601D01*
X139208589Y-111819263D01*
X139190108Y-111833987D01*
X139188361Y-111835128D01*
X139002326Y-111979925D01*
X138842678Y-112153349D01*
X138713750Y-112350689D01*
X138619058Y-112566566D01*
X138561192Y-112795071D01*
X138558562Y-112826800D01*
X139573053Y-112826800D01*
X139554792Y-112858429D01*
X139524500Y-112971480D01*
X139524500Y-113088520D01*
X139554792Y-113201571D01*
X139573053Y-113233200D01*
X138558563Y-113233200D01*
X138561192Y-113264928D01*
X138619058Y-113493433D01*
X138713750Y-113709310D01*
X138842678Y-113906650D01*
X139002326Y-114080074D01*
X139112811Y-114166068D01*
X139154282Y-114223693D01*
X139158016Y-114294592D01*
X139122826Y-114356254D01*
X139059885Y-114389102D01*
X139035420Y-114391500D01*
X125246079Y-114391500D01*
X125231971Y-114390708D01*
X125143735Y-114380766D01*
X125116228Y-114374487D01*
X125039146Y-114347515D01*
X125013730Y-114335276D01*
X124944569Y-114291819D01*
X124922515Y-114274230D01*
X124864769Y-114216484D01*
X124847181Y-114194431D01*
X124803721Y-114125265D01*
X124791486Y-114099858D01*
X124764510Y-114022766D01*
X124758234Y-113995268D01*
X124748292Y-113907028D01*
X124747500Y-113892921D01*
X124747500Y-112792109D01*
X124747499Y-112792104D01*
X124716793Y-112578538D01*
X124716792Y-112578535D01*
X124716791Y-112578526D01*
X124655999Y-112371487D01*
X124566360Y-112175206D01*
X124449701Y-111993681D01*
X124308395Y-111830605D01*
X124145319Y-111689299D01*
X123963794Y-111572640D01*
X123767513Y-111483001D01*
X123692363Y-111460935D01*
X123560482Y-111422211D01*
X123560461Y-111422206D01*
X123346895Y-111391500D01*
X123346890Y-111391500D01*
X123305945Y-111391500D01*
X119305945Y-111391500D01*
X119239000Y-111391500D01*
X119131110Y-111391500D01*
X119131104Y-111391500D01*
X118917538Y-111422206D01*
X118917517Y-111422211D01*
X118710490Y-111483000D01*
X118710487Y-111483001D01*
X118514206Y-111572640D01*
X118514202Y-111572642D01*
X118332682Y-111689298D01*
X118169605Y-111830605D01*
X118028298Y-111993682D01*
X117911642Y-112175202D01*
X117911640Y-112175205D01*
X117911640Y-112175206D01*
X117827502Y-112359443D01*
X117822000Y-112371490D01*
X117761211Y-112578517D01*
X117761206Y-112578538D01*
X117730500Y-112792104D01*
X117730500Y-113892921D01*
X117729708Y-113907029D01*
X117719766Y-113995264D01*
X117713487Y-114022771D01*
X117686515Y-114099853D01*
X117674273Y-114125275D01*
X117630822Y-114194426D01*
X117613230Y-114216484D01*
X117555484Y-114274230D01*
X117533425Y-114291822D01*
X117464272Y-114335274D01*
X117438853Y-114347515D01*
X117361771Y-114374487D01*
X117334264Y-114380766D01*
X117246029Y-114390708D01*
X117231921Y-114391500D01*
X103360685Y-114391500D01*
X103292564Y-114371498D01*
X103246071Y-114317842D01*
X103235967Y-114247568D01*
X103265461Y-114182988D01*
X103283295Y-114166068D01*
X103335706Y-114125275D01*
X103441483Y-114042946D01*
X103595490Y-113875649D01*
X103719861Y-113685285D01*
X103811203Y-113477047D01*
X103867024Y-113256614D01*
X103885802Y-113030000D01*
X103867024Y-112803386D01*
X103833169Y-112669695D01*
X103811204Y-112582956D01*
X103811201Y-112582949D01*
X103781334Y-112514860D01*
X103719861Y-112374715D01*
X103595490Y-112184351D01*
X103441483Y-112017054D01*
X103279425Y-111890920D01*
X103237955Y-111833296D01*
X103234221Y-111762398D01*
X103269411Y-111700735D01*
X103287905Y-111686004D01*
X103289640Y-111684870D01*
X103475673Y-111540074D01*
X103635321Y-111366650D01*
X103764249Y-111169310D01*
X103858941Y-110953433D01*
X103916807Y-110724928D01*
X103919437Y-110693200D01*
X102904947Y-110693200D01*
X102923208Y-110661571D01*
X102953500Y-110548520D01*
X102953500Y-110431480D01*
X102923208Y-110318429D01*
X102904947Y-110286800D01*
X103919437Y-110286800D01*
X103916807Y-110255071D01*
X103858941Y-110026566D01*
X103764249Y-109810689D01*
X103635321Y-109613349D01*
X103475673Y-109439925D01*
X103289640Y-109295129D01*
X103287899Y-109293992D01*
X103287345Y-109293343D01*
X103285532Y-109291932D01*
X103285822Y-109291558D01*
X103241812Y-109239988D01*
X103232237Y-109169640D01*
X103262215Y-109105283D01*
X103279418Y-109089085D01*
X103441483Y-108962946D01*
X103595490Y-108795649D01*
X103719861Y-108605285D01*
X103811203Y-108397047D01*
X103867024Y-108176614D01*
X103885802Y-107950000D01*
X103867024Y-107723386D01*
X103833169Y-107589695D01*
X103811204Y-107502956D01*
X103811201Y-107502949D01*
X103781334Y-107434860D01*
X103728759Y-107315000D01*
X122041675Y-107315000D01*
X122060912Y-107485744D01*
X122117664Y-107647930D01*
X122117664Y-107647931D01*
X122209079Y-107793417D01*
X122209080Y-107793419D01*
X122330580Y-107914919D01*
X122330582Y-107914920D01*
X122476066Y-108006334D01*
X122476067Y-108006334D01*
X122476070Y-108006336D01*
X122638254Y-108063087D01*
X122638253Y-108063087D01*
X122655543Y-108065034D01*
X122809000Y-108082325D01*
X122979746Y-108063087D01*
X123141930Y-108006336D01*
X123287419Y-107914919D01*
X123408919Y-107793419D01*
X123452929Y-107723378D01*
X123500336Y-107647931D01*
X123500335Y-107647930D01*
X123500336Y-107647930D01*
X123557087Y-107485746D01*
X123576325Y-107315000D01*
X123557087Y-107144254D01*
X123500336Y-106982070D01*
X123500334Y-106982067D01*
X123500334Y-106982066D01*
X123408920Y-106836582D01*
X123408919Y-106836580D01*
X123287419Y-106715080D01*
X123287417Y-106715079D01*
X123141933Y-106623665D01*
X123141930Y-106623664D01*
X123097359Y-106608068D01*
X122979746Y-106566913D01*
X122979744Y-106566912D01*
X122979746Y-106566912D01*
X122809000Y-106547675D01*
X122638255Y-106566912D01*
X122476069Y-106623664D01*
X122476066Y-106623665D01*
X122330582Y-106715079D01*
X122330580Y-106715080D01*
X122209080Y-106836580D01*
X122209079Y-106836582D01*
X122117665Y-106982066D01*
X122117664Y-106982069D01*
X122060912Y-107144255D01*
X122041675Y-107315000D01*
X103728759Y-107315000D01*
X103719861Y-107294715D01*
X103595490Y-107104351D01*
X103441483Y-106937054D01*
X103262039Y-106797388D01*
X103262038Y-106797387D01*
X103257107Y-106794719D01*
X103249890Y-106790813D01*
X103199500Y-106740803D01*
X103184147Y-106671486D01*
X103208706Y-106604873D01*
X103249889Y-106569186D01*
X103262039Y-106562612D01*
X103441483Y-106422946D01*
X103595490Y-106255649D01*
X103719861Y-106065285D01*
X103746759Y-106003962D01*
X103773463Y-105943086D01*
X103819144Y-105888738D01*
X103886956Y-105867714D01*
X103888850Y-105867700D01*
X105160098Y-105867700D01*
X105228219Y-105887702D01*
X105243652Y-105899389D01*
X105250873Y-105905786D01*
X105250878Y-105905790D01*
X105382067Y-105974643D01*
X105525920Y-106010100D01*
X105525921Y-106010100D01*
X105674079Y-106010100D01*
X105674080Y-106010100D01*
X105817933Y-105974643D01*
X105949122Y-105905790D01*
X106060020Y-105807543D01*
X106144184Y-105685610D01*
X106196722Y-105547079D01*
X106214581Y-105400000D01*
X106209712Y-105359904D01*
X106196722Y-105252923D01*
X106196722Y-105252921D01*
X106144184Y-105114390D01*
X106144182Y-105114388D01*
X106144182Y-105114386D01*
X106060021Y-104992458D01*
X105949121Y-104894209D01*
X105949117Y-104894207D01*
X105817931Y-104825356D01*
X105674081Y-104789900D01*
X105674080Y-104789900D01*
X105525920Y-104789900D01*
X105525918Y-104789900D01*
X105382068Y-104825356D01*
X105250882Y-104894207D01*
X105250878Y-104894209D01*
X105232200Y-104910756D01*
X105221075Y-104920612D01*
X105156824Y-104950813D01*
X105137523Y-104952300D01*
X103888850Y-104952300D01*
X103820729Y-104932298D01*
X103774236Y-104878642D01*
X103773463Y-104876914D01*
X103719861Y-104754715D01*
X103595492Y-104564354D01*
X103595491Y-104564353D01*
X103595490Y-104564351D01*
X103441483Y-104397054D01*
X103437559Y-104394000D01*
X128533102Y-104394000D01*
X128552258Y-104612956D01*
X128599670Y-104789900D01*
X128609143Y-104825253D01*
X128633233Y-104876914D01*
X128702030Y-105024449D01*
X128807496Y-105175071D01*
X128828096Y-105204490D01*
X128983510Y-105359904D01*
X129163551Y-105485970D01*
X129257330Y-105529700D01*
X129300445Y-105549805D01*
X129353730Y-105596722D01*
X129373191Y-105665000D01*
X129352649Y-105732960D01*
X129300445Y-105778195D01*
X129163550Y-105842030D01*
X128983513Y-105968093D01*
X128983507Y-105968098D01*
X128828098Y-106123507D01*
X128828093Y-106123513D01*
X128702030Y-106303550D01*
X128609144Y-106502744D01*
X128609142Y-106502748D01*
X128552258Y-106715043D01*
X128533102Y-106934000D01*
X128552258Y-107152956D01*
X128600795Y-107334099D01*
X128609143Y-107365253D01*
X128639119Y-107429537D01*
X128702030Y-107564449D01*
X128807496Y-107715071D01*
X128828096Y-107744490D01*
X128983510Y-107899904D01*
X129163551Y-108025970D01*
X129257330Y-108069700D01*
X129300445Y-108089805D01*
X129353730Y-108136722D01*
X129373191Y-108205000D01*
X129352649Y-108272960D01*
X129300445Y-108318195D01*
X129163550Y-108382030D01*
X128983513Y-108508093D01*
X128983507Y-108508098D01*
X128828098Y-108663507D01*
X128828093Y-108663513D01*
X128702030Y-108843550D01*
X128609144Y-109042744D01*
X128609142Y-109042748D01*
X128552258Y-109255043D01*
X128533102Y-109474000D01*
X128552258Y-109692956D01*
X128600795Y-109874099D01*
X128609143Y-109905253D01*
X128639119Y-109969537D01*
X128702030Y-110104449D01*
X128807496Y-110255071D01*
X128828096Y-110284490D01*
X128983510Y-110439904D01*
X129163551Y-110565970D01*
X129257330Y-110609700D01*
X129300445Y-110629805D01*
X129353730Y-110676722D01*
X129373191Y-110745000D01*
X129352649Y-110812960D01*
X129300445Y-110858195D01*
X129163550Y-110922030D01*
X128983513Y-111048093D01*
X128983507Y-111048098D01*
X128828098Y-111203507D01*
X128828093Y-111203513D01*
X128702030Y-111383550D01*
X128609144Y-111582744D01*
X128609142Y-111582748D01*
X128552258Y-111795043D01*
X128533102Y-112014000D01*
X128552258Y-112232956D01*
X128599295Y-112408500D01*
X128609143Y-112445253D01*
X128639119Y-112509537D01*
X128702030Y-112644449D01*
X128807496Y-112795071D01*
X128828096Y-112824490D01*
X128983510Y-112979904D01*
X129163551Y-113105970D01*
X129362747Y-113198857D01*
X129490918Y-113233200D01*
X129539823Y-113246304D01*
X129575047Y-113255742D01*
X129794000Y-113274898D01*
X130012953Y-113255742D01*
X130225253Y-113198857D01*
X130424449Y-113105970D01*
X130604490Y-112979904D01*
X130759904Y-112824490D01*
X130885970Y-112644449D01*
X130922055Y-112567063D01*
X130968972Y-112513779D01*
X131037249Y-112494318D01*
X131105209Y-112514860D01*
X131150445Y-112567064D01*
X131198302Y-112669692D01*
X131198303Y-112669695D01*
X131329410Y-112856936D01*
X131329419Y-112856947D01*
X131491052Y-113018580D01*
X131491063Y-113018589D01*
X131678304Y-113149696D01*
X131678306Y-113149697D01*
X131885475Y-113246302D01*
X131885479Y-113246304D01*
X132106275Y-113305466D01*
X132130800Y-113307611D01*
X132130800Y-112474031D01*
X132141007Y-112479925D01*
X132268174Y-112514000D01*
X132399826Y-112514000D01*
X132526993Y-112479925D01*
X132537200Y-112474031D01*
X132537200Y-113307611D01*
X132561724Y-113305466D01*
X132782520Y-113246304D01*
X132782524Y-113246302D01*
X132989693Y-113149697D01*
X132989695Y-113149696D01*
X133176936Y-113018589D01*
X133176947Y-113018580D01*
X133338580Y-112856947D01*
X133338589Y-112856936D01*
X133469696Y-112669695D01*
X133469697Y-112669693D01*
X133566302Y-112462524D01*
X133566304Y-112462520D01*
X133625466Y-112241724D01*
X133627611Y-112217200D01*
X132794032Y-112217200D01*
X132799925Y-112206993D01*
X132834000Y-112079826D01*
X132834000Y-111948174D01*
X132799925Y-111821007D01*
X132794032Y-111810800D01*
X133627611Y-111810800D01*
X133625466Y-111786275D01*
X133566304Y-111565479D01*
X133566302Y-111565475D01*
X133469697Y-111358306D01*
X133469696Y-111358304D01*
X133338589Y-111171063D01*
X133338580Y-111171052D01*
X133176947Y-111009419D01*
X133176936Y-111009410D01*
X132989695Y-110878303D01*
X132989693Y-110878302D01*
X132946573Y-110858195D01*
X132893288Y-110811278D01*
X132873827Y-110743001D01*
X132894369Y-110675041D01*
X132946573Y-110629805D01*
X132989693Y-110609697D01*
X132989695Y-110609696D01*
X133176936Y-110478589D01*
X133176947Y-110478580D01*
X133338580Y-110316947D01*
X133338589Y-110316936D01*
X133469696Y-110129695D01*
X133469697Y-110129693D01*
X133566302Y-109922524D01*
X133566304Y-109922520D01*
X133625466Y-109701724D01*
X133627611Y-109677200D01*
X132794032Y-109677200D01*
X132799925Y-109666993D01*
X132834000Y-109539826D01*
X132834000Y-109408174D01*
X132799925Y-109281007D01*
X132794032Y-109270800D01*
X133627611Y-109270800D01*
X133625466Y-109246275D01*
X133566304Y-109025479D01*
X133566302Y-109025475D01*
X133469697Y-108818306D01*
X133469696Y-108818304D01*
X133338589Y-108631063D01*
X133338580Y-108631052D01*
X133176947Y-108469419D01*
X133176936Y-108469410D01*
X132989695Y-108338303D01*
X132989693Y-108338302D01*
X132946573Y-108318195D01*
X132893288Y-108271278D01*
X132873827Y-108203001D01*
X132894369Y-108135041D01*
X132946573Y-108089805D01*
X132989693Y-108069697D01*
X132989695Y-108069696D01*
X133176936Y-107938589D01*
X133176947Y-107938580D01*
X133338580Y-107776947D01*
X133338589Y-107776936D01*
X133469696Y-107589695D01*
X133469697Y-107589693D01*
X133566302Y-107382524D01*
X133566304Y-107382520D01*
X133625466Y-107161724D01*
X133627611Y-107137200D01*
X132794032Y-107137200D01*
X132799925Y-107126993D01*
X132834000Y-106999826D01*
X132834000Y-106868174D01*
X132799925Y-106741007D01*
X132794032Y-106730800D01*
X133627611Y-106730800D01*
X133625466Y-106706275D01*
X133566304Y-106485479D01*
X133566302Y-106485475D01*
X133469697Y-106278306D01*
X133469696Y-106278304D01*
X133338589Y-106091063D01*
X133338580Y-106091052D01*
X133176947Y-105929419D01*
X133176936Y-105929410D01*
X132989695Y-105798303D01*
X132989693Y-105798302D01*
X132946573Y-105778195D01*
X132893288Y-105731278D01*
X132873827Y-105663001D01*
X132894369Y-105595041D01*
X132946573Y-105549805D01*
X132989693Y-105529697D01*
X132989695Y-105529696D01*
X133176936Y-105398589D01*
X133176947Y-105398580D01*
X133338580Y-105236947D01*
X133338589Y-105236936D01*
X133469696Y-105049695D01*
X133469697Y-105049693D01*
X133566302Y-104842524D01*
X133566304Y-104842520D01*
X133625466Y-104621724D01*
X133627611Y-104597200D01*
X132794032Y-104597200D01*
X132799925Y-104586993D01*
X132834000Y-104459826D01*
X132834000Y-104328174D01*
X132799925Y-104201007D01*
X132794032Y-104190800D01*
X133627611Y-104190800D01*
X133625466Y-104166275D01*
X133566304Y-103945479D01*
X133566302Y-103945475D01*
X133469697Y-103738306D01*
X133469696Y-103738304D01*
X133338589Y-103551063D01*
X133338580Y-103551052D01*
X133176947Y-103389419D01*
X133176936Y-103389410D01*
X132989695Y-103258303D01*
X132989692Y-103258302D01*
X132887064Y-103210445D01*
X132833779Y-103163527D01*
X132814318Y-103095250D01*
X132834860Y-103027290D01*
X132887063Y-102982055D01*
X132964449Y-102945970D01*
X133144490Y-102819904D01*
X133299904Y-102664490D01*
X133425970Y-102484449D01*
X133518857Y-102285253D01*
X133575742Y-102072953D01*
X133594898Y-101854000D01*
X133575742Y-101635047D01*
X133518857Y-101422747D01*
X133425970Y-101223551D01*
X133299904Y-101043510D01*
X133144490Y-100888096D01*
X132964449Y-100762030D01*
X132765253Y-100669143D01*
X132765251Y-100669142D01*
X132552956Y-100612258D01*
X132334000Y-100593102D01*
X132115043Y-100612258D01*
X131902748Y-100669142D01*
X131902744Y-100669144D01*
X131703550Y-100762030D01*
X131523513Y-100888093D01*
X131523507Y-100888098D01*
X131368098Y-101043507D01*
X131368093Y-101043513D01*
X131279312Y-101170306D01*
X131223855Y-101214634D01*
X131153235Y-101221943D01*
X131089875Y-101189912D01*
X131053890Y-101128711D01*
X131050099Y-101098035D01*
X131050099Y-100920207D01*
X131050099Y-100920203D01*
X131040015Y-100850987D01*
X130987819Y-100744217D01*
X130987817Y-100744215D01*
X130987817Y-100744214D01*
X130903785Y-100660182D01*
X130864733Y-100641091D01*
X130797013Y-100607985D01*
X130727795Y-100597900D01*
X130727792Y-100597900D01*
X128860207Y-100597900D01*
X128790988Y-100607984D01*
X128790987Y-100607985D01*
X128684214Y-100660182D01*
X128600182Y-100744214D01*
X128547985Y-100850988D01*
X128537900Y-100920203D01*
X128537900Y-102787792D01*
X128547984Y-102857011D01*
X128547985Y-102857013D01*
X128582942Y-102928520D01*
X128600182Y-102963785D01*
X128684214Y-103047817D01*
X128684215Y-103047817D01*
X128684217Y-103047819D01*
X128790987Y-103100015D01*
X128860205Y-103110100D01*
X129038036Y-103110099D01*
X129106154Y-103130101D01*
X129152647Y-103183756D01*
X129162752Y-103254030D01*
X129133259Y-103318611D01*
X129110305Y-103339312D01*
X128983513Y-103428093D01*
X128983507Y-103428098D01*
X128828098Y-103583507D01*
X128828093Y-103583513D01*
X128702030Y-103763550D01*
X128609144Y-103962744D01*
X128609142Y-103962748D01*
X128552258Y-104175043D01*
X128533102Y-104394000D01*
X103437559Y-104394000D01*
X103279425Y-104270920D01*
X103237955Y-104213296D01*
X103234221Y-104142398D01*
X103269411Y-104080735D01*
X103287905Y-104066004D01*
X103289640Y-104064870D01*
X103475673Y-103920074D01*
X103635321Y-103746650D01*
X103764249Y-103549310D01*
X103858941Y-103333433D01*
X103916807Y-103104928D01*
X103919437Y-103073200D01*
X102904947Y-103073200D01*
X102923208Y-103041571D01*
X102953500Y-102928520D01*
X102953500Y-102811480D01*
X102923208Y-102698429D01*
X102904947Y-102666800D01*
X103919437Y-102666800D01*
X103916807Y-102635071D01*
X103858941Y-102406566D01*
X103764249Y-102190689D01*
X103635321Y-101993349D01*
X103475673Y-101819925D01*
X103289640Y-101675129D01*
X103287899Y-101673992D01*
X103287345Y-101673343D01*
X103285532Y-101671932D01*
X103285822Y-101671558D01*
X103241812Y-101619988D01*
X103232237Y-101549640D01*
X103262215Y-101485283D01*
X103279418Y-101469085D01*
X103441483Y-101342946D01*
X103595490Y-101175649D01*
X103650141Y-101092000D01*
X114421675Y-101092000D01*
X114440912Y-101262744D01*
X114497664Y-101424930D01*
X114497665Y-101424933D01*
X114589079Y-101570417D01*
X114589080Y-101570419D01*
X114710580Y-101691919D01*
X114710582Y-101691920D01*
X114856066Y-101783334D01*
X114856067Y-101783334D01*
X114856070Y-101783336D01*
X115018254Y-101840087D01*
X115018253Y-101840087D01*
X115035543Y-101842034D01*
X115189000Y-101859325D01*
X115359746Y-101840087D01*
X115521930Y-101783336D01*
X115667419Y-101691919D01*
X115788919Y-101570419D01*
X115880336Y-101424930D01*
X115937087Y-101262746D01*
X115956325Y-101092000D01*
X115937087Y-100921254D01*
X115880336Y-100759070D01*
X115880334Y-100759067D01*
X115880334Y-100759066D01*
X115788920Y-100613582D01*
X115788919Y-100613580D01*
X115667419Y-100492080D01*
X115667417Y-100492079D01*
X115521933Y-100400665D01*
X115521930Y-100400664D01*
X115359746Y-100343913D01*
X115359744Y-100343912D01*
X115359746Y-100343912D01*
X115189000Y-100324675D01*
X115018255Y-100343912D01*
X114856069Y-100400664D01*
X114856066Y-100400665D01*
X114710582Y-100492079D01*
X114710580Y-100492080D01*
X114589080Y-100613580D01*
X114589079Y-100613582D01*
X114497665Y-100759066D01*
X114497664Y-100759069D01*
X114440912Y-100921255D01*
X114421675Y-101092000D01*
X103650141Y-101092000D01*
X103719861Y-100985285D01*
X103811203Y-100777047D01*
X103867024Y-100556614D01*
X103885802Y-100330000D01*
X103867024Y-100103386D01*
X103855295Y-100057070D01*
X103811204Y-99882956D01*
X103811201Y-99882949D01*
X103719861Y-99674715D01*
X103595492Y-99484354D01*
X103595491Y-99484353D01*
X103595490Y-99484351D01*
X103441483Y-99317054D01*
X103262039Y-99177388D01*
X103262038Y-99177387D01*
X103257198Y-99174768D01*
X103249890Y-99170813D01*
X103199500Y-99120803D01*
X103184147Y-99051486D01*
X103208706Y-98984873D01*
X103249889Y-98949186D01*
X103262039Y-98942612D01*
X103274392Y-98932997D01*
X114066419Y-98932997D01*
X114066419Y-98933002D01*
X114084277Y-99080076D01*
X114136817Y-99218613D01*
X114220978Y-99340541D01*
X114220979Y-99340542D01*
X114220980Y-99340543D01*
X114331878Y-99438790D01*
X114463067Y-99507643D01*
X114606920Y-99543100D01*
X114606921Y-99543100D01*
X114755079Y-99543100D01*
X114755080Y-99543100D01*
X114898933Y-99507643D01*
X115030122Y-99438790D01*
X115048637Y-99422386D01*
X115112890Y-99392187D01*
X115132190Y-99390700D01*
X118932258Y-99390700D01*
X119048666Y-99359508D01*
X119153035Y-99299251D01*
X119381344Y-99070941D01*
X119443652Y-99036919D01*
X119453353Y-99035279D01*
X119454079Y-99035100D01*
X119454080Y-99035100D01*
X119597933Y-98999643D01*
X119729122Y-98930790D01*
X119840020Y-98832543D01*
X119924184Y-98710610D01*
X119976722Y-98572079D01*
X119994581Y-98425000D01*
X119994580Y-98424994D01*
X119982206Y-98323086D01*
X119976722Y-98277921D01*
X119924184Y-98139390D01*
X119924182Y-98139388D01*
X119924182Y-98139386D01*
X119840021Y-98017458D01*
X119729121Y-97919209D01*
X119729117Y-97919207D01*
X119597931Y-97850356D01*
X119454081Y-97814900D01*
X119454080Y-97814900D01*
X119305920Y-97814900D01*
X119305918Y-97814900D01*
X119162068Y-97850356D01*
X119030882Y-97919207D01*
X119030878Y-97919209D01*
X118919978Y-98017458D01*
X118835817Y-98139386D01*
X118783277Y-98277923D01*
X118775179Y-98344612D01*
X118747111Y-98409825D01*
X118739198Y-98418514D01*
X118719323Y-98438391D01*
X118657012Y-98472419D01*
X118630223Y-98475300D01*
X115132190Y-98475300D01*
X115064069Y-98455298D01*
X115048637Y-98443613D01*
X115030121Y-98427209D01*
X115030117Y-98427207D01*
X114898931Y-98358356D01*
X114755081Y-98322900D01*
X114755080Y-98322900D01*
X114606920Y-98322900D01*
X114606918Y-98322900D01*
X114463068Y-98358356D01*
X114331882Y-98427207D01*
X114331878Y-98427209D01*
X114220978Y-98525458D01*
X114136817Y-98647386D01*
X114084277Y-98785923D01*
X114066419Y-98932997D01*
X103274392Y-98932997D01*
X103441483Y-98802946D01*
X103595490Y-98635649D01*
X103719861Y-98445285D01*
X103811203Y-98237047D01*
X103867024Y-98016614D01*
X103885802Y-97790000D01*
X103867024Y-97563386D01*
X103811203Y-97342953D01*
X103719861Y-97134715D01*
X103595490Y-96944351D01*
X103441483Y-96777054D01*
X103262039Y-96637388D01*
X103262038Y-96637387D01*
X103257198Y-96634768D01*
X103249890Y-96630813D01*
X103199500Y-96580803D01*
X103184147Y-96511486D01*
X103208706Y-96444873D01*
X103249889Y-96409186D01*
X103262039Y-96402612D01*
X103441483Y-96262946D01*
X103595490Y-96095649D01*
X103719861Y-95905285D01*
X103811203Y-95697047D01*
X103867024Y-95476614D01*
X103885802Y-95250000D01*
X103867024Y-95023386D01*
X103839006Y-94912744D01*
X103811204Y-94802956D01*
X103811201Y-94802949D01*
X103778999Y-94729537D01*
X103719861Y-94594715D01*
X103598572Y-94409069D01*
X103595492Y-94404354D01*
X103595491Y-94404353D01*
X103595490Y-94404351D01*
X103441483Y-94237054D01*
X103262039Y-94097388D01*
X103262038Y-94097387D01*
X103257107Y-94094719D01*
X103249890Y-94090813D01*
X103199500Y-94040803D01*
X103184147Y-93971486D01*
X103208706Y-93904873D01*
X103249889Y-93869186D01*
X103262039Y-93862612D01*
X103441483Y-93722946D01*
X103595490Y-93555649D01*
X103719861Y-93365285D01*
X103811203Y-93157047D01*
X103867024Y-92936614D01*
X103885802Y-92710000D01*
X103867024Y-92483386D01*
X103848625Y-92410731D01*
X103811204Y-92262956D01*
X103811201Y-92262949D01*
X103719861Y-92054715D01*
X103595492Y-91864354D01*
X103595491Y-91864353D01*
X103595490Y-91864351D01*
X103441483Y-91697054D01*
X103262039Y-91557388D01*
X103262038Y-91557387D01*
X103257198Y-91554768D01*
X103249890Y-91550813D01*
X103199500Y-91500803D01*
X103184147Y-91431486D01*
X103208706Y-91364873D01*
X103249889Y-91329186D01*
X103262039Y-91322612D01*
X103441483Y-91182946D01*
X103595490Y-91015649D01*
X103719861Y-90825285D01*
X103811203Y-90617047D01*
X103867024Y-90396614D01*
X103885802Y-90170000D01*
X103867024Y-89943386D01*
X103851729Y-89882987D01*
X103811204Y-89722956D01*
X103811201Y-89722949D01*
X103789515Y-89673511D01*
X103728458Y-89534314D01*
X103719411Y-89463896D01*
X103749871Y-89399766D01*
X103810168Y-89362284D01*
X103843845Y-89357700D01*
X112646648Y-89357700D01*
X112714769Y-89377702D01*
G37*
G04 #@! TD.AperFunction*
G04 #@! TA.AperFunction,Conductor*
G36*
X144243487Y-63408821D02*
G01*
X144272529Y-63410898D01*
X144442281Y-63423038D01*
X144460054Y-63425593D01*
X144650411Y-63467003D01*
X144667633Y-63472060D01*
X144850152Y-63540136D01*
X144866499Y-63547602D01*
X144919069Y-63576307D01*
X145037458Y-63640952D01*
X145052582Y-63650672D01*
X145208513Y-63767401D01*
X145222099Y-63779174D01*
X145359825Y-63916900D01*
X145371598Y-63930486D01*
X145488327Y-64086417D01*
X145498047Y-64101541D01*
X145591396Y-64272498D01*
X145598864Y-64288850D01*
X145666937Y-64471359D01*
X145671998Y-64488597D01*
X145713403Y-64678933D01*
X145715961Y-64696721D01*
X145730179Y-64895511D01*
X145730500Y-64904500D01*
X145730500Y-112895499D01*
X145730179Y-112904488D01*
X145715961Y-113103278D01*
X145713403Y-113121068D01*
X145671999Y-113311398D01*
X145666937Y-113328640D01*
X145598864Y-113511149D01*
X145591396Y-113527501D01*
X145498047Y-113698458D01*
X145488327Y-113713582D01*
X145371598Y-113869513D01*
X145359825Y-113883099D01*
X145222099Y-114020825D01*
X145208513Y-114032598D01*
X145052582Y-114149327D01*
X145037458Y-114159047D01*
X144866501Y-114252396D01*
X144850149Y-114259864D01*
X144667640Y-114327937D01*
X144650398Y-114332999D01*
X144460068Y-114374403D01*
X144442278Y-114376961D01*
X144243488Y-114391179D01*
X144234499Y-114391500D01*
X143442580Y-114391500D01*
X143374459Y-114371498D01*
X143327966Y-114317842D01*
X143317862Y-114247568D01*
X143347356Y-114182988D01*
X143365189Y-114166068D01*
X143475673Y-114080074D01*
X143635321Y-113906650D01*
X143764249Y-113709310D01*
X143858941Y-113493433D01*
X143916807Y-113264928D01*
X143919437Y-113233200D01*
X142904947Y-113233200D01*
X142923208Y-113201571D01*
X142953500Y-113088520D01*
X142953500Y-112971480D01*
X142923208Y-112858429D01*
X142904947Y-112826800D01*
X143919437Y-112826800D01*
X143916807Y-112795071D01*
X143858941Y-112566566D01*
X143764249Y-112350689D01*
X143635321Y-112153349D01*
X143475673Y-111979925D01*
X143289640Y-111835129D01*
X143287899Y-111833992D01*
X143287345Y-111833343D01*
X143285532Y-111831932D01*
X143285822Y-111831558D01*
X143241812Y-111779988D01*
X143232237Y-111709640D01*
X143262215Y-111645283D01*
X143279418Y-111629085D01*
X143441483Y-111502946D01*
X143595490Y-111335649D01*
X143719861Y-111145285D01*
X143811203Y-110937047D01*
X143867024Y-110716614D01*
X143885802Y-110490000D01*
X143867024Y-110263386D01*
X143833169Y-110129695D01*
X143811204Y-110042956D01*
X143811201Y-110042949D01*
X143781334Y-109974860D01*
X143719861Y-109834715D01*
X143595490Y-109644351D01*
X143441483Y-109477054D01*
X143279425Y-109350920D01*
X143237955Y-109293296D01*
X143234221Y-109222398D01*
X143269411Y-109160735D01*
X143287905Y-109146004D01*
X143289640Y-109144870D01*
X143475673Y-109000074D01*
X143635321Y-108826650D01*
X143764249Y-108629310D01*
X143858941Y-108413433D01*
X143916807Y-108184928D01*
X143919437Y-108153200D01*
X142904947Y-108153200D01*
X142923208Y-108121571D01*
X142953500Y-108008520D01*
X142953500Y-107891480D01*
X142923208Y-107778429D01*
X142904947Y-107746800D01*
X143919437Y-107746800D01*
X143916807Y-107715071D01*
X143858941Y-107486566D01*
X143764249Y-107270689D01*
X143635321Y-107073349D01*
X143475673Y-106899925D01*
X143289640Y-106755129D01*
X143287899Y-106753992D01*
X143287345Y-106753343D01*
X143285532Y-106751932D01*
X143285822Y-106751558D01*
X143241812Y-106699988D01*
X143232237Y-106629640D01*
X143262215Y-106565283D01*
X143279418Y-106549085D01*
X143441483Y-106422946D01*
X143595490Y-106255649D01*
X143719861Y-106065285D01*
X143811203Y-105857047D01*
X143867024Y-105636614D01*
X143885802Y-105410000D01*
X143867024Y-105183386D01*
X143833169Y-105049695D01*
X143811204Y-104962956D01*
X143811201Y-104962949D01*
X143781334Y-104894860D01*
X143719861Y-104754715D01*
X143595490Y-104564351D01*
X143441483Y-104397054D01*
X143262039Y-104257388D01*
X143262038Y-104257387D01*
X143257107Y-104254719D01*
X143249890Y-104250813D01*
X143199500Y-104200803D01*
X143184147Y-104131486D01*
X143208706Y-104064873D01*
X143249889Y-104029186D01*
X143262039Y-104022612D01*
X143441483Y-103882946D01*
X143595490Y-103715649D01*
X143719861Y-103525285D01*
X143811203Y-103317047D01*
X143867024Y-103096614D01*
X143885802Y-102870000D01*
X143867024Y-102643386D01*
X143855004Y-102595921D01*
X143811204Y-102422956D01*
X143811201Y-102422949D01*
X143778999Y-102349537D01*
X143719861Y-102214715D01*
X143595490Y-102024351D01*
X143468065Y-101885929D01*
X143441485Y-101857056D01*
X143441484Y-101857055D01*
X143441483Y-101857054D01*
X143279425Y-101730920D01*
X143237955Y-101673296D01*
X143234221Y-101602398D01*
X143269411Y-101540735D01*
X143287905Y-101526004D01*
X143289640Y-101524870D01*
X143475673Y-101380074D01*
X143635321Y-101206650D01*
X143764249Y-101009310D01*
X143858941Y-100793433D01*
X143916807Y-100564928D01*
X143919437Y-100533200D01*
X142904947Y-100533200D01*
X142923208Y-100501571D01*
X142953500Y-100388520D01*
X142953500Y-100271480D01*
X142923208Y-100158429D01*
X142904947Y-100126800D01*
X143919437Y-100126800D01*
X143916807Y-100095071D01*
X143858941Y-99866566D01*
X143764249Y-99650689D01*
X143635321Y-99453349D01*
X143475673Y-99279925D01*
X143289640Y-99135129D01*
X143287899Y-99133992D01*
X143287345Y-99133343D01*
X143285532Y-99131932D01*
X143285822Y-99131558D01*
X143241812Y-99079988D01*
X143232237Y-99009640D01*
X143262215Y-98945283D01*
X143279418Y-98929085D01*
X143441483Y-98802946D01*
X143595490Y-98635649D01*
X143719861Y-98445285D01*
X143811203Y-98237047D01*
X143867024Y-98016614D01*
X143885802Y-97790000D01*
X143867024Y-97563386D01*
X143811203Y-97342953D01*
X143719861Y-97134715D01*
X143595490Y-96944351D01*
X143441483Y-96777054D01*
X143262039Y-96637388D01*
X143262038Y-96637387D01*
X143257198Y-96634768D01*
X143249890Y-96630813D01*
X143199500Y-96580803D01*
X143184147Y-96511486D01*
X143208706Y-96444873D01*
X143249889Y-96409186D01*
X143262039Y-96402612D01*
X143441483Y-96262946D01*
X143595490Y-96095649D01*
X143719861Y-95905285D01*
X143811203Y-95697047D01*
X143867024Y-95476614D01*
X143885802Y-95250000D01*
X143867024Y-95023386D01*
X143839006Y-94912744D01*
X143811204Y-94802956D01*
X143811201Y-94802949D01*
X143778999Y-94729537D01*
X143719861Y-94594715D01*
X143598572Y-94409069D01*
X143595492Y-94404354D01*
X143595491Y-94404353D01*
X143595490Y-94404351D01*
X143441483Y-94237054D01*
X143279425Y-94110920D01*
X143237955Y-94053296D01*
X143234221Y-93982398D01*
X143269411Y-93920735D01*
X143287905Y-93906004D01*
X143289640Y-93904870D01*
X143475673Y-93760074D01*
X143635321Y-93586650D01*
X143764249Y-93389310D01*
X143858941Y-93173433D01*
X143916807Y-92944928D01*
X143919437Y-92913200D01*
X142904947Y-92913200D01*
X142923208Y-92881571D01*
X142953500Y-92768520D01*
X142953500Y-92651480D01*
X142923208Y-92538429D01*
X142904947Y-92506800D01*
X143919437Y-92506800D01*
X143916807Y-92475071D01*
X143858941Y-92246566D01*
X143764249Y-92030689D01*
X143635321Y-91833349D01*
X143475673Y-91659925D01*
X143289640Y-91515129D01*
X143287899Y-91513992D01*
X143287345Y-91513343D01*
X143285532Y-91511932D01*
X143285822Y-91511558D01*
X143241812Y-91459988D01*
X143232237Y-91389640D01*
X143262215Y-91325283D01*
X143279418Y-91309085D01*
X143441483Y-91182946D01*
X143595490Y-91015649D01*
X143719861Y-90825285D01*
X143811203Y-90617047D01*
X143867024Y-90396614D01*
X143885802Y-90170000D01*
X143867024Y-89943386D01*
X143851729Y-89882987D01*
X143811204Y-89722956D01*
X143811201Y-89722949D01*
X143789515Y-89673511D01*
X143719861Y-89514715D01*
X143595490Y-89324351D01*
X143441483Y-89157054D01*
X143262039Y-89017388D01*
X143262038Y-89017387D01*
X143257198Y-89014768D01*
X143249890Y-89010813D01*
X143199500Y-88960803D01*
X143184147Y-88891486D01*
X143208706Y-88824873D01*
X143249889Y-88789186D01*
X143262039Y-88782612D01*
X143441483Y-88642946D01*
X143595490Y-88475649D01*
X143719861Y-88285285D01*
X143811203Y-88077047D01*
X143867024Y-87856614D01*
X143885802Y-87630000D01*
X143867024Y-87403386D01*
X143845330Y-87317717D01*
X143811204Y-87182956D01*
X143811201Y-87182949D01*
X143808543Y-87176890D01*
X143719861Y-86974715D01*
X143595490Y-86784351D01*
X143441483Y-86617054D01*
X143279425Y-86490920D01*
X143237955Y-86433296D01*
X143234221Y-86362398D01*
X143269411Y-86300735D01*
X143287905Y-86286004D01*
X143289640Y-86284870D01*
X143475673Y-86140074D01*
X143635321Y-85966650D01*
X143764249Y-85769310D01*
X143858941Y-85553433D01*
X143916807Y-85324928D01*
X143919437Y-85293200D01*
X142904947Y-85293200D01*
X142923208Y-85261571D01*
X142953500Y-85148520D01*
X142953500Y-85031480D01*
X142923208Y-84918429D01*
X142904947Y-84886800D01*
X143919437Y-84886800D01*
X143916807Y-84855071D01*
X143858941Y-84626566D01*
X143764249Y-84410689D01*
X143635321Y-84213349D01*
X143475673Y-84039925D01*
X143320863Y-83919432D01*
X143279392Y-83861807D01*
X143275658Y-83790908D01*
X143310848Y-83729246D01*
X143320863Y-83720568D01*
X143475673Y-83600074D01*
X143635321Y-83426650D01*
X143764249Y-83229310D01*
X143858941Y-83013433D01*
X143916807Y-82784928D01*
X143919437Y-82753200D01*
X142904947Y-82753200D01*
X142923208Y-82721571D01*
X142953500Y-82608520D01*
X142953500Y-82491480D01*
X142923208Y-82378429D01*
X142904947Y-82346800D01*
X143919437Y-82346800D01*
X143916807Y-82315071D01*
X143858941Y-82086566D01*
X143764249Y-81870689D01*
X143635321Y-81673349D01*
X143475673Y-81499925D01*
X143320863Y-81379432D01*
X143279392Y-81321807D01*
X143275658Y-81250908D01*
X143310848Y-81189246D01*
X143320863Y-81180568D01*
X143475673Y-81060074D01*
X143635321Y-80886650D01*
X143764249Y-80689310D01*
X143858941Y-80473433D01*
X143916807Y-80244928D01*
X143919437Y-80213200D01*
X142904947Y-80213200D01*
X142923208Y-80181571D01*
X142953500Y-80068520D01*
X142953500Y-79951480D01*
X142923208Y-79838429D01*
X142904947Y-79806800D01*
X143919437Y-79806800D01*
X143916807Y-79775071D01*
X143858941Y-79546566D01*
X143764249Y-79330689D01*
X143635321Y-79133349D01*
X143475673Y-78959925D01*
X143320863Y-78839432D01*
X143279392Y-78781807D01*
X143275658Y-78710908D01*
X143310848Y-78649246D01*
X143320863Y-78640568D01*
X143475673Y-78520074D01*
X143635321Y-78346650D01*
X143764249Y-78149310D01*
X143858941Y-77933433D01*
X143916807Y-77704928D01*
X143919437Y-77673200D01*
X142904947Y-77673200D01*
X142923208Y-77641571D01*
X142953500Y-77528520D01*
X142953500Y-77411480D01*
X142923208Y-77298429D01*
X142904947Y-77266800D01*
X143919437Y-77266800D01*
X143916807Y-77235071D01*
X143858941Y-77006566D01*
X143764249Y-76790689D01*
X143635321Y-76593349D01*
X143475673Y-76419925D01*
X143320863Y-76299432D01*
X143279392Y-76241807D01*
X143275658Y-76170908D01*
X143310848Y-76109246D01*
X143320863Y-76100568D01*
X143475673Y-75980074D01*
X143635321Y-75806650D01*
X143764249Y-75609310D01*
X143858941Y-75393433D01*
X143916807Y-75164928D01*
X143919437Y-75133200D01*
X142904947Y-75133200D01*
X142923208Y-75101571D01*
X142953500Y-74988520D01*
X142953500Y-74871480D01*
X142923208Y-74758429D01*
X142904947Y-74726800D01*
X143919437Y-74726800D01*
X143916807Y-74695071D01*
X143858941Y-74466566D01*
X143764249Y-74250689D01*
X143635321Y-74053349D01*
X143475673Y-73879925D01*
X143320863Y-73759432D01*
X143279392Y-73701807D01*
X143275658Y-73630908D01*
X143310848Y-73569246D01*
X143320863Y-73560568D01*
X143475673Y-73440074D01*
X143635321Y-73266650D01*
X143764249Y-73069310D01*
X143858941Y-72853433D01*
X143916807Y-72624928D01*
X143919437Y-72593200D01*
X142904947Y-72593200D01*
X142923208Y-72561571D01*
X142953500Y-72448520D01*
X142953500Y-72331480D01*
X142923208Y-72218429D01*
X142904947Y-72186800D01*
X143919437Y-72186800D01*
X143916807Y-72155071D01*
X143858941Y-71926566D01*
X143764249Y-71710689D01*
X143635321Y-71513349D01*
X143475673Y-71339925D01*
X143320863Y-71219432D01*
X143279392Y-71161807D01*
X143275658Y-71090908D01*
X143310848Y-71029246D01*
X143320863Y-71020568D01*
X143475673Y-70900074D01*
X143635321Y-70726650D01*
X143764249Y-70529310D01*
X143858941Y-70313433D01*
X143916807Y-70084928D01*
X143919437Y-70053200D01*
X142904947Y-70053200D01*
X142923208Y-70021571D01*
X142953500Y-69908520D01*
X142953500Y-69791480D01*
X142923208Y-69678429D01*
X142904947Y-69646800D01*
X143919437Y-69646800D01*
X143916807Y-69615071D01*
X143858941Y-69386566D01*
X143764249Y-69170689D01*
X143635321Y-68973349D01*
X143475673Y-68799925D01*
X143289640Y-68655129D01*
X143287899Y-68653992D01*
X143287345Y-68653343D01*
X143285532Y-68651932D01*
X143285822Y-68651558D01*
X143241812Y-68599988D01*
X143232237Y-68529640D01*
X143262215Y-68465283D01*
X143279418Y-68449085D01*
X143441483Y-68322946D01*
X143595490Y-68155649D01*
X143719861Y-67965285D01*
X143811203Y-67757047D01*
X143867024Y-67536614D01*
X143885802Y-67310000D01*
X143867024Y-67083386D01*
X143834338Y-66954311D01*
X143811204Y-66862956D01*
X143811201Y-66862949D01*
X143778999Y-66789537D01*
X143719861Y-66654715D01*
X143595490Y-66464351D01*
X143441483Y-66297054D01*
X143262039Y-66157388D01*
X143262038Y-66157387D01*
X143257107Y-66154719D01*
X143249890Y-66150813D01*
X143199500Y-66100803D01*
X143184147Y-66031486D01*
X143208706Y-65964873D01*
X143249889Y-65929186D01*
X143262039Y-65922612D01*
X143441483Y-65782946D01*
X143595490Y-65615649D01*
X143719861Y-65425285D01*
X143811203Y-65217047D01*
X143867024Y-64996614D01*
X143885802Y-64770000D01*
X143867024Y-64543386D01*
X143811203Y-64322953D01*
X143719861Y-64114715D01*
X143595490Y-63924351D01*
X143441483Y-63757054D01*
X143283295Y-63633932D01*
X143241823Y-63576307D01*
X143238089Y-63505409D01*
X143273279Y-63443747D01*
X143336219Y-63410898D01*
X143360685Y-63408500D01*
X144172055Y-63408500D01*
X144234499Y-63408500D01*
X144243487Y-63408821D01*
G37*
G04 #@! TD.AperFunction*
G04 #@! TA.AperFunction,Conductor*
G36*
X142094792Y-112858429D02*
G01*
X142064500Y-112971480D01*
X142064500Y-113088520D01*
X142094792Y-113201571D01*
X142113053Y-113233200D01*
X140364947Y-113233200D01*
X140383208Y-113201571D01*
X140413500Y-113088520D01*
X140413500Y-112971480D01*
X140383208Y-112858429D01*
X140364947Y-112826800D01*
X142113053Y-112826800D01*
X142094792Y-112858429D01*
G37*
G04 #@! TD.AperFunction*
G04 #@! TA.AperFunction,Conductor*
G36*
X102094792Y-110318429D02*
G01*
X102064500Y-110431480D01*
X102064500Y-110548520D01*
X102094792Y-110661571D01*
X102113053Y-110693200D01*
X100364947Y-110693200D01*
X100383208Y-110661571D01*
X100413500Y-110548520D01*
X100413500Y-110431480D01*
X100383208Y-110318429D01*
X100364947Y-110286800D01*
X102113053Y-110286800D01*
X102094792Y-110318429D01*
G37*
G04 #@! TD.AperFunction*
G04 #@! TA.AperFunction,Conductor*
G36*
X142094792Y-107778429D02*
G01*
X142064500Y-107891480D01*
X142064500Y-108008520D01*
X142094792Y-108121571D01*
X142113053Y-108153200D01*
X140364947Y-108153200D01*
X140383208Y-108121571D01*
X140413500Y-108008520D01*
X140413500Y-107891480D01*
X140383208Y-107778429D01*
X140364947Y-107746800D01*
X142113053Y-107746800D01*
X142094792Y-107778429D01*
G37*
G04 #@! TD.AperFunction*
G04 #@! TA.AperFunction,Conductor*
G36*
X100172200Y-105014052D02*
G01*
X100140571Y-104995792D01*
X100027520Y-104965500D01*
X99910480Y-104965500D01*
X99797429Y-104995792D01*
X99765800Y-105014052D01*
X99765800Y-103265947D01*
X99797429Y-103284208D01*
X99910480Y-103314500D01*
X100027520Y-103314500D01*
X100140571Y-103284208D01*
X100172200Y-103265947D01*
X100172200Y-105014052D01*
G37*
G04 #@! TD.AperFunction*
G04 #@! TA.AperFunction,Conductor*
G36*
X101322225Y-103662499D02*
G01*
X101344484Y-103688187D01*
X101382680Y-103746651D01*
X101542326Y-103920074D01*
X101728361Y-104064871D01*
X101730102Y-104066009D01*
X101730654Y-104066656D01*
X101732468Y-104068068D01*
X101732177Y-104068441D01*
X101776188Y-104120015D01*
X101785760Y-104190363D01*
X101755780Y-104254719D01*
X101738573Y-104270921D01*
X101576514Y-104397056D01*
X101422509Y-104564352D01*
X101374525Y-104637797D01*
X101320521Y-104683885D01*
X101250173Y-104693460D01*
X101185816Y-104663482D01*
X101163559Y-104637796D01*
X101095321Y-104533349D01*
X100935673Y-104359925D01*
X100780863Y-104239432D01*
X100739392Y-104181807D01*
X100735658Y-104110908D01*
X100770848Y-104049246D01*
X100780863Y-104040568D01*
X100935673Y-103920074D01*
X101095319Y-103746651D01*
X101133516Y-103688187D01*
X101187519Y-103642098D01*
X101257867Y-103632522D01*
X101322225Y-103662499D01*
G37*
G04 #@! TD.AperFunction*
G04 #@! TA.AperFunction,Conductor*
G36*
X102094792Y-102698429D02*
G01*
X102064500Y-102811480D01*
X102064500Y-102928520D01*
X102094792Y-103041571D01*
X102113053Y-103073200D01*
X100364947Y-103073200D01*
X100383208Y-103041571D01*
X100413500Y-102928520D01*
X100413500Y-102811480D01*
X100383208Y-102698429D01*
X100364947Y-102666800D01*
X102113053Y-102666800D01*
X102094792Y-102698429D01*
G37*
G04 #@! TD.AperFunction*
G04 #@! TA.AperFunction,Conductor*
G36*
X100172200Y-102474052D02*
G01*
X100140571Y-102455792D01*
X100027520Y-102425500D01*
X99910480Y-102425500D01*
X99797429Y-102455792D01*
X99765800Y-102474052D01*
X99765800Y-100725947D01*
X99797429Y-100744208D01*
X99910480Y-100774500D01*
X100027520Y-100774500D01*
X100140571Y-100744208D01*
X100172200Y-100725947D01*
X100172200Y-102474052D01*
G37*
G04 #@! TD.AperFunction*
G04 #@! TA.AperFunction,Conductor*
G36*
X101352267Y-101076516D02*
G01*
X101374525Y-101102203D01*
X101422510Y-101175649D01*
X101576517Y-101342946D01*
X101738573Y-101469079D01*
X101780045Y-101526703D01*
X101783779Y-101597601D01*
X101748589Y-101659263D01*
X101730108Y-101673987D01*
X101728361Y-101675128D01*
X101542326Y-101819925D01*
X101382680Y-101993347D01*
X101344483Y-102051813D01*
X101290479Y-102097901D01*
X101220131Y-102107476D01*
X101155774Y-102077498D01*
X101133517Y-102051813D01*
X101095319Y-101993347D01*
X100935673Y-101819925D01*
X100780863Y-101699432D01*
X100739392Y-101641807D01*
X100735658Y-101570908D01*
X100770848Y-101509246D01*
X100780863Y-101500568D01*
X100935673Y-101380074D01*
X101095321Y-101206650D01*
X101163559Y-101102203D01*
X101217562Y-101056115D01*
X101287910Y-101046539D01*
X101352267Y-101076516D01*
G37*
G04 #@! TD.AperFunction*
G04 #@! TA.AperFunction,Conductor*
G36*
X142094792Y-100158429D02*
G01*
X142064500Y-100271480D01*
X142064500Y-100388520D01*
X142094792Y-100501571D01*
X142113053Y-100533200D01*
X140364947Y-100533200D01*
X140383208Y-100501571D01*
X140413500Y-100388520D01*
X140413500Y-100271480D01*
X140383208Y-100158429D01*
X140364947Y-100126800D01*
X142113053Y-100126800D01*
X142094792Y-100158429D01*
G37*
G04 #@! TD.AperFunction*
G04 #@! TA.AperFunction,Conductor*
G36*
X100172200Y-99934052D02*
G01*
X100140571Y-99915792D01*
X100027520Y-99885500D01*
X99910480Y-99885500D01*
X99797429Y-99915792D01*
X99765800Y-99934052D01*
X99765800Y-98185947D01*
X99797429Y-98204208D01*
X99910480Y-98234500D01*
X100027520Y-98234500D01*
X100140571Y-98204208D01*
X100172200Y-98185947D01*
X100172200Y-99934052D01*
G37*
G04 #@! TD.AperFunction*
G04 #@! TA.AperFunction,Conductor*
G36*
X101352267Y-98536516D02*
G01*
X101374525Y-98562203D01*
X101380977Y-98572079D01*
X101422510Y-98635649D01*
X101576517Y-98802946D01*
X101755961Y-98942612D01*
X101755963Y-98942613D01*
X101755966Y-98942615D01*
X101768110Y-98949187D01*
X101818500Y-98999200D01*
X101833852Y-99068517D01*
X101809291Y-99135130D01*
X101768110Y-99170813D01*
X101755966Y-99177384D01*
X101755960Y-99177388D01*
X101576514Y-99317056D01*
X101422509Y-99484352D01*
X101374525Y-99557797D01*
X101320521Y-99603885D01*
X101250173Y-99613460D01*
X101185816Y-99583482D01*
X101163559Y-99557796D01*
X101095321Y-99453349D01*
X100935673Y-99279925D01*
X100780863Y-99159432D01*
X100739392Y-99101807D01*
X100735658Y-99030908D01*
X100770848Y-98969246D01*
X100780863Y-98960568D01*
X100935673Y-98840074D01*
X101095321Y-98666650D01*
X101163559Y-98562203D01*
X101217562Y-98516115D01*
X101287910Y-98506539D01*
X101352267Y-98536516D01*
G37*
G04 #@! TD.AperFunction*
G04 #@! TA.AperFunction,Conductor*
G36*
X100172200Y-97394052D02*
G01*
X100140571Y-97375792D01*
X100027520Y-97345500D01*
X99910480Y-97345500D01*
X99797429Y-97375792D01*
X99765800Y-97394052D01*
X99765800Y-95645947D01*
X99797429Y-95664208D01*
X99910480Y-95694500D01*
X100027520Y-95694500D01*
X100140571Y-95664208D01*
X100172200Y-95645947D01*
X100172200Y-97394052D01*
G37*
G04 #@! TD.AperFunction*
G04 #@! TA.AperFunction,Conductor*
G36*
X139103541Y-63428502D02*
G01*
X139150034Y-63482158D01*
X139160138Y-63552432D01*
X139130644Y-63617012D01*
X139112811Y-63633932D01*
X139002326Y-63719925D01*
X138842678Y-63893349D01*
X138713750Y-64090689D01*
X138619058Y-64306566D01*
X138561192Y-64535071D01*
X138558562Y-64566800D01*
X139573053Y-64566800D01*
X139554792Y-64598429D01*
X139524500Y-64711480D01*
X139524500Y-64828520D01*
X139554792Y-64941571D01*
X139573053Y-64973200D01*
X138558563Y-64973200D01*
X138561192Y-65004928D01*
X138619058Y-65233433D01*
X138713750Y-65449310D01*
X138842678Y-65646650D01*
X139002326Y-65820074D01*
X139157136Y-65940568D01*
X139198607Y-65998194D01*
X139202341Y-66069092D01*
X139167151Y-66130754D01*
X139157136Y-66139432D01*
X139002326Y-66259925D01*
X138842678Y-66433349D01*
X138713750Y-66630689D01*
X138619058Y-66846566D01*
X138561192Y-67075071D01*
X138558562Y-67106800D01*
X139573053Y-67106800D01*
X139554792Y-67138429D01*
X139524500Y-67251480D01*
X139524500Y-67368520D01*
X139554792Y-67481571D01*
X139573053Y-67513200D01*
X138558563Y-67513200D01*
X138561192Y-67544928D01*
X138619058Y-67773434D01*
X138619060Y-67773438D01*
X138694615Y-67945686D01*
X138703662Y-68016104D01*
X138673201Y-68080234D01*
X138612905Y-68117716D01*
X138579228Y-68122300D01*
X138340829Y-68122300D01*
X138272708Y-68102298D01*
X138251734Y-68085395D01*
X138146419Y-67980080D01*
X138146417Y-67980079D01*
X138000933Y-67888665D01*
X138000930Y-67888664D01*
X137838746Y-67831913D01*
X137838744Y-67831912D01*
X137838746Y-67831912D01*
X137668000Y-67812675D01*
X137497255Y-67831912D01*
X137335069Y-67888664D01*
X137335066Y-67888665D01*
X137189582Y-67980079D01*
X137189580Y-67980080D01*
X137068080Y-68101580D01*
X137068079Y-68101582D01*
X136976665Y-68247066D01*
X136976664Y-68247069D01*
X136919912Y-68409255D01*
X136900675Y-68580000D01*
X136919912Y-68750744D01*
X136976664Y-68912930D01*
X136976665Y-68912933D01*
X137068079Y-69058417D01*
X137068080Y-69058419D01*
X137189580Y-69179919D01*
X137189582Y-69179920D01*
X137335066Y-69271334D01*
X137335067Y-69271334D01*
X137335070Y-69271336D01*
X137497254Y-69328087D01*
X137497253Y-69328087D01*
X137514543Y-69330034D01*
X137668000Y-69347325D01*
X137838746Y-69328087D01*
X138000930Y-69271336D01*
X138146419Y-69179919D01*
X138155649Y-69170689D01*
X138251734Y-69074605D01*
X138314046Y-69040579D01*
X138340829Y-69037700D01*
X138634155Y-69037700D01*
X138702276Y-69057702D01*
X138748769Y-69111358D01*
X138758873Y-69181632D01*
X138749542Y-69214314D01*
X138666798Y-69402949D01*
X138666795Y-69402956D01*
X138610977Y-69623378D01*
X138610976Y-69623384D01*
X138610976Y-69623386D01*
X138592198Y-69850000D01*
X138608092Y-70041814D01*
X138610977Y-70076621D01*
X138666795Y-70297043D01*
X138666798Y-70297050D01*
X138758138Y-70505284D01*
X138804414Y-70576115D01*
X138882510Y-70695649D01*
X139036517Y-70862946D01*
X139215961Y-71002612D01*
X139215963Y-71002613D01*
X139215966Y-71002615D01*
X139228110Y-71009187D01*
X139278500Y-71059200D01*
X139293852Y-71128517D01*
X139269291Y-71195130D01*
X139228110Y-71230813D01*
X139215966Y-71237384D01*
X139215960Y-71237388D01*
X139036514Y-71377056D01*
X138882507Y-71544354D01*
X138758138Y-71734715D01*
X138666798Y-71942949D01*
X138666795Y-71942956D01*
X138610977Y-72163378D01*
X138610976Y-72163384D01*
X138610976Y-72163386D01*
X138609036Y-72186800D01*
X138592198Y-72390000D01*
X138610977Y-72616621D01*
X138666795Y-72837043D01*
X138666798Y-72837050D01*
X138758138Y-73045284D01*
X138870026Y-73216542D01*
X138882510Y-73235649D01*
X138996644Y-73359632D01*
X139030135Y-73396014D01*
X139036517Y-73402946D01*
X139215961Y-73542612D01*
X139215963Y-73542613D01*
X139215966Y-73542615D01*
X139228110Y-73549187D01*
X139278500Y-73599200D01*
X139293852Y-73668517D01*
X139269291Y-73735130D01*
X139228110Y-73770813D01*
X139215966Y-73777384D01*
X139215960Y-73777388D01*
X139036514Y-73917056D01*
X138882507Y-74084354D01*
X138758138Y-74274715D01*
X138666798Y-74482949D01*
X138666795Y-74482956D01*
X138610977Y-74703378D01*
X138592198Y-74930000D01*
X138610977Y-75156621D01*
X138666795Y-75377043D01*
X138666798Y-75377050D01*
X138758138Y-75585284D01*
X138804414Y-75656115D01*
X138882510Y-75775649D01*
X139036517Y-75942946D01*
X139215961Y-76082612D01*
X139215963Y-76082613D01*
X139215966Y-76082615D01*
X139228110Y-76089187D01*
X139278500Y-76139200D01*
X139293852Y-76208517D01*
X139269291Y-76275130D01*
X139228110Y-76310813D01*
X139215966Y-76317384D01*
X139215960Y-76317388D01*
X139036514Y-76457056D01*
X138882507Y-76624354D01*
X138758138Y-76814715D01*
X138666798Y-77022949D01*
X138666795Y-77022956D01*
X138610977Y-77243378D01*
X138610976Y-77243384D01*
X138610976Y-77243386D01*
X138592198Y-77470000D01*
X138607378Y-77653198D01*
X138610977Y-77696621D01*
X138666795Y-77917043D01*
X138666798Y-77917050D01*
X138758138Y-78125284D01*
X138831950Y-78238262D01*
X138882510Y-78315649D01*
X139036517Y-78482946D01*
X139215961Y-78622612D01*
X139215963Y-78622613D01*
X139215966Y-78622615D01*
X139228110Y-78629187D01*
X139278500Y-78679200D01*
X139293852Y-78748517D01*
X139269291Y-78815130D01*
X139228110Y-78850813D01*
X139215966Y-78857384D01*
X139215960Y-78857388D01*
X139036514Y-78997056D01*
X138882507Y-79164354D01*
X138758138Y-79354715D01*
X138666798Y-79562949D01*
X138666795Y-79562956D01*
X138610977Y-79783378D01*
X138592198Y-80010000D01*
X138610977Y-80236621D01*
X138666795Y-80457043D01*
X138666798Y-80457050D01*
X138758138Y-80665284D01*
X138879193Y-80850573D01*
X138882510Y-80855649D01*
X138922374Y-80898953D01*
X139006578Y-80990424D01*
X139036517Y-81022946D01*
X139215961Y-81162612D01*
X139215963Y-81162613D01*
X139215966Y-81162615D01*
X139228110Y-81169187D01*
X139278500Y-81219200D01*
X139293852Y-81288517D01*
X139269291Y-81355130D01*
X139228110Y-81390813D01*
X139215966Y-81397384D01*
X139215960Y-81397388D01*
X139036514Y-81537056D01*
X138882507Y-81704354D01*
X138758138Y-81894715D01*
X138666798Y-82102949D01*
X138666795Y-82102956D01*
X138610977Y-82323378D01*
X138610976Y-82323384D01*
X138610976Y-82323386D01*
X138592198Y-82550000D01*
X138608092Y-82741814D01*
X138610977Y-82776621D01*
X138666795Y-82997043D01*
X138666798Y-82997050D01*
X138758138Y-83205284D01*
X138804414Y-83276115D01*
X138882510Y-83395649D01*
X139036517Y-83562946D01*
X139198573Y-83689079D01*
X139240045Y-83746703D01*
X139243779Y-83817601D01*
X139208589Y-83879263D01*
X139190108Y-83893987D01*
X139188361Y-83895128D01*
X139002326Y-84039925D01*
X138842678Y-84213349D01*
X138713750Y-84410689D01*
X138619058Y-84626566D01*
X138561192Y-84855071D01*
X138558562Y-84886800D01*
X139573053Y-84886800D01*
X139554792Y-84918429D01*
X139524500Y-85031480D01*
X139524500Y-85148520D01*
X139554792Y-85261571D01*
X139573053Y-85293200D01*
X138558563Y-85293200D01*
X138561192Y-85324928D01*
X138619058Y-85553433D01*
X138713750Y-85769310D01*
X138842678Y-85966650D01*
X139002326Y-86140074D01*
X139188361Y-86284871D01*
X139190102Y-86286009D01*
X139190654Y-86286656D01*
X139192468Y-86288068D01*
X139192177Y-86288441D01*
X139236188Y-86340015D01*
X139245760Y-86410363D01*
X139215780Y-86474719D01*
X139198573Y-86490921D01*
X139036514Y-86617056D01*
X138882507Y-86784354D01*
X138758138Y-86974715D01*
X138666798Y-87182949D01*
X138666795Y-87182956D01*
X138610977Y-87403378D01*
X138610976Y-87403384D01*
X138610976Y-87403386D01*
X138592198Y-87630000D01*
X138610133Y-87846445D01*
X138610977Y-87856621D01*
X138666795Y-88077043D01*
X138666798Y-88077050D01*
X138758138Y-88285284D01*
X138826756Y-88390312D01*
X138882510Y-88475649D01*
X139036517Y-88642946D01*
X139215961Y-88782612D01*
X139215963Y-88782613D01*
X139215966Y-88782615D01*
X139228110Y-88789187D01*
X139278500Y-88839200D01*
X139293852Y-88908517D01*
X139269291Y-88975130D01*
X139228110Y-89010813D01*
X139215966Y-89017384D01*
X139215960Y-89017388D01*
X139036514Y-89157056D01*
X138882507Y-89324354D01*
X138758138Y-89514715D01*
X138666798Y-89722949D01*
X138666795Y-89722956D01*
X138610977Y-89943378D01*
X138610976Y-89943384D01*
X138610976Y-89943386D01*
X138592198Y-90170000D01*
X138608476Y-90366447D01*
X138610977Y-90396621D01*
X138666795Y-90617043D01*
X138666798Y-90617050D01*
X138758138Y-90825284D01*
X138862931Y-90985682D01*
X138882510Y-91015649D01*
X139036517Y-91182946D01*
X139198573Y-91309079D01*
X139240045Y-91366703D01*
X139243779Y-91437601D01*
X139208589Y-91499263D01*
X139190108Y-91513987D01*
X139188361Y-91515128D01*
X139002326Y-91659925D01*
X138842678Y-91833349D01*
X138713750Y-92030689D01*
X138619058Y-92246566D01*
X138561192Y-92475071D01*
X138558562Y-92506800D01*
X139573053Y-92506800D01*
X139554792Y-92538429D01*
X139524500Y-92651480D01*
X139524500Y-92768520D01*
X139554792Y-92881571D01*
X139573053Y-92913200D01*
X138558563Y-92913200D01*
X138561192Y-92944928D01*
X138619058Y-93173433D01*
X138713750Y-93389310D01*
X138842678Y-93586650D01*
X139002326Y-93760074D01*
X139188361Y-93904871D01*
X139190102Y-93906009D01*
X139190654Y-93906656D01*
X139192468Y-93908068D01*
X139192177Y-93908441D01*
X139236188Y-93960015D01*
X139245760Y-94030363D01*
X139215780Y-94094719D01*
X139198573Y-94110921D01*
X139036514Y-94237056D01*
X138882507Y-94404354D01*
X138758138Y-94594715D01*
X138666798Y-94802949D01*
X138666795Y-94802956D01*
X138610977Y-95023378D01*
X138610976Y-95023384D01*
X138610976Y-95023386D01*
X138592198Y-95250000D01*
X138609915Y-95463813D01*
X138610977Y-95476621D01*
X138666795Y-95697043D01*
X138666798Y-95697050D01*
X138758138Y-95905284D01*
X138804414Y-95976115D01*
X138882510Y-96095649D01*
X139036517Y-96262946D01*
X139215961Y-96402612D01*
X139215963Y-96402613D01*
X139215966Y-96402615D01*
X139228110Y-96409187D01*
X139278500Y-96459200D01*
X139293852Y-96528517D01*
X139269291Y-96595130D01*
X139228110Y-96630813D01*
X139215966Y-96637384D01*
X139215960Y-96637388D01*
X139036514Y-96777056D01*
X138882507Y-96944354D01*
X138758138Y-97134715D01*
X138704537Y-97256914D01*
X138658856Y-97311262D01*
X138591044Y-97332286D01*
X138589150Y-97332300D01*
X125716777Y-97332300D01*
X125648656Y-97312298D01*
X125602163Y-97258642D01*
X125592059Y-97188368D01*
X125621553Y-97123788D01*
X125627682Y-97117205D01*
X125740645Y-97004241D01*
X125740651Y-97004235D01*
X125800908Y-96899866D01*
X125832100Y-96783457D01*
X125832100Y-96662942D01*
X125832100Y-94114143D01*
X125826033Y-94091500D01*
X125826032Y-94091496D01*
X125800909Y-93997737D01*
X125800908Y-93997736D01*
X125800908Y-93997734D01*
X125740651Y-93893365D01*
X125740648Y-93893362D01*
X125740645Y-93893358D01*
X123694605Y-91847318D01*
X123660579Y-91785006D01*
X123657700Y-91758223D01*
X123657700Y-90706759D01*
X123677702Y-90638638D01*
X123683731Y-90630062D01*
X123710734Y-90594873D01*
X123769650Y-90452637D01*
X123789745Y-90300000D01*
X123789218Y-90296000D01*
X123776291Y-90197804D01*
X123769650Y-90147363D01*
X123710734Y-90005128D01*
X123617013Y-89882987D01*
X123494873Y-89789266D01*
X123494870Y-89789264D01*
X123494867Y-89789263D01*
X123485601Y-89785425D01*
X123430322Y-89740875D01*
X123407903Y-89673511D01*
X123425463Y-89604721D01*
X123444724Y-89579927D01*
X123510923Y-89513729D01*
X123510928Y-89513725D01*
X123521297Y-89503355D01*
X123521299Y-89503355D01*
X123613355Y-89411299D01*
X123685682Y-89303054D01*
X123735502Y-89182777D01*
X123748583Y-89117013D01*
X123760900Y-89055094D01*
X123760900Y-88924907D01*
X123760900Y-86489272D01*
X123770491Y-86441054D01*
X123773012Y-86434968D01*
X123784350Y-86407595D01*
X123792120Y-86368534D01*
X123811701Y-86270096D01*
X123811701Y-86129903D01*
X123811701Y-86124711D01*
X123811700Y-86124685D01*
X123811700Y-85316854D01*
X123831702Y-85248733D01*
X123848600Y-85227763D01*
X124449299Y-84627063D01*
X124449306Y-84627058D01*
X124456480Y-84619883D01*
X124456483Y-84619882D01*
X124555614Y-84520751D01*
X124633501Y-84404185D01*
X124662774Y-84333513D01*
X124687151Y-84274663D01*
X124714501Y-84137164D01*
X124714501Y-83996972D01*
X124714501Y-83991780D01*
X124714500Y-83991754D01*
X124714500Y-82490586D01*
X124734502Y-82422465D01*
X124751400Y-82401495D01*
X125646499Y-81506395D01*
X125646506Y-81506390D01*
X125653680Y-81499215D01*
X125653683Y-81499214D01*
X125752814Y-81400083D01*
X125830701Y-81283517D01*
X125868636Y-81191931D01*
X125884350Y-81153996D01*
X125911701Y-81016497D01*
X125911701Y-80876304D01*
X125911701Y-80871112D01*
X125911700Y-80871086D01*
X125911700Y-79596141D01*
X125918771Y-79554526D01*
X125925082Y-79536487D01*
X125948087Y-79470746D01*
X125967325Y-79300000D01*
X125948087Y-79129254D01*
X125891336Y-78967070D01*
X125891334Y-78967067D01*
X125891334Y-78967066D01*
X125799920Y-78821582D01*
X125799919Y-78821580D01*
X125678419Y-78700080D01*
X125678417Y-78700079D01*
X125532933Y-78608665D01*
X125532930Y-78608664D01*
X125370746Y-78551913D01*
X125370744Y-78551912D01*
X125370746Y-78551912D01*
X125200000Y-78532675D01*
X125029255Y-78551912D01*
X124867069Y-78608664D01*
X124867066Y-78608665D01*
X124721582Y-78700079D01*
X124721580Y-78700080D01*
X124600080Y-78821580D01*
X124600079Y-78821582D01*
X124508665Y-78967066D01*
X124508664Y-78967069D01*
X124451912Y-79129255D01*
X124432675Y-79300000D01*
X124451912Y-79470744D01*
X124481229Y-79554526D01*
X124488300Y-79596141D01*
X124488300Y-80599413D01*
X124468298Y-80667534D01*
X124451395Y-80688508D01*
X123449988Y-81689914D01*
X123449983Y-81689921D01*
X123372099Y-81806482D01*
X123358001Y-81840515D01*
X123358002Y-81840516D01*
X123318450Y-81936002D01*
X123318449Y-81936006D01*
X123291099Y-82073501D01*
X123291099Y-82219908D01*
X123291100Y-82219929D01*
X123291100Y-83720080D01*
X123271098Y-83788201D01*
X123254195Y-83809176D01*
X122874421Y-84188949D01*
X122812109Y-84222974D01*
X122741293Y-84217909D01*
X122708624Y-84199817D01*
X122694878Y-84189269D01*
X122694871Y-84189265D01*
X122552635Y-84130349D01*
X122400000Y-84110255D01*
X122247364Y-84130349D01*
X122105130Y-84189265D01*
X122105126Y-84189267D01*
X122076701Y-84211078D01*
X122010480Y-84236676D01*
X121940931Y-84222409D01*
X121923297Y-84211076D01*
X121894871Y-84189264D01*
X121752637Y-84130350D01*
X121600000Y-84110255D01*
X121447364Y-84130349D01*
X121305129Y-84189265D01*
X121305121Y-84189270D01*
X121182986Y-84282986D01*
X121089270Y-84405121D01*
X121089265Y-84405129D01*
X121030349Y-84547364D01*
X121010255Y-84699999D01*
X121010255Y-84700000D01*
X121020733Y-84779591D01*
X121009793Y-84849740D01*
X120962665Y-84902838D01*
X120894313Y-84922028D01*
X120832197Y-84921289D01*
X120832195Y-84921289D01*
X120816445Y-84923363D01*
X120783556Y-84923363D01*
X120758077Y-84920009D01*
X120726301Y-84911495D01*
X120698037Y-84899787D01*
X120673794Y-84886457D01*
X120671914Y-84885135D01*
X120654294Y-84873812D01*
X120642543Y-84866575D01*
X120642540Y-84866573D01*
X120642538Y-84866572D01*
X120642534Y-84866570D01*
X120531615Y-84823850D01*
X120462059Y-84809585D01*
X120375725Y-84802486D01*
X120259303Y-84826517D01*
X120193087Y-84852117D01*
X120193083Y-84852119D01*
X120132284Y-84886263D01*
X120118807Y-84892809D01*
X120089388Y-84904995D01*
X120024726Y-84913509D01*
X120000005Y-84910255D01*
X120000002Y-84910255D01*
X120000000Y-84910255D01*
X119985814Y-84912122D01*
X119975271Y-84913510D01*
X119910607Y-84904994D01*
X119898035Y-84899786D01*
X119873794Y-84886457D01*
X119871914Y-84885135D01*
X119854294Y-84873812D01*
X119842543Y-84866575D01*
X119842540Y-84866573D01*
X119842538Y-84866572D01*
X119842534Y-84866570D01*
X119731615Y-84823850D01*
X119662059Y-84809585D01*
X119575725Y-84802486D01*
X119459303Y-84826517D01*
X119393087Y-84852117D01*
X119393083Y-84852119D01*
X119332284Y-84886263D01*
X119318807Y-84892809D01*
X119289388Y-84904995D01*
X119224726Y-84913509D01*
X119200005Y-84910255D01*
X119200002Y-84910255D01*
X119200000Y-84910255D01*
X119185814Y-84912122D01*
X119175271Y-84913510D01*
X119110607Y-84904994D01*
X119098035Y-84899786D01*
X119073794Y-84886457D01*
X119071914Y-84885135D01*
X119054294Y-84873812D01*
X119042918Y-84866806D01*
X118995406Y-84814051D01*
X118983957Y-84743984D01*
X118984036Y-84743356D01*
X118989745Y-84700000D01*
X118969650Y-84547363D01*
X118910734Y-84405128D01*
X118817013Y-84282987D01*
X118694873Y-84189266D01*
X118694869Y-84189264D01*
X118552635Y-84130349D01*
X118400000Y-84110255D01*
X118247364Y-84130349D01*
X118105130Y-84189265D01*
X118105126Y-84189267D01*
X118076701Y-84211078D01*
X118010480Y-84236676D01*
X117940931Y-84222409D01*
X117923297Y-84211076D01*
X117894871Y-84189264D01*
X117752637Y-84130350D01*
X117600000Y-84110255D01*
X117599995Y-84110255D01*
X117570442Y-84114145D01*
X117500294Y-84103204D01*
X117447196Y-84056075D01*
X117428857Y-84003898D01*
X117004159Y-80381470D01*
X117016093Y-80311483D01*
X117063970Y-80259059D01*
X117132589Y-80240841D01*
X117170915Y-80247868D01*
X117177254Y-80250087D01*
X117348000Y-80269325D01*
X117518746Y-80250087D01*
X117680930Y-80193336D01*
X117826419Y-80101919D01*
X117947919Y-79980419D01*
X118039336Y-79834930D01*
X118096087Y-79672746D01*
X118115325Y-79502000D01*
X121406675Y-79502000D01*
X121425912Y-79672744D01*
X121482664Y-79834930D01*
X121482665Y-79834933D01*
X121574079Y-79980417D01*
X121574080Y-79980419D01*
X121695580Y-80101919D01*
X121695582Y-80101920D01*
X121841066Y-80193334D01*
X121841067Y-80193334D01*
X121841070Y-80193336D01*
X122003254Y-80250087D01*
X122003253Y-80250087D01*
X122020543Y-80252034D01*
X122174000Y-80269325D01*
X122344746Y-80250087D01*
X122506930Y-80193336D01*
X122652419Y-80101919D01*
X122773919Y-79980419D01*
X122865336Y-79834930D01*
X122922087Y-79672746D01*
X122941325Y-79502000D01*
X122922087Y-79331254D01*
X122865336Y-79169070D01*
X122865334Y-79169067D01*
X122865334Y-79169066D01*
X122773920Y-79023582D01*
X122773919Y-79023580D01*
X122652419Y-78902080D01*
X122652417Y-78902079D01*
X122506933Y-78810665D01*
X122506930Y-78810664D01*
X122448913Y-78790363D01*
X122344746Y-78753913D01*
X122344744Y-78753912D01*
X122344746Y-78753912D01*
X122174000Y-78734675D01*
X122003255Y-78753912D01*
X121841069Y-78810664D01*
X121841066Y-78810665D01*
X121695582Y-78902079D01*
X121695580Y-78902080D01*
X121574080Y-79023580D01*
X121574079Y-79023582D01*
X121482665Y-79169066D01*
X121482664Y-79169069D01*
X121425912Y-79331255D01*
X121406675Y-79502000D01*
X118115325Y-79502000D01*
X118096087Y-79331254D01*
X118039336Y-79169070D01*
X118039334Y-79169067D01*
X118039334Y-79169066D01*
X117947920Y-79023582D01*
X117947919Y-79023580D01*
X117826419Y-78902080D01*
X117826417Y-78902079D01*
X117680933Y-78810665D01*
X117680930Y-78810664D01*
X117622913Y-78790363D01*
X117518746Y-78753913D01*
X117518744Y-78753912D01*
X117518746Y-78753912D01*
X117348000Y-78734675D01*
X117177255Y-78753912D01*
X117015070Y-78810663D01*
X117002323Y-78818673D01*
X116934001Y-78837977D01*
X116866088Y-78817280D01*
X116820146Y-78763152D01*
X116810146Y-78726656D01*
X115771696Y-69869280D01*
X115760823Y-69814124D01*
X115750294Y-69776454D01*
X115737420Y-69738612D01*
X115726323Y-69720458D01*
X115675426Y-69637189D01*
X115628933Y-69583533D01*
X115628924Y-69583525D01*
X115621805Y-69577070D01*
X115579250Y-69538482D01*
X115564755Y-69525338D01*
X115564752Y-69525336D01*
X115564750Y-69525334D01*
X115564747Y-69525332D01*
X115564745Y-69525331D01*
X115457770Y-69473532D01*
X115457759Y-69473527D01*
X115389650Y-69453529D01*
X115389629Y-69453524D01*
X115287914Y-69438900D01*
X115287909Y-69438900D01*
X112126000Y-69438900D01*
X112125992Y-69438900D01*
X112057773Y-69446235D01*
X112049245Y-69447152D01*
X112049243Y-69447152D01*
X112049230Y-69447154D01*
X111996910Y-69458536D01*
X111996892Y-69458541D01*
X111938610Y-69476489D01*
X111837189Y-69538482D01*
X111783533Y-69584975D01*
X111783525Y-69584984D01*
X111725338Y-69649153D01*
X111725331Y-69649163D01*
X111673532Y-69756138D01*
X111673527Y-69756149D01*
X111653529Y-69824258D01*
X111653524Y-69824279D01*
X111638900Y-69925994D01*
X111638900Y-77648649D01*
X111618898Y-77716770D01*
X111565242Y-77763263D01*
X111494968Y-77773367D01*
X111430388Y-77743873D01*
X111394668Y-77692205D01*
X110165468Y-74355589D01*
X110157700Y-74312033D01*
X110157700Y-71900743D01*
X110157699Y-71900739D01*
X110126508Y-71784335D01*
X110126507Y-71784332D01*
X110066253Y-71679969D01*
X110066249Y-71679964D01*
X110029767Y-71643482D01*
X109981034Y-71594749D01*
X106915925Y-68529640D01*
X104426286Y-66040000D01*
X136900675Y-66040000D01*
X136919912Y-66210744D01*
X136976664Y-66372930D01*
X136976665Y-66372933D01*
X137068079Y-66518417D01*
X137068080Y-66518419D01*
X137189580Y-66639919D01*
X137189582Y-66639920D01*
X137335066Y-66731334D01*
X137335067Y-66731334D01*
X137335070Y-66731336D01*
X137497254Y-66788087D01*
X137497253Y-66788087D01*
X137510123Y-66789537D01*
X137668000Y-66807325D01*
X137838746Y-66788087D01*
X138000930Y-66731336D01*
X138146419Y-66639919D01*
X138267919Y-66518419D01*
X138359336Y-66372930D01*
X138416087Y-66210746D01*
X138435325Y-66040000D01*
X138416087Y-65869254D01*
X138359336Y-65707070D01*
X138359334Y-65707067D01*
X138359334Y-65707066D01*
X138267920Y-65561582D01*
X138267919Y-65561580D01*
X138146419Y-65440080D01*
X138146417Y-65440079D01*
X138000933Y-65348665D01*
X138000930Y-65348664D01*
X137838746Y-65291913D01*
X137838744Y-65291912D01*
X137838746Y-65291912D01*
X137668000Y-65272675D01*
X137497255Y-65291912D01*
X137335069Y-65348664D01*
X137335066Y-65348665D01*
X137189582Y-65440079D01*
X137189580Y-65440080D01*
X137068080Y-65561580D01*
X137068079Y-65561582D01*
X136976665Y-65707066D01*
X136976664Y-65707069D01*
X136919912Y-65869255D01*
X136900675Y-66040000D01*
X104426286Y-66040000D01*
X103808696Y-65422410D01*
X103774670Y-65360098D01*
X103779735Y-65289283D01*
X103782397Y-65282716D01*
X103811203Y-65217047D01*
X103867024Y-64996614D01*
X103885802Y-64770000D01*
X103875278Y-64642997D01*
X112796419Y-64642997D01*
X112796419Y-64643002D01*
X112814277Y-64790076D01*
X112866817Y-64928613D01*
X112950978Y-65050541D01*
X112950979Y-65050542D01*
X112950980Y-65050543D01*
X113061878Y-65148790D01*
X113193067Y-65217643D01*
X113336920Y-65253100D01*
X113336921Y-65253100D01*
X113485079Y-65253100D01*
X113485080Y-65253100D01*
X113628933Y-65217643D01*
X113727461Y-65165932D01*
X113786015Y-65151500D01*
X118609182Y-65151500D01*
X118677303Y-65171502D01*
X118698277Y-65188405D01*
X118750368Y-65240496D01*
X118779137Y-65291497D01*
X118780575Y-65290952D01*
X118835817Y-65436613D01*
X118919978Y-65558541D01*
X118919979Y-65558542D01*
X118919980Y-65558543D01*
X119030878Y-65656790D01*
X119162067Y-65725643D01*
X119305920Y-65761100D01*
X119305921Y-65761100D01*
X119454079Y-65761100D01*
X119454080Y-65761100D01*
X119597933Y-65725643D01*
X119729122Y-65656790D01*
X119840020Y-65558543D01*
X119924184Y-65436610D01*
X119976722Y-65298079D01*
X119992768Y-65165932D01*
X119994581Y-65151002D01*
X119994581Y-65150997D01*
X119976722Y-65003923D01*
X119976722Y-65003921D01*
X119924184Y-64865390D01*
X119924182Y-64865388D01*
X119924182Y-64865386D01*
X119840021Y-64743458D01*
X119729121Y-64645209D01*
X119729117Y-64645207D01*
X119597933Y-64576357D01*
X119534560Y-64560736D01*
X119475622Y-64527494D01*
X119184227Y-64236099D01*
X119184225Y-64236098D01*
X119184223Y-64236096D01*
X119068278Y-64169155D01*
X119068276Y-64169154D01*
X119068274Y-64169153D01*
X118938945Y-64134500D01*
X118938943Y-64134500D01*
X113786015Y-64134500D01*
X113727461Y-64120068D01*
X113628931Y-64068356D01*
X113485081Y-64032900D01*
X113485080Y-64032900D01*
X113336920Y-64032900D01*
X113336918Y-64032900D01*
X113193068Y-64068356D01*
X113061882Y-64137207D01*
X113061878Y-64137209D01*
X112950978Y-64235458D01*
X112866817Y-64357386D01*
X112814277Y-64495923D01*
X112796419Y-64642997D01*
X103875278Y-64642997D01*
X103867024Y-64543386D01*
X103811203Y-64322953D01*
X103719861Y-64114715D01*
X103595490Y-63924351D01*
X103441483Y-63757054D01*
X103283295Y-63633932D01*
X103241823Y-63576307D01*
X103238089Y-63505409D01*
X103273279Y-63443747D01*
X103336219Y-63410898D01*
X103360685Y-63408500D01*
X139035420Y-63408500D01*
X139103541Y-63428502D01*
G37*
G04 #@! TD.AperFunction*
G04 #@! TA.AperFunction,Conductor*
G36*
X101352267Y-95996516D02*
G01*
X101374525Y-96022203D01*
X101422510Y-96095649D01*
X101576517Y-96262946D01*
X101755961Y-96402612D01*
X101755963Y-96402613D01*
X101755966Y-96402615D01*
X101768110Y-96409187D01*
X101818500Y-96459200D01*
X101833852Y-96528517D01*
X101809291Y-96595130D01*
X101768110Y-96630813D01*
X101755966Y-96637384D01*
X101755960Y-96637388D01*
X101576514Y-96777056D01*
X101422509Y-96944352D01*
X101374525Y-97017797D01*
X101320521Y-97063885D01*
X101250173Y-97073460D01*
X101185816Y-97043482D01*
X101163559Y-97017796D01*
X101095321Y-96913349D01*
X100935673Y-96739925D01*
X100780863Y-96619432D01*
X100739392Y-96561807D01*
X100735658Y-96490908D01*
X100770848Y-96429246D01*
X100780863Y-96420568D01*
X100935673Y-96300074D01*
X101095321Y-96126650D01*
X101163559Y-96022203D01*
X101217562Y-95976115D01*
X101287910Y-95966539D01*
X101352267Y-95996516D01*
G37*
G04 #@! TD.AperFunction*
G04 #@! TA.AperFunction,Conductor*
G36*
X122326345Y-92377702D02*
G01*
X122347319Y-92394605D01*
X124117795Y-94165080D01*
X124151820Y-94227392D01*
X124154700Y-94254175D01*
X124154700Y-94837277D01*
X124134698Y-94905398D01*
X124081042Y-94951891D01*
X124010768Y-94961995D01*
X123946188Y-94932501D01*
X123939605Y-94926372D01*
X122446988Y-93433754D01*
X122446978Y-93433746D01*
X122342615Y-93373492D01*
X122342612Y-93373491D01*
X122226208Y-93342300D01*
X122226205Y-93342300D01*
X122226204Y-93342300D01*
X121906759Y-93342300D01*
X121838638Y-93322298D01*
X121830062Y-93316268D01*
X121794873Y-93289266D01*
X121652637Y-93230350D01*
X121652635Y-93230349D01*
X121567254Y-93219109D01*
X121502326Y-93190386D01*
X121463235Y-93131121D01*
X121457700Y-93094187D01*
X121457700Y-92614686D01*
X121477702Y-92546565D01*
X121531358Y-92500072D01*
X121591741Y-92491025D01*
X121591741Y-92489745D01*
X121600000Y-92489745D01*
X121752637Y-92469650D01*
X121894873Y-92410734D01*
X121930055Y-92383737D01*
X121996275Y-92358137D01*
X122006759Y-92357700D01*
X122258224Y-92357700D01*
X122326345Y-92377702D01*
G37*
G04 #@! TD.AperFunction*
G04 #@! TA.AperFunction,Conductor*
G36*
X100172200Y-94854052D02*
G01*
X100140571Y-94835792D01*
X100027520Y-94805500D01*
X99910480Y-94805500D01*
X99797429Y-94835792D01*
X99765800Y-94854052D01*
X99765800Y-93105947D01*
X99797429Y-93124208D01*
X99910480Y-93154500D01*
X100027520Y-93154500D01*
X100140571Y-93124208D01*
X100172200Y-93105947D01*
X100172200Y-94854052D01*
G37*
G04 #@! TD.AperFunction*
G04 #@! TA.AperFunction,Conductor*
G36*
X101352267Y-93456516D02*
G01*
X101374525Y-93482203D01*
X101418626Y-93549705D01*
X101422510Y-93555649D01*
X101576517Y-93722946D01*
X101755961Y-93862612D01*
X101755963Y-93862613D01*
X101755966Y-93862615D01*
X101768110Y-93869187D01*
X101818500Y-93919200D01*
X101833852Y-93988517D01*
X101809291Y-94055130D01*
X101768110Y-94090813D01*
X101755966Y-94097384D01*
X101755960Y-94097388D01*
X101576514Y-94237056D01*
X101422509Y-94404352D01*
X101374525Y-94477797D01*
X101320521Y-94523885D01*
X101250173Y-94533460D01*
X101185816Y-94503482D01*
X101163559Y-94477796D01*
X101095321Y-94373349D01*
X100935673Y-94199925D01*
X100780863Y-94079432D01*
X100739392Y-94021807D01*
X100735658Y-93950908D01*
X100770848Y-93889246D01*
X100780863Y-93880568D01*
X100935673Y-93760074D01*
X101095321Y-93586650D01*
X101163559Y-93482203D01*
X101217562Y-93436115D01*
X101287910Y-93426539D01*
X101352267Y-93456516D01*
G37*
G04 #@! TD.AperFunction*
G04 #@! TA.AperFunction,Conductor*
G36*
X142094792Y-92538429D02*
G01*
X142064500Y-92651480D01*
X142064500Y-92768520D01*
X142094792Y-92881571D01*
X142113053Y-92913200D01*
X140364947Y-92913200D01*
X140383208Y-92881571D01*
X140413500Y-92768520D01*
X140413500Y-92651480D01*
X140383208Y-92538429D01*
X140364947Y-92506800D01*
X142113053Y-92506800D01*
X142094792Y-92538429D01*
G37*
G04 #@! TD.AperFunction*
G04 #@! TA.AperFunction,Conductor*
G36*
X100172200Y-92314052D02*
G01*
X100140571Y-92295792D01*
X100027520Y-92265500D01*
X99910480Y-92265500D01*
X99797429Y-92295792D01*
X99765800Y-92314052D01*
X99765800Y-90565947D01*
X99797429Y-90584208D01*
X99910480Y-90614500D01*
X100027520Y-90614500D01*
X100140571Y-90584208D01*
X100172200Y-90565947D01*
X100172200Y-92314052D01*
G37*
G04 #@! TD.AperFunction*
G04 #@! TA.AperFunction,Conductor*
G36*
X101352267Y-90916516D02*
G01*
X101374525Y-90942203D01*
X101402931Y-90985682D01*
X101422510Y-91015649D01*
X101576517Y-91182946D01*
X101755961Y-91322612D01*
X101755963Y-91322613D01*
X101755966Y-91322615D01*
X101768110Y-91329187D01*
X101818500Y-91379200D01*
X101833852Y-91448517D01*
X101809291Y-91515130D01*
X101768110Y-91550813D01*
X101755966Y-91557384D01*
X101755960Y-91557388D01*
X101576514Y-91697056D01*
X101422509Y-91864352D01*
X101374525Y-91937797D01*
X101320521Y-91983885D01*
X101250173Y-91993460D01*
X101185816Y-91963482D01*
X101163559Y-91937796D01*
X101095321Y-91833349D01*
X100935673Y-91659925D01*
X100780863Y-91539432D01*
X100739392Y-91481807D01*
X100735658Y-91410908D01*
X100770848Y-91349246D01*
X100780863Y-91340568D01*
X100935673Y-91220074D01*
X101095321Y-91046650D01*
X101163559Y-90942203D01*
X101217562Y-90896115D01*
X101287910Y-90886539D01*
X101352267Y-90916516D01*
G37*
G04 #@! TD.AperFunction*
G04 #@! TA.AperFunction,Conductor*
G36*
X106867663Y-83027702D02*
G01*
X106888637Y-83044605D01*
X112071237Y-88227205D01*
X112105263Y-88289517D01*
X112100198Y-88360332D01*
X112057651Y-88417168D01*
X111991131Y-88441979D01*
X111982142Y-88442300D01*
X103843845Y-88442300D01*
X103775724Y-88422298D01*
X103729231Y-88368642D01*
X103719127Y-88298368D01*
X103728458Y-88265686D01*
X103745337Y-88227205D01*
X103811203Y-88077047D01*
X103867024Y-87856614D01*
X103885802Y-87630000D01*
X103867024Y-87403386D01*
X103845330Y-87317717D01*
X103811204Y-87182956D01*
X103811201Y-87182949D01*
X103808543Y-87176890D01*
X103719861Y-86974715D01*
X103595490Y-86784351D01*
X103441483Y-86617054D01*
X103279425Y-86490920D01*
X103237955Y-86433296D01*
X103234221Y-86362398D01*
X103269411Y-86300735D01*
X103287905Y-86286004D01*
X103289640Y-86284870D01*
X103475673Y-86140074D01*
X103635321Y-85966650D01*
X103764249Y-85769310D01*
X103858941Y-85553433D01*
X103916807Y-85324928D01*
X103919437Y-85293200D01*
X102904947Y-85293200D01*
X102923208Y-85261571D01*
X102953500Y-85148520D01*
X102953500Y-85031480D01*
X102923208Y-84918429D01*
X102904947Y-84886800D01*
X103919437Y-84886800D01*
X103916807Y-84855071D01*
X103858941Y-84626566D01*
X103764249Y-84410689D01*
X103635321Y-84213349D01*
X103475673Y-84039925D01*
X103289640Y-83895129D01*
X103287899Y-83893992D01*
X103287345Y-83893343D01*
X103285532Y-83891932D01*
X103285822Y-83891558D01*
X103241812Y-83839988D01*
X103232237Y-83769640D01*
X103262215Y-83705283D01*
X103279418Y-83689085D01*
X103441483Y-83562946D01*
X103595490Y-83395649D01*
X103719861Y-83205285D01*
X103773463Y-83083086D01*
X103819144Y-83028738D01*
X103886956Y-83007714D01*
X103888850Y-83007700D01*
X106799542Y-83007700D01*
X106867663Y-83027702D01*
G37*
G04 #@! TD.AperFunction*
G04 #@! TA.AperFunction,Conductor*
G36*
X120000000Y-86089745D02*
G01*
X120024720Y-86086490D01*
X120089390Y-86095003D01*
X120096148Y-86097803D01*
X120097444Y-86098340D01*
X120125926Y-86114785D01*
X120146311Y-86130427D01*
X120169570Y-86153686D01*
X120185214Y-86174074D01*
X120201660Y-86202559D01*
X120211496Y-86226305D01*
X120220009Y-86258077D01*
X120223363Y-86283553D01*
X120223364Y-86316442D01*
X120221285Y-86332230D01*
X120219118Y-86353589D01*
X120218050Y-86368535D01*
X120217717Y-86373708D01*
X120217717Y-86373714D01*
X120230572Y-86491883D01*
X120249761Y-86560231D01*
X120249762Y-86560234D01*
X120283014Y-86640230D01*
X120357716Y-86732695D01*
X120410814Y-86779824D01*
X120417356Y-86784354D01*
X120482044Y-86829149D01*
X120482049Y-86829152D01*
X120545668Y-86850237D01*
X120594882Y-86866548D01*
X120659574Y-86876636D01*
X120665031Y-86877487D01*
X120767797Y-86878710D01*
X120767797Y-86878709D01*
X120767800Y-86878710D01*
X120783550Y-86876635D01*
X120816444Y-86876635D01*
X120841931Y-86879990D01*
X120873693Y-86888501D01*
X120897436Y-86898336D01*
X120925921Y-86914781D01*
X120946308Y-86930424D01*
X120969569Y-86953684D01*
X120985214Y-86974073D01*
X121001660Y-87002559D01*
X121011496Y-87026305D01*
X121020009Y-87058077D01*
X121023363Y-87083553D01*
X121023363Y-87116443D01*
X121020009Y-87141922D01*
X121011495Y-87173698D01*
X120999786Y-87201965D01*
X120986461Y-87226202D01*
X120985137Y-87228085D01*
X120973823Y-87245689D01*
X120966579Y-87257449D01*
X120966578Y-87257451D01*
X120966577Y-87257454D01*
X120937306Y-87333450D01*
X120923851Y-87368384D01*
X120909588Y-87437920D01*
X120902485Y-87524272D01*
X120909810Y-87559757D01*
X120926515Y-87640690D01*
X120926516Y-87640692D01*
X120952114Y-87706908D01*
X120986265Y-87767721D01*
X120992811Y-87781198D01*
X121011495Y-87826304D01*
X121020009Y-87858077D01*
X121023363Y-87883553D01*
X121023363Y-87916443D01*
X121020009Y-87941923D01*
X121011495Y-87973697D01*
X121004166Y-87991390D01*
X121001658Y-87997446D01*
X120985217Y-88025921D01*
X120969575Y-88046308D01*
X120946308Y-88069575D01*
X120925921Y-88085217D01*
X120897449Y-88101656D01*
X120889397Y-88104992D01*
X120824727Y-88113510D01*
X120800000Y-88110255D01*
X120799999Y-88110255D01*
X120775271Y-88113510D01*
X120710607Y-88104994D01*
X120698035Y-88099786D01*
X120673794Y-88086457D01*
X120671914Y-88085135D01*
X120654294Y-88073812D01*
X120642543Y-88066575D01*
X120642540Y-88066573D01*
X120642538Y-88066572D01*
X120642534Y-88066570D01*
X120531615Y-88023850D01*
X120462059Y-88009585D01*
X120375725Y-88002486D01*
X120259303Y-88026517D01*
X120193087Y-88052117D01*
X120193083Y-88052119D01*
X120132284Y-88086263D01*
X120118807Y-88092809D01*
X120089388Y-88104995D01*
X120024726Y-88113509D01*
X120000005Y-88110255D01*
X120000002Y-88110255D01*
X120000000Y-88110255D01*
X119985814Y-88112122D01*
X119975271Y-88113510D01*
X119910607Y-88104994D01*
X119902554Y-88101658D01*
X119874077Y-88085217D01*
X119863429Y-88077047D01*
X119853686Y-88069571D01*
X119830430Y-88046316D01*
X119814781Y-88025922D01*
X119798340Y-87997444D01*
X119790250Y-87977913D01*
X119788501Y-87973692D01*
X119779989Y-87941920D01*
X119776635Y-87916439D01*
X119776636Y-87883554D01*
X119778712Y-87867783D01*
X119780877Y-87846445D01*
X119780879Y-87846426D01*
X119781948Y-87831478D01*
X119782282Y-87826285D01*
X119769426Y-87708112D01*
X119750235Y-87639758D01*
X119716978Y-87559757D01*
X119716977Y-87559756D01*
X119716977Y-87559755D01*
X119642283Y-87467304D01*
X119642274Y-87467294D01*
X119589175Y-87420167D01*
X119517952Y-87370850D01*
X119517951Y-87370849D01*
X119405125Y-87333453D01*
X119405115Y-87333450D01*
X119334971Y-87322511D01*
X119232197Y-87321289D01*
X119232195Y-87321289D01*
X119216445Y-87323363D01*
X119183554Y-87323363D01*
X119167789Y-87321287D01*
X119146402Y-87319117D01*
X119146347Y-87319113D01*
X119131454Y-87318049D01*
X119131443Y-87318048D01*
X119131369Y-87318043D01*
X119126285Y-87317716D01*
X119126284Y-87317716D01*
X119118162Y-87318600D01*
X119048279Y-87306078D01*
X118996259Y-87257762D01*
X118978618Y-87188992D01*
X118979618Y-87176915D01*
X118989745Y-87100000D01*
X118983409Y-87051879D01*
X118994347Y-86981735D01*
X119041474Y-86928635D01*
X119046604Y-86925591D01*
X119067734Y-86913724D01*
X119081187Y-86907189D01*
X119126308Y-86888500D01*
X119158068Y-86879990D01*
X119183554Y-86876635D01*
X119216447Y-86876635D01*
X119222795Y-86877471D01*
X119232211Y-86878712D01*
X119251759Y-86880695D01*
X119253571Y-86880879D01*
X119268518Y-86881948D01*
X119273710Y-86882282D01*
X119391883Y-86869427D01*
X119460236Y-86850237D01*
X119540230Y-86816985D01*
X119632695Y-86742283D01*
X119679824Y-86689185D01*
X119729151Y-86617952D01*
X119766548Y-86505117D01*
X119777487Y-86434968D01*
X119778455Y-86353589D01*
X119778710Y-86332205D01*
X119778709Y-86332204D01*
X119778710Y-86332199D01*
X119776635Y-86316440D01*
X119776635Y-86283552D01*
X119779989Y-86258074D01*
X119788498Y-86226313D01*
X119798343Y-86202548D01*
X119814784Y-86174074D01*
X119830429Y-86153685D01*
X119853685Y-86130429D01*
X119861137Y-86124711D01*
X119874075Y-86114783D01*
X119902548Y-86098343D01*
X119910613Y-86095002D01*
X119975273Y-86086489D01*
X120000000Y-86089745D01*
G37*
G04 #@! TD.AperFunction*
G04 #@! TA.AperFunction,Conductor*
G36*
X104034946Y-69999818D02*
G01*
X104076042Y-70027222D01*
X108135241Y-74086421D01*
X108164075Y-74131146D01*
X113323541Y-87844448D01*
X113328809Y-87915249D01*
X113294962Y-87977659D01*
X113232747Y-88011861D01*
X113161917Y-88006999D01*
X113116517Y-87977913D01*
X107322359Y-82183754D01*
X107322349Y-82183746D01*
X107217986Y-82123492D01*
X107217983Y-82123491D01*
X107101579Y-82092300D01*
X107101576Y-82092300D01*
X107101575Y-82092300D01*
X103888850Y-82092300D01*
X103820729Y-82072298D01*
X103774236Y-82018642D01*
X103773463Y-82016914D01*
X103719861Y-81894715D01*
X103595492Y-81704354D01*
X103595491Y-81704353D01*
X103595490Y-81704351D01*
X103441483Y-81537054D01*
X103262039Y-81397388D01*
X103262038Y-81397387D01*
X103257198Y-81394768D01*
X103249890Y-81390813D01*
X103199500Y-81340803D01*
X103184147Y-81271486D01*
X103208706Y-81204873D01*
X103249889Y-81169186D01*
X103262039Y-81162612D01*
X103441483Y-81022946D01*
X103595490Y-80855649D01*
X103719861Y-80665285D01*
X103811203Y-80457047D01*
X103867024Y-80236614D01*
X103885802Y-80010000D01*
X103867024Y-79783386D01*
X103834338Y-79654311D01*
X103811204Y-79562956D01*
X103811201Y-79562949D01*
X103807506Y-79554526D01*
X103719861Y-79354715D01*
X103598572Y-79169069D01*
X103595492Y-79164354D01*
X103595491Y-79164353D01*
X103595490Y-79164351D01*
X103441483Y-78997054D01*
X103279425Y-78870920D01*
X103237955Y-78813296D01*
X103234221Y-78742398D01*
X103269411Y-78680735D01*
X103287905Y-78666004D01*
X103289640Y-78664870D01*
X103475673Y-78520074D01*
X103635321Y-78346650D01*
X103764249Y-78149310D01*
X103858941Y-77933433D01*
X103916807Y-77704928D01*
X103919437Y-77673200D01*
X102904947Y-77673200D01*
X102923208Y-77641571D01*
X102953500Y-77528520D01*
X102953500Y-77411480D01*
X102923208Y-77298429D01*
X102904947Y-77266800D01*
X103919437Y-77266800D01*
X103916807Y-77235071D01*
X103858941Y-77006566D01*
X103764249Y-76790689D01*
X103635321Y-76593349D01*
X103475673Y-76419925D01*
X103289640Y-76275129D01*
X103287899Y-76273992D01*
X103287345Y-76273343D01*
X103285532Y-76271932D01*
X103285822Y-76271558D01*
X103241812Y-76219988D01*
X103232237Y-76149640D01*
X103262215Y-76085283D01*
X103279418Y-76069085D01*
X103441483Y-75942946D01*
X103595490Y-75775649D01*
X103719861Y-75585285D01*
X103811203Y-75377047D01*
X103867024Y-75156614D01*
X103885802Y-74930000D01*
X103867024Y-74703386D01*
X103811203Y-74482953D01*
X103719861Y-74274715D01*
X103595490Y-74084351D01*
X103441483Y-73917054D01*
X103262039Y-73777388D01*
X103262038Y-73777387D01*
X103257198Y-73774768D01*
X103249890Y-73770813D01*
X103199500Y-73720803D01*
X103184147Y-73651486D01*
X103208706Y-73584873D01*
X103249889Y-73549186D01*
X103262039Y-73542612D01*
X103441483Y-73402946D01*
X103595490Y-73235649D01*
X103719861Y-73045285D01*
X103811203Y-72837047D01*
X103867024Y-72616614D01*
X103885802Y-72390000D01*
X103867024Y-72163386D01*
X103811203Y-71942953D01*
X103719861Y-71734715D01*
X103595490Y-71544351D01*
X103441483Y-71377054D01*
X103262039Y-71237388D01*
X103262038Y-71237387D01*
X103257107Y-71234719D01*
X103249890Y-71230813D01*
X103199500Y-71180803D01*
X103184147Y-71111486D01*
X103208706Y-71044873D01*
X103249889Y-71009186D01*
X103262039Y-71002612D01*
X103441483Y-70862946D01*
X103595490Y-70695649D01*
X103719861Y-70505285D01*
X103811203Y-70297047D01*
X103834338Y-70205689D01*
X103864803Y-70085386D01*
X103900915Y-70024260D01*
X103964342Y-69992361D01*
X104034946Y-69999818D01*
G37*
G04 #@! TD.AperFunction*
G04 #@! TA.AperFunction,Conductor*
G36*
X142094792Y-84918429D02*
G01*
X142064500Y-85031480D01*
X142064500Y-85148520D01*
X142094792Y-85261571D01*
X142113053Y-85293200D01*
X140364947Y-85293200D01*
X140383208Y-85261571D01*
X140413500Y-85148520D01*
X140413500Y-85031480D01*
X140383208Y-84918429D01*
X140364947Y-84886800D01*
X142113053Y-84886800D01*
X142094792Y-84918429D01*
G37*
G04 #@! TD.AperFunction*
G04 #@! TA.AperFunction,Conductor*
G36*
X142712200Y-84694052D02*
G01*
X142680571Y-84675792D01*
X142567520Y-84645500D01*
X142450480Y-84645500D01*
X142337429Y-84675792D01*
X142305800Y-84694052D01*
X142305800Y-82945947D01*
X142337429Y-82964208D01*
X142450480Y-82994500D01*
X142567520Y-82994500D01*
X142680571Y-82964208D01*
X142712200Y-82945947D01*
X142712200Y-84694052D01*
G37*
G04 #@! TD.AperFunction*
G04 #@! TA.AperFunction,Conductor*
G36*
X141292182Y-83296516D02*
G01*
X141314440Y-83322203D01*
X141382678Y-83426650D01*
X141542326Y-83600074D01*
X141697136Y-83720568D01*
X141738607Y-83778194D01*
X141742341Y-83849092D01*
X141707151Y-83910754D01*
X141697136Y-83919432D01*
X141542326Y-84039925D01*
X141382680Y-84213347D01*
X141344483Y-84271813D01*
X141290479Y-84317901D01*
X141220131Y-84327476D01*
X141155774Y-84297498D01*
X141133517Y-84271813D01*
X141095319Y-84213347D01*
X140935673Y-84039925D01*
X140749640Y-83895129D01*
X140747899Y-83893992D01*
X140747345Y-83893343D01*
X140745532Y-83891932D01*
X140745822Y-83891558D01*
X140701812Y-83839988D01*
X140692237Y-83769640D01*
X140722215Y-83705283D01*
X140739418Y-83689085D01*
X140901483Y-83562946D01*
X141055490Y-83395649D01*
X141103475Y-83322202D01*
X141157476Y-83276115D01*
X141227824Y-83266539D01*
X141292182Y-83296516D01*
G37*
G04 #@! TD.AperFunction*
G04 #@! TA.AperFunction,Conductor*
G36*
X114441927Y-83679989D02*
G01*
X114473693Y-83688502D01*
X114497441Y-83698339D01*
X114525926Y-83714785D01*
X114546311Y-83730427D01*
X114569570Y-83753686D01*
X114585214Y-83774074D01*
X114601660Y-83802559D01*
X114611496Y-83826305D01*
X114620009Y-83858077D01*
X114623363Y-83883554D01*
X114623363Y-83916444D01*
X114620009Y-83941923D01*
X114611495Y-83973697D01*
X114604166Y-83991390D01*
X114601658Y-83997446D01*
X114585217Y-84025921D01*
X114569575Y-84046308D01*
X114546308Y-84069575D01*
X114525921Y-84085217D01*
X114497446Y-84101658D01*
X114493714Y-84103204D01*
X114473697Y-84111495D01*
X114441923Y-84120009D01*
X114416253Y-84123388D01*
X114389577Y-84123919D01*
X114389576Y-84123957D01*
X114389051Y-84123929D01*
X114388347Y-84123944D01*
X114387083Y-84123828D01*
X114387081Y-84123828D01*
X114383364Y-84123636D01*
X114329881Y-84120878D01*
X114290051Y-84121989D01*
X114249193Y-84125458D01*
X114135877Y-84161367D01*
X114072655Y-84193658D01*
X114072652Y-84193659D01*
X114072648Y-84193662D01*
X114000777Y-84242042D01*
X114000775Y-84242044D01*
X114000768Y-84242049D01*
X113994171Y-84248015D01*
X113930230Y-84278870D01*
X113859758Y-84270257D01*
X113805129Y-84224911D01*
X113791428Y-84198117D01*
X113789787Y-84193662D01*
X113730772Y-84033469D01*
X113725993Y-83962636D01*
X113760269Y-83900461D01*
X113822718Y-83866688D01*
X113859329Y-83864339D01*
X113921896Y-83869484D01*
X113929642Y-83870122D01*
X113929642Y-83870121D01*
X113929643Y-83870122D01*
X114046060Y-83846093D01*
X114112281Y-83820493D01*
X114201899Y-83770166D01*
X114260877Y-83724909D01*
X114274076Y-83714783D01*
X114302547Y-83698343D01*
X114326313Y-83688498D01*
X114358068Y-83679990D01*
X114383561Y-83676634D01*
X114416437Y-83676634D01*
X114441927Y-83679989D01*
G37*
G04 #@! TD.AperFunction*
G04 #@! TA.AperFunction,Conductor*
G36*
X142712200Y-82154052D02*
G01*
X142680571Y-82135792D01*
X142567520Y-82105500D01*
X142450480Y-82105500D01*
X142337429Y-82135792D01*
X142305800Y-82154052D01*
X142305800Y-80405947D01*
X142337429Y-80424208D01*
X142450480Y-80454500D01*
X142567520Y-80454500D01*
X142680571Y-80424208D01*
X142712200Y-80405947D01*
X142712200Y-82154052D01*
G37*
G04 #@! TD.AperFunction*
G04 #@! TA.AperFunction,Conductor*
G36*
X141292182Y-80756516D02*
G01*
X141314440Y-80782203D01*
X141382678Y-80886650D01*
X141542326Y-81060074D01*
X141697136Y-81180568D01*
X141738607Y-81238194D01*
X141742341Y-81309092D01*
X141707151Y-81370754D01*
X141697136Y-81379432D01*
X141542326Y-81499925D01*
X141382680Y-81673347D01*
X141314440Y-81777797D01*
X141260436Y-81823885D01*
X141190088Y-81833460D01*
X141125731Y-81803482D01*
X141103474Y-81777796D01*
X141055492Y-81704354D01*
X141055491Y-81704353D01*
X141055490Y-81704351D01*
X140901483Y-81537054D01*
X140722039Y-81397388D01*
X140722038Y-81397387D01*
X140717198Y-81394768D01*
X140709890Y-81390813D01*
X140659500Y-81340803D01*
X140644147Y-81271486D01*
X140668706Y-81204873D01*
X140709889Y-81169186D01*
X140722039Y-81162612D01*
X140901483Y-81022946D01*
X141055490Y-80855649D01*
X141103475Y-80782202D01*
X141157476Y-80736115D01*
X141227824Y-80726539D01*
X141292182Y-80756516D01*
G37*
G04 #@! TD.AperFunction*
G04 #@! TA.AperFunction,Conductor*
G36*
X113545088Y-80354661D02*
G01*
X113574089Y-80361809D01*
X113602490Y-80372580D01*
X113628937Y-80386460D01*
X113653936Y-80403716D01*
X113676298Y-80423527D01*
X113696440Y-80446262D01*
X113713404Y-80470838D01*
X113727522Y-80497738D01*
X113738114Y-80525669D01*
X113745382Y-80555156D01*
X113748983Y-80584809D01*
X113748984Y-80615185D01*
X113745384Y-80644837D01*
X113738114Y-80674330D01*
X113727523Y-80702257D01*
X113713405Y-80729157D01*
X113696435Y-80753741D01*
X113676294Y-80776475D01*
X113653935Y-80796283D01*
X113628939Y-80813537D01*
X113602492Y-80827418D01*
X113574092Y-80838189D01*
X113545086Y-80845338D01*
X113514935Y-80849000D01*
X113485065Y-80849000D01*
X113454913Y-80845338D01*
X113424892Y-80837938D01*
X113399275Y-80828583D01*
X113390971Y-80824483D01*
X113379795Y-80819304D01*
X113379670Y-80819246D01*
X113378262Y-80818597D01*
X113359566Y-80813537D01*
X113265669Y-80788123D01*
X113205139Y-80751018D01*
X113174279Y-80687080D01*
X113182886Y-80616607D01*
X113199942Y-80589945D01*
X113199128Y-80589329D01*
X113202272Y-80585176D01*
X113202275Y-80585174D01*
X113222267Y-80558771D01*
X113229688Y-80553280D01*
X113252994Y-80519515D01*
X113252995Y-80519516D01*
X113261745Y-80506838D01*
X113264977Y-80502370D01*
X113265331Y-80501901D01*
X113266188Y-80500401D01*
X113303563Y-80446254D01*
X113323696Y-80423529D01*
X113346065Y-80403712D01*
X113371059Y-80386461D01*
X113380569Y-80381470D01*
X113397509Y-80372578D01*
X113425906Y-80361809D01*
X113454914Y-80354660D01*
X113485063Y-80351000D01*
X113514935Y-80351000D01*
X113545088Y-80354661D01*
G37*
G04 #@! TD.AperFunction*
G04 #@! TA.AperFunction,Conductor*
G36*
X142712200Y-79614052D02*
G01*
X142680571Y-79595792D01*
X142567520Y-79565500D01*
X142450480Y-79565500D01*
X142337429Y-79595792D01*
X142305800Y-79614052D01*
X142305800Y-77865947D01*
X142337429Y-77884208D01*
X142450480Y-77914500D01*
X142567520Y-77914500D01*
X142680571Y-77884208D01*
X142712200Y-77865947D01*
X142712200Y-79614052D01*
G37*
G04 #@! TD.AperFunction*
G04 #@! TA.AperFunction,Conductor*
G36*
X101292182Y-78216516D02*
G01*
X101314440Y-78242203D01*
X101382678Y-78346650D01*
X101542326Y-78520074D01*
X101728361Y-78664871D01*
X101730102Y-78666009D01*
X101730654Y-78666656D01*
X101732468Y-78668068D01*
X101732177Y-78668441D01*
X101776188Y-78720015D01*
X101785760Y-78790363D01*
X101755780Y-78854719D01*
X101738573Y-78870921D01*
X101576514Y-78997056D01*
X101422509Y-79164351D01*
X101344483Y-79283780D01*
X101290479Y-79329868D01*
X101220131Y-79339443D01*
X101155774Y-79309465D01*
X101133517Y-79283780D01*
X101055490Y-79164351D01*
X100901485Y-78997056D01*
X100901484Y-78997055D01*
X100901483Y-78997054D01*
X100722039Y-78857388D01*
X100722038Y-78857387D01*
X100717107Y-78854719D01*
X100709890Y-78850813D01*
X100659500Y-78800803D01*
X100644147Y-78731486D01*
X100668706Y-78664873D01*
X100709889Y-78629186D01*
X100722039Y-78622612D01*
X100901483Y-78482946D01*
X101055490Y-78315649D01*
X101103475Y-78242202D01*
X101157476Y-78196115D01*
X101227824Y-78186539D01*
X101292182Y-78216516D01*
G37*
G04 #@! TD.AperFunction*
G04 #@! TA.AperFunction,Conductor*
G36*
X141292182Y-78216516D02*
G01*
X141314440Y-78242203D01*
X141382678Y-78346650D01*
X141542326Y-78520074D01*
X141697136Y-78640568D01*
X141738607Y-78698194D01*
X141742341Y-78769092D01*
X141707151Y-78830754D01*
X141697136Y-78839432D01*
X141542326Y-78959925D01*
X141382680Y-79133347D01*
X141314440Y-79237797D01*
X141260436Y-79283885D01*
X141190088Y-79293460D01*
X141125731Y-79263482D01*
X141103474Y-79237796D01*
X141055492Y-79164354D01*
X141055491Y-79164353D01*
X141055490Y-79164351D01*
X140901483Y-78997054D01*
X140722039Y-78857388D01*
X140722038Y-78857387D01*
X140717107Y-78854719D01*
X140709890Y-78850813D01*
X140659500Y-78800803D01*
X140644147Y-78731486D01*
X140668706Y-78664873D01*
X140709889Y-78629186D01*
X140722039Y-78622612D01*
X140901483Y-78482946D01*
X141055490Y-78315649D01*
X141103475Y-78242202D01*
X141157476Y-78196115D01*
X141227824Y-78186539D01*
X141292182Y-78216516D01*
G37*
G04 #@! TD.AperFunction*
G04 #@! TA.AperFunction,Conductor*
G36*
X142712200Y-77074052D02*
G01*
X142680571Y-77055792D01*
X142567520Y-77025500D01*
X142450480Y-77025500D01*
X142337429Y-77055792D01*
X142305800Y-77074052D01*
X142305800Y-75325947D01*
X142337429Y-75344208D01*
X142450480Y-75374500D01*
X142567520Y-75374500D01*
X142680571Y-75344208D01*
X142712200Y-75325947D01*
X142712200Y-77074052D01*
G37*
G04 #@! TD.AperFunction*
G04 #@! TA.AperFunction,Conductor*
G36*
X141292182Y-75676516D02*
G01*
X141314440Y-75702203D01*
X141382678Y-75806650D01*
X141542326Y-75980074D01*
X141697136Y-76100568D01*
X141738607Y-76158194D01*
X141742341Y-76229092D01*
X141707151Y-76290754D01*
X141697136Y-76299432D01*
X141542326Y-76419925D01*
X141382680Y-76593347D01*
X141314440Y-76697797D01*
X141260436Y-76743885D01*
X141190088Y-76753460D01*
X141125731Y-76723482D01*
X141103474Y-76697796D01*
X141055492Y-76624354D01*
X141055491Y-76624353D01*
X141055490Y-76624351D01*
X140901483Y-76457054D01*
X140722039Y-76317388D01*
X140722038Y-76317387D01*
X140717198Y-76314768D01*
X140709890Y-76310813D01*
X140659500Y-76260803D01*
X140644147Y-76191486D01*
X140668706Y-76124873D01*
X140709889Y-76089186D01*
X140722039Y-76082612D01*
X140901483Y-75942946D01*
X141055490Y-75775649D01*
X141103475Y-75702202D01*
X141157476Y-75656115D01*
X141227824Y-75646539D01*
X141292182Y-75676516D01*
G37*
G04 #@! TD.AperFunction*
G04 #@! TA.AperFunction,Conductor*
G36*
X142712200Y-74534052D02*
G01*
X142680571Y-74515792D01*
X142567520Y-74485500D01*
X142450480Y-74485500D01*
X142337429Y-74515792D01*
X142305800Y-74534052D01*
X142305800Y-72785947D01*
X142337429Y-72804208D01*
X142450480Y-72834500D01*
X142567520Y-72834500D01*
X142680571Y-72804208D01*
X142712200Y-72785947D01*
X142712200Y-74534052D01*
G37*
G04 #@! TD.AperFunction*
G04 #@! TA.AperFunction,Conductor*
G36*
X141292182Y-73136516D02*
G01*
X141314440Y-73162203D01*
X141382678Y-73266650D01*
X141542326Y-73440074D01*
X141697136Y-73560568D01*
X141738607Y-73618194D01*
X141742341Y-73689092D01*
X141707151Y-73750754D01*
X141697136Y-73759432D01*
X141542326Y-73879925D01*
X141382680Y-74053347D01*
X141314440Y-74157797D01*
X141260436Y-74203885D01*
X141190088Y-74213460D01*
X141125731Y-74183482D01*
X141103474Y-74157796D01*
X141055492Y-74084354D01*
X141055491Y-74084353D01*
X141055490Y-74084351D01*
X140901483Y-73917054D01*
X140722039Y-73777388D01*
X140722038Y-73777387D01*
X140717198Y-73774768D01*
X140709890Y-73770813D01*
X140659500Y-73720803D01*
X140644147Y-73651486D01*
X140668706Y-73584873D01*
X140709889Y-73549186D01*
X140722039Y-73542612D01*
X140901483Y-73402946D01*
X141055490Y-73235649D01*
X141103475Y-73162202D01*
X141157476Y-73116115D01*
X141227824Y-73106539D01*
X141292182Y-73136516D01*
G37*
G04 #@! TD.AperFunction*
G04 #@! TA.AperFunction,Conductor*
G36*
X142712200Y-71994052D02*
G01*
X142680571Y-71975792D01*
X142567520Y-71945500D01*
X142450480Y-71945500D01*
X142337429Y-71975792D01*
X142305800Y-71994052D01*
X142305800Y-70245947D01*
X142337429Y-70264208D01*
X142450480Y-70294500D01*
X142567520Y-70294500D01*
X142680571Y-70264208D01*
X142712200Y-70245947D01*
X142712200Y-71994052D01*
G37*
G04 #@! TD.AperFunction*
G04 #@! TA.AperFunction,Conductor*
G36*
X101352267Y-70596516D02*
G01*
X101374525Y-70622203D01*
X101422510Y-70695649D01*
X101576517Y-70862946D01*
X101755961Y-71002612D01*
X101755963Y-71002613D01*
X101755966Y-71002615D01*
X101768110Y-71009187D01*
X101818500Y-71059200D01*
X101833852Y-71128517D01*
X101809291Y-71195130D01*
X101768110Y-71230813D01*
X101755966Y-71237384D01*
X101755960Y-71237388D01*
X101576514Y-71377056D01*
X101422509Y-71544351D01*
X101344483Y-71663780D01*
X101290479Y-71709868D01*
X101220131Y-71719443D01*
X101155774Y-71689465D01*
X101133517Y-71663780D01*
X101055490Y-71544351D01*
X100901485Y-71377056D01*
X100901484Y-71377055D01*
X100901483Y-71377054D01*
X100739425Y-71250920D01*
X100697955Y-71193296D01*
X100694221Y-71122398D01*
X100729411Y-71060735D01*
X100747905Y-71046004D01*
X100749640Y-71044870D01*
X100935673Y-70900074D01*
X101095321Y-70726650D01*
X101163559Y-70622203D01*
X101217562Y-70576115D01*
X101287910Y-70566539D01*
X101352267Y-70596516D01*
G37*
G04 #@! TD.AperFunction*
G04 #@! TA.AperFunction,Conductor*
G36*
X141292182Y-70596516D02*
G01*
X141314440Y-70622203D01*
X141382678Y-70726650D01*
X141542326Y-70900074D01*
X141697136Y-71020568D01*
X141738607Y-71078194D01*
X141742341Y-71149092D01*
X141707151Y-71210754D01*
X141697136Y-71219432D01*
X141542326Y-71339925D01*
X141382680Y-71513347D01*
X141314440Y-71617797D01*
X141260436Y-71663885D01*
X141190088Y-71673460D01*
X141125731Y-71643482D01*
X141103474Y-71617796D01*
X141055492Y-71544354D01*
X141055491Y-71544353D01*
X141055490Y-71544351D01*
X140901483Y-71377054D01*
X140722039Y-71237388D01*
X140722038Y-71237387D01*
X140717107Y-71234719D01*
X140709890Y-71230813D01*
X140659500Y-71180803D01*
X140644147Y-71111486D01*
X140668706Y-71044873D01*
X140709889Y-71009186D01*
X140722039Y-71002612D01*
X140901483Y-70862946D01*
X141055490Y-70695649D01*
X141103475Y-70622202D01*
X141157476Y-70576115D01*
X141227824Y-70566539D01*
X141292182Y-70596516D01*
G37*
G04 #@! TD.AperFunction*
G04 #@! TA.AperFunction,Conductor*
G36*
X140172200Y-66914052D02*
G01*
X140140571Y-66895792D01*
X140027520Y-66865500D01*
X139910480Y-66865500D01*
X139797429Y-66895792D01*
X139765800Y-66914052D01*
X139765800Y-65165947D01*
X139797429Y-65184208D01*
X139910480Y-65214500D01*
X140027520Y-65214500D01*
X140140571Y-65184208D01*
X140172200Y-65165947D01*
X140172200Y-66914052D01*
G37*
G04 #@! TD.AperFunction*
G04 #@! TA.AperFunction,Conductor*
G36*
X101725436Y-63428502D02*
G01*
X101771929Y-63482158D01*
X101782033Y-63552432D01*
X101752539Y-63617012D01*
X101734705Y-63633932D01*
X101576516Y-63757054D01*
X101422509Y-63924352D01*
X101374525Y-63997797D01*
X101320521Y-64043885D01*
X101250173Y-64053460D01*
X101185816Y-64023482D01*
X101163559Y-63997796D01*
X101095321Y-63893349D01*
X100935673Y-63719925D01*
X100825189Y-63633932D01*
X100783718Y-63576307D01*
X100779984Y-63505408D01*
X100815174Y-63443746D01*
X100878115Y-63410898D01*
X100902580Y-63408500D01*
X101657315Y-63408500D01*
X101725436Y-63428502D01*
G37*
G04 #@! TD.AperFunction*
G04 #@! TD*
G04 #@! TA.AperFunction,Conductor*
G04 #@! TO.N,+1V1*
G36*
X115356030Y-69820002D02*
G01*
X115402523Y-69873658D01*
X115413052Y-69911328D01*
X117103568Y-84330437D01*
X117092152Y-84397384D01*
X117092427Y-84397498D01*
X117091927Y-84398704D01*
X117091634Y-84400424D01*
X117089741Y-84403980D01*
X117030349Y-84547364D01*
X117010255Y-84699999D01*
X117010255Y-84700000D01*
X117030349Y-84852635D01*
X117030350Y-84852637D01*
X117089266Y-84994873D01*
X117182987Y-85117013D01*
X117305127Y-85210734D01*
X117447363Y-85269650D01*
X117600000Y-85289745D01*
X117752637Y-85269650D01*
X117894873Y-85210734D01*
X117923297Y-85188923D01*
X117989515Y-85163323D01*
X118059064Y-85177587D01*
X118076697Y-85188918D01*
X118105127Y-85210734D01*
X118247363Y-85269650D01*
X118400000Y-85289745D01*
X118552637Y-85269650D01*
X118694873Y-85210734D01*
X118723297Y-85188923D01*
X118789515Y-85163323D01*
X118859064Y-85177587D01*
X118876697Y-85188918D01*
X118905127Y-85210734D01*
X119047363Y-85269650D01*
X119200000Y-85289745D01*
X119352637Y-85269650D01*
X119494873Y-85210734D01*
X119523297Y-85188923D01*
X119589515Y-85163323D01*
X119659064Y-85177587D01*
X119676697Y-85188918D01*
X119705127Y-85210734D01*
X119847363Y-85269650D01*
X120000000Y-85289745D01*
X120152637Y-85269650D01*
X120294873Y-85210734D01*
X120323297Y-85188923D01*
X120389515Y-85163323D01*
X120459064Y-85177587D01*
X120476697Y-85188918D01*
X120505127Y-85210734D01*
X120647363Y-85269650D01*
X120800000Y-85289745D01*
X120879333Y-85279300D01*
X120949478Y-85290239D01*
X121002577Y-85337366D01*
X121021768Y-85405720D01*
X121020699Y-85420668D01*
X121010255Y-85499999D01*
X121010255Y-85500000D01*
X121030349Y-85652635D01*
X121086944Y-85789266D01*
X121089266Y-85794873D01*
X121182987Y-85917013D01*
X121305127Y-86010734D01*
X121447363Y-86069650D01*
X121600000Y-86089745D01*
X121752637Y-86069650D01*
X121823714Y-86040208D01*
X121894301Y-86032619D01*
X121957789Y-86064397D01*
X121961026Y-86067522D01*
X122098686Y-86205182D01*
X122132712Y-86267494D01*
X122135571Y-86292027D01*
X122139261Y-86498672D01*
X122120478Y-86567139D01*
X122089985Y-86600885D01*
X121982985Y-86682988D01*
X121889270Y-86805121D01*
X121889265Y-86805129D01*
X121830349Y-86947364D01*
X121810255Y-87099999D01*
X121810255Y-87100000D01*
X121830350Y-87252637D01*
X121889264Y-87394871D01*
X121911076Y-87423297D01*
X121936676Y-87489517D01*
X121922411Y-87559066D01*
X121911078Y-87576701D01*
X121889267Y-87605126D01*
X121889265Y-87605130D01*
X121830349Y-87747364D01*
X121810255Y-87899999D01*
X121810255Y-87900000D01*
X121830350Y-88052637D01*
X121889264Y-88194871D01*
X121911076Y-88223297D01*
X121936676Y-88289517D01*
X121922411Y-88359066D01*
X121911078Y-88376701D01*
X121889267Y-88405126D01*
X121889265Y-88405130D01*
X121830349Y-88547364D01*
X121810255Y-88699999D01*
X121810255Y-88700000D01*
X121830349Y-88852635D01*
X121886944Y-88989266D01*
X121889266Y-88994873D01*
X121939749Y-89060664D01*
X121965349Y-89126883D01*
X121951084Y-89196432D01*
X121928882Y-89226462D01*
X121453151Y-89702195D01*
X121390838Y-89736220D01*
X121364055Y-89739100D01*
X120425944Y-89739100D01*
X120357823Y-89719098D01*
X120336848Y-89702195D01*
X119992353Y-89357700D01*
X119621299Y-88986645D01*
X119599800Y-88972280D01*
X119513054Y-88914318D01*
X119392782Y-88864500D01*
X119392777Y-88864498D01*
X119265095Y-88839100D01*
X119265093Y-88839100D01*
X118334907Y-88839100D01*
X118334904Y-88839100D01*
X118207222Y-88864498D01*
X118207217Y-88864500D01*
X118086945Y-88914318D01*
X118086941Y-88914320D01*
X118000198Y-88972280D01*
X117932445Y-88993495D01*
X117881980Y-88983924D01*
X117752637Y-88930350D01*
X117600000Y-88910255D01*
X117447364Y-88930349D01*
X117305129Y-88989265D01*
X117305121Y-88989270D01*
X117182986Y-89082986D01*
X117089270Y-89205121D01*
X117089265Y-89205129D01*
X117030349Y-89347364D01*
X117010255Y-89499999D01*
X117010255Y-89500000D01*
X117030349Y-89652635D01*
X117060648Y-89725782D01*
X117068237Y-89796372D01*
X117036458Y-89859859D01*
X116975399Y-89896086D01*
X116944239Y-89900000D01*
X116599476Y-89900000D01*
X116531355Y-89879998D01*
X116510380Y-89863095D01*
X116443657Y-89796372D01*
X115736366Y-89089080D01*
X115706239Y-89040749D01*
X115042734Y-87099999D01*
X117010255Y-87099999D01*
X117010255Y-87100000D01*
X117030350Y-87252637D01*
X117089264Y-87394871D01*
X117111076Y-87423297D01*
X117136676Y-87489517D01*
X117122411Y-87559066D01*
X117111078Y-87576701D01*
X117089267Y-87605126D01*
X117089265Y-87605130D01*
X117030349Y-87747364D01*
X117010255Y-87899999D01*
X117010255Y-87900000D01*
X117030349Y-88052635D01*
X117030350Y-88052637D01*
X117089266Y-88194873D01*
X117182987Y-88317013D01*
X117305127Y-88410734D01*
X117447363Y-88469650D01*
X117600000Y-88489745D01*
X117752637Y-88469650D01*
X117894873Y-88410734D01*
X117923297Y-88388923D01*
X117989515Y-88363323D01*
X118059064Y-88377587D01*
X118076697Y-88388918D01*
X118105127Y-88410734D01*
X118247363Y-88469650D01*
X118400000Y-88489745D01*
X118552637Y-88469650D01*
X118694873Y-88410734D01*
X118817013Y-88317013D01*
X118910734Y-88194873D01*
X118969650Y-88052637D01*
X118989745Y-87900000D01*
X118979300Y-87820665D01*
X118990239Y-87750521D01*
X119037366Y-87697422D01*
X119105720Y-87678231D01*
X119120654Y-87679298D01*
X119200000Y-87689745D01*
X119279333Y-87679300D01*
X119349478Y-87690239D01*
X119402577Y-87737366D01*
X119421768Y-87805720D01*
X119420699Y-87820668D01*
X119410255Y-87899999D01*
X119410255Y-87900000D01*
X119430349Y-88052635D01*
X119430350Y-88052637D01*
X119489266Y-88194873D01*
X119582987Y-88317013D01*
X119705127Y-88410734D01*
X119847363Y-88469650D01*
X120000000Y-88489745D01*
X120152637Y-88469650D01*
X120294873Y-88410734D01*
X120323297Y-88388923D01*
X120389515Y-88363323D01*
X120459064Y-88377587D01*
X120476697Y-88388918D01*
X120505127Y-88410734D01*
X120647363Y-88469650D01*
X120800000Y-88489745D01*
X120952637Y-88469650D01*
X121094873Y-88410734D01*
X121217013Y-88317013D01*
X121310734Y-88194873D01*
X121369650Y-88052637D01*
X121389745Y-87900000D01*
X121369650Y-87747363D01*
X121310734Y-87605128D01*
X121288922Y-87576702D01*
X121263323Y-87510484D01*
X121277588Y-87440935D01*
X121288923Y-87423297D01*
X121310734Y-87394873D01*
X121369650Y-87252637D01*
X121389745Y-87100000D01*
X121369650Y-86947363D01*
X121310734Y-86805128D01*
X121217013Y-86682987D01*
X121094873Y-86589266D01*
X121094869Y-86589264D01*
X120952635Y-86530349D01*
X120800000Y-86510255D01*
X120720668Y-86520699D01*
X120650519Y-86509760D01*
X120597421Y-86462631D01*
X120578231Y-86394277D01*
X120579298Y-86379348D01*
X120589745Y-86300000D01*
X120569650Y-86147363D01*
X120510734Y-86005128D01*
X120417013Y-85882987D01*
X120294873Y-85789266D01*
X120152637Y-85730350D01*
X120152635Y-85730349D01*
X120000000Y-85710255D01*
X119847364Y-85730349D01*
X119705129Y-85789265D01*
X119705121Y-85789270D01*
X119582986Y-85882986D01*
X119489270Y-86005121D01*
X119489265Y-86005129D01*
X119430349Y-86147364D01*
X119410255Y-86299999D01*
X119410255Y-86300000D01*
X119420699Y-86379331D01*
X119409760Y-86449480D01*
X119362631Y-86502578D01*
X119294278Y-86521768D01*
X119279331Y-86520699D01*
X119200000Y-86510255D01*
X119047364Y-86530349D01*
X118905130Y-86589265D01*
X118905126Y-86589267D01*
X118876701Y-86611078D01*
X118810480Y-86636676D01*
X118740931Y-86622409D01*
X118723297Y-86611076D01*
X118694871Y-86589264D01*
X118552637Y-86530350D01*
X118400000Y-86510255D01*
X118247364Y-86530349D01*
X118105130Y-86589265D01*
X118105126Y-86589267D01*
X118076701Y-86611078D01*
X118010480Y-86636676D01*
X117940931Y-86622409D01*
X117923297Y-86611076D01*
X117894871Y-86589264D01*
X117752637Y-86530350D01*
X117600000Y-86510255D01*
X117447364Y-86530349D01*
X117305129Y-86589265D01*
X117305121Y-86589270D01*
X117182986Y-86682986D01*
X117089270Y-86805121D01*
X117089265Y-86805129D01*
X117030349Y-86947364D01*
X117010255Y-87099999D01*
X115042734Y-87099999D01*
X114204279Y-84647518D01*
X114201170Y-84576593D01*
X114236900Y-84515243D01*
X114300127Y-84482949D01*
X114339948Y-84481839D01*
X114400000Y-84489745D01*
X114552637Y-84469650D01*
X114694873Y-84410734D01*
X114817013Y-84317013D01*
X114910734Y-84194873D01*
X114969650Y-84052637D01*
X114989745Y-83900000D01*
X114969650Y-83747363D01*
X114910734Y-83605128D01*
X114817013Y-83482987D01*
X114694873Y-83389266D01*
X114552637Y-83330350D01*
X114552635Y-83330349D01*
X114400000Y-83310255D01*
X114247364Y-83330349D01*
X114105129Y-83389265D01*
X114105121Y-83389270D01*
X113982076Y-83483685D01*
X113915855Y-83509285D01*
X113846307Y-83495020D01*
X113795511Y-83445418D01*
X113786148Y-83424483D01*
X113747096Y-83310255D01*
X113061343Y-81304430D01*
X113058234Y-81233504D01*
X113093964Y-81172154D01*
X113157191Y-81139860D01*
X113227840Y-81146875D01*
X113239117Y-81152101D01*
X113282067Y-81174643D01*
X113425920Y-81210100D01*
X113425921Y-81210100D01*
X113574079Y-81210100D01*
X113574080Y-81210100D01*
X113717933Y-81174643D01*
X113849122Y-81105790D01*
X113960020Y-81007543D01*
X114044184Y-80885610D01*
X114096722Y-80747079D01*
X114114581Y-80600000D01*
X114096722Y-80452921D01*
X114044184Y-80314390D01*
X114044182Y-80314387D01*
X114044182Y-80314386D01*
X113960021Y-80192458D01*
X113849121Y-80094209D01*
X113849117Y-80094207D01*
X113717931Y-80025356D01*
X113574081Y-79989900D01*
X113574080Y-79989900D01*
X113425920Y-79989900D01*
X113425918Y-79989900D01*
X113282068Y-80025356D01*
X113150882Y-80094207D01*
X113150878Y-80094209D01*
X113039978Y-80192458D01*
X112955816Y-80314387D01*
X112952277Y-80321133D01*
X112950125Y-80320003D01*
X112914399Y-80367182D01*
X112847743Y-80391624D01*
X112778453Y-80376149D01*
X112728530Y-80325669D01*
X112720225Y-80306658D01*
X112006775Y-78219816D01*
X112000000Y-78179055D01*
X112000000Y-69926000D01*
X112020002Y-69857879D01*
X112073658Y-69811386D01*
X112126000Y-69800000D01*
X115287909Y-69800000D01*
X115356030Y-69820002D01*
G37*
G04 #@! TD.AperFunction*
G04 #@! TD*
M02*
