%TF.GenerationSoftware,KiCad,Pcbnew,8.0.6*%
%TF.CreationDate,2025-10-07T20:56:46+05:30*%
%TF.ProjectId,tt-ecp5-cb,74742d65-6370-4352-9d63-622e6b696361,rev?*%
%TF.SameCoordinates,Original*%
%TF.FileFunction,Drillmap*%
%TF.FilePolarity,Positive*%
%FSLAX45Y45*%
G04 Gerber Fmt 4.5, Leading zero omitted, Abs format (unit mm)*
G04 Created by KiCad (PCBNEW 8.0.6) date 2025-10-07 20:56:46*
%MOMM*%
%LPD*%
G01*
G04 APERTURE LIST*
%ADD10C,0.180000*%
%ADD11C,0.200000*%
%ADD12C,0.100000*%
G04 APERTURE END LIST*
D10*
X9623900Y-11290000D02*
X9623900Y-6490000D01*
X9823900Y-6290000D02*
X14423900Y-6290000D01*
X11723900Y-11490000D02*
X9823900Y-11490000D01*
X11823900Y-11390000D02*
X11823900Y-11290000D01*
X11923900Y-11190000D02*
X12323900Y-11190000D01*
X12423900Y-11290000D02*
X12423900Y-11390000D01*
X14423900Y-11490000D02*
X12523900Y-11490000D01*
X14623900Y-6490000D02*
X14623900Y-11290000D01*
X9623900Y-6490000D02*
G75*
G02*
X9823900Y-6290000I200000J0D01*
G01*
X9823900Y-11490000D02*
G75*
G02*
X9623900Y-11290000I0J200000D01*
G01*
X11823900Y-11290000D02*
G75*
G02*
X11923900Y-11190000I100000J0D01*
G01*
X11823900Y-11390000D02*
G75*
G02*
X11723900Y-11490000I-100000J0D01*
G01*
X12323900Y-11190000D02*
G75*
G02*
X12423900Y-11290000I0J-100000D01*
G01*
X12523900Y-11490000D02*
G75*
G02*
X12423900Y-11390000I0J100000D01*
G01*
X14423900Y-6290000D02*
G75*
G02*
X14623900Y-6490000I0J-200000D01*
G01*
X14623900Y-11290000D02*
G75*
G02*
X14423900Y-11490000I-200000J0D01*
G01*
D11*
D12*
X10544760Y-10524760D02*
X10575240Y-10555240D01*
X10575240Y-10524760D02*
X10544760Y-10555240D01*
X11234760Y-8654760D02*
X11265240Y-8685240D01*
X11265240Y-8654760D02*
X11234760Y-8685240D01*
X11325860Y-6449060D02*
X11356340Y-6479540D01*
X11356340Y-6449060D02*
X11325860Y-6479540D01*
X11334760Y-8044760D02*
X11365240Y-8075240D01*
X11365240Y-8044760D02*
X11334760Y-8075240D01*
X11414760Y-10335260D02*
X11445240Y-10365740D01*
X11445240Y-10335260D02*
X11414760Y-10365740D01*
X11424760Y-8374760D02*
X11455240Y-8405240D01*
X11455240Y-8374760D02*
X11424760Y-8405240D01*
X11424760Y-9094760D02*
X11455240Y-9125240D01*
X11455240Y-9094760D02*
X11424760Y-9125240D01*
X11424760Y-9254760D02*
X11455240Y-9285240D01*
X11455240Y-9254760D02*
X11424760Y-9285240D01*
X11452860Y-9878060D02*
X11483340Y-9908540D01*
X11483340Y-9878060D02*
X11452860Y-9908540D01*
X11554760Y-9444760D02*
X11585240Y-9475240D01*
X11585240Y-9444760D02*
X11554760Y-9475240D01*
X11664760Y-9254760D02*
X11695240Y-9285240D01*
X11695240Y-9254760D02*
X11664760Y-9285240D01*
X11719560Y-10259060D02*
X11750040Y-10289540D01*
X11750040Y-10259060D02*
X11719560Y-10289540D01*
X11744760Y-8454760D02*
X11775240Y-8485240D01*
X11775240Y-8454760D02*
X11744760Y-8485240D01*
X11744760Y-8534760D02*
X11775240Y-8565240D01*
X11775240Y-8534760D02*
X11744760Y-8565240D01*
X11744760Y-8614760D02*
X11775240Y-8645240D01*
X11775240Y-8614760D02*
X11744760Y-8645240D01*
X11744760Y-8694760D02*
X11775240Y-8725240D01*
X11775240Y-8694760D02*
X11744760Y-8725240D01*
X11744760Y-8774760D02*
X11775240Y-8805240D01*
X11775240Y-8774760D02*
X11744760Y-8805240D01*
X11744760Y-8934760D02*
X11775240Y-8965240D01*
X11775240Y-8934760D02*
X11744760Y-8965240D01*
X11824760Y-8454760D02*
X11855240Y-8485240D01*
X11855240Y-8454760D02*
X11824760Y-8485240D01*
X11824760Y-8534760D02*
X11855240Y-8565240D01*
X11855240Y-8534760D02*
X11824760Y-8565240D01*
X11824760Y-8614760D02*
X11855240Y-8645240D01*
X11855240Y-8614760D02*
X11824760Y-8645240D01*
X11824760Y-8694760D02*
X11855240Y-8725240D01*
X11855240Y-8694760D02*
X11824760Y-8725240D01*
X11824760Y-8774760D02*
X11855240Y-8805240D01*
X11855240Y-8774760D02*
X11824760Y-8805240D01*
X11824760Y-8934760D02*
X11855240Y-8965240D01*
X11855240Y-8934760D02*
X11824760Y-8965240D01*
X11824760Y-9334760D02*
X11855240Y-9365240D01*
X11855240Y-9334760D02*
X11824760Y-9365240D01*
X11904760Y-8454760D02*
X11935240Y-8485240D01*
X11935240Y-8454760D02*
X11904760Y-8485240D01*
X11904760Y-8534760D02*
X11935240Y-8565240D01*
X11935240Y-8534760D02*
X11904760Y-8565240D01*
X11904760Y-8694760D02*
X11935240Y-8725240D01*
X11935240Y-8694760D02*
X11904760Y-8725240D01*
X11904760Y-8854760D02*
X11935240Y-8885240D01*
X11935240Y-8854760D02*
X11904760Y-8885240D01*
X11904760Y-8934760D02*
X11935240Y-8965240D01*
X11935240Y-8934760D02*
X11904760Y-8965240D01*
X11922760Y-6499860D02*
X11953240Y-6530340D01*
X11953240Y-6499860D02*
X11922760Y-6530340D01*
X11922760Y-9827260D02*
X11953240Y-9857740D01*
X11953240Y-9827260D02*
X11922760Y-9857740D01*
X11927840Y-9484360D02*
X11958320Y-9514840D01*
X11958320Y-9484360D02*
X11927840Y-9514840D01*
X11984679Y-9095001D02*
X12015159Y-9125481D01*
X12015159Y-9095001D02*
X11984679Y-9125481D01*
X11984760Y-8454760D02*
X12015240Y-8485240D01*
X12015240Y-8454760D02*
X11984760Y-8485240D01*
X11984760Y-8534760D02*
X12015240Y-8565240D01*
X12015240Y-8534760D02*
X11984760Y-8565240D01*
X11984760Y-8614760D02*
X12015240Y-8645240D01*
X12015240Y-8614760D02*
X11984760Y-8645240D01*
X11984760Y-8694760D02*
X12015240Y-8725240D01*
X12015240Y-8694760D02*
X11984760Y-8725240D01*
X11984760Y-8774760D02*
X12015240Y-8805240D01*
X12015240Y-8774760D02*
X11984760Y-8805240D01*
X11984760Y-8854760D02*
X12015240Y-8885240D01*
X12015240Y-8854760D02*
X11984760Y-8885240D01*
X11984760Y-9174760D02*
X12015240Y-9205240D01*
X12015240Y-9174760D02*
X11984760Y-9205240D01*
X11984760Y-9254760D02*
X12015240Y-9285240D01*
X12015240Y-9254760D02*
X11984760Y-9285240D01*
X12034760Y-9444760D02*
X12065240Y-9475240D01*
X12065240Y-9444760D02*
X12034760Y-9475240D01*
X12064760Y-8454760D02*
X12095240Y-8485240D01*
X12095240Y-8454760D02*
X12064760Y-8485240D01*
X12064760Y-8694760D02*
X12095240Y-8725240D01*
X12095240Y-8694760D02*
X12064760Y-8725240D01*
X12064760Y-8774760D02*
X12095240Y-8805240D01*
X12095240Y-8774760D02*
X12064760Y-8805240D01*
X12064760Y-8854760D02*
X12095240Y-8885240D01*
X12095240Y-8854760D02*
X12064760Y-8885240D01*
X12064760Y-8934760D02*
X12095240Y-8965240D01*
X12095240Y-8934760D02*
X12064760Y-8965240D01*
X12064760Y-9094760D02*
X12095240Y-9125240D01*
X12095240Y-9094760D02*
X12064760Y-9125240D01*
X12084760Y-9489440D02*
X12115240Y-9519920D01*
X12115240Y-9489440D02*
X12084760Y-9519920D01*
X12134760Y-9364760D02*
X12165240Y-9395240D01*
X12165240Y-9364760D02*
X12134760Y-9395240D01*
X12144760Y-8454760D02*
X12175240Y-8485240D01*
X12175240Y-8454760D02*
X12144760Y-8485240D01*
X12144760Y-8534760D02*
X12175240Y-8565240D01*
X12175240Y-8534760D02*
X12144760Y-8565240D01*
X12144760Y-8854760D02*
X12175240Y-8885240D01*
X12175240Y-8854760D02*
X12144760Y-8885240D01*
X12144760Y-9174760D02*
X12175240Y-9205240D01*
X12175240Y-9174760D02*
X12144760Y-9205240D01*
X12224760Y-8454760D02*
X12255240Y-8485240D01*
X12255240Y-8454760D02*
X12224760Y-8485240D01*
X12224760Y-8534760D02*
X12255240Y-8565240D01*
X12255240Y-8534760D02*
X12224760Y-8565240D01*
X12224760Y-8694760D02*
X12255240Y-8725240D01*
X12255240Y-8694760D02*
X12224760Y-8725240D01*
X12224760Y-8774760D02*
X12255240Y-8805240D01*
X12255240Y-8774760D02*
X12224760Y-8805240D01*
X12224760Y-8854760D02*
X12255240Y-8885240D01*
X12255240Y-8854760D02*
X12224760Y-8885240D01*
X12224760Y-9254760D02*
X12255240Y-9285240D01*
X12255240Y-9254760D02*
X12224760Y-9285240D01*
X12252960Y-9827260D02*
X12283440Y-9857740D01*
X12283440Y-9827260D02*
X12252960Y-9857740D01*
X12304760Y-9014760D02*
X12335240Y-9045240D01*
X12335240Y-9014760D02*
X12304760Y-9045240D01*
X12354760Y-9554760D02*
X12385240Y-9585240D01*
X12385240Y-9554760D02*
X12354760Y-9585240D01*
X12383596Y-9712960D02*
X12414076Y-9743440D01*
X12414076Y-9712960D02*
X12383596Y-9743440D01*
X12446000Y-9631680D02*
X12476480Y-9662160D01*
X12476480Y-9631680D02*
X12446000Y-9662160D01*
X12464760Y-9014760D02*
X12495240Y-9045240D01*
X12495240Y-9014760D02*
X12464760Y-9045240D01*
X12532360Y-9827260D02*
X12562840Y-9857740D01*
X12562840Y-9827260D02*
X12532360Y-9857740D01*
X12544760Y-8374760D02*
X12575240Y-8405240D01*
X12575240Y-8374760D02*
X12544760Y-8405240D01*
X12544760Y-8694760D02*
X12575240Y-8725240D01*
X12575240Y-8694760D02*
X12544760Y-8725240D01*
X12544760Y-9254760D02*
X12575240Y-9285240D01*
X12575240Y-9254760D02*
X12544760Y-9285240D01*
X12654760Y-8024760D02*
X12685240Y-8055240D01*
X12685240Y-8024760D02*
X12654760Y-8055240D01*
X11005820Y-8267700D02*
G75*
G02*
X10965180Y-8267700I-20320J0D01*
G01*
X10965180Y-8267700D02*
G75*
G02*
X11005820Y-8267700I20320J0D01*
G01*
X11005820Y-8750300D02*
G75*
G02*
X10965180Y-8750300I-20320J0D01*
G01*
X10965180Y-8750300D02*
G75*
G02*
X11005820Y-8750300I20320J0D01*
G01*
X11094720Y-6426200D02*
G75*
G02*
X11054080Y-6426200I-20320J0D01*
G01*
X11054080Y-6426200D02*
G75*
G02*
X11094720Y-6426200I20320J0D01*
G01*
X11094720Y-7391400D02*
G75*
G02*
X11054080Y-7391400I-20320J0D01*
G01*
X11054080Y-7391400D02*
G75*
G02*
X11094720Y-7391400I20320J0D01*
G01*
X11320320Y-7080000D02*
G75*
G02*
X11279680Y-7080000I-20320J0D01*
G01*
X11279680Y-7080000D02*
G75*
G02*
X11320320Y-7080000I20320J0D01*
G01*
X11320320Y-7230000D02*
G75*
G02*
X11279680Y-7230000I-20320J0D01*
G01*
X11279680Y-7230000D02*
G75*
G02*
X11320320Y-7230000I20320J0D01*
G01*
X11460320Y-7080000D02*
G75*
G02*
X11419680Y-7080000I-20320J0D01*
G01*
X11419680Y-7080000D02*
G75*
G02*
X11460320Y-7080000I20320J0D01*
G01*
X11460320Y-7230000D02*
G75*
G02*
X11419680Y-7230000I-20320J0D01*
G01*
X11419680Y-7230000D02*
G75*
G02*
X11460320Y-7230000I20320J0D01*
G01*
X11501120Y-10998200D02*
G75*
G02*
X11460480Y-10998200I-20320J0D01*
G01*
X11460480Y-10998200D02*
G75*
G02*
X11501120Y-10998200I20320J0D01*
G01*
X11539220Y-10109200D02*
G75*
G02*
X11498580Y-10109200I-20320J0D01*
G01*
X11498580Y-10109200D02*
G75*
G02*
X11539220Y-10109200I20320J0D01*
G01*
X11551920Y-6680200D02*
G75*
G02*
X11511280Y-6680200I-20320J0D01*
G01*
X11511280Y-6680200D02*
G75*
G02*
X11551920Y-6680200I20320J0D01*
G01*
X11755120Y-7670800D02*
G75*
G02*
X11714480Y-7670800I-20320J0D01*
G01*
X11714480Y-7670800D02*
G75*
G02*
X11755120Y-7670800I20320J0D01*
G01*
X11755120Y-7950200D02*
G75*
G02*
X11714480Y-7950200I-20320J0D01*
G01*
X11714480Y-7950200D02*
G75*
G02*
X11755120Y-7950200I20320J0D01*
G01*
X11755120Y-9474200D02*
G75*
G02*
X11714480Y-9474200I-20320J0D01*
G01*
X11714480Y-9474200D02*
G75*
G02*
X11755120Y-9474200I20320J0D01*
G01*
X11755120Y-9753600D02*
G75*
G02*
X11714480Y-9753600I-20320J0D01*
G01*
X11714480Y-9753600D02*
G75*
G02*
X11755120Y-9753600I20320J0D01*
G01*
X12072620Y-10109200D02*
G75*
G02*
X12031980Y-10109200I-20320J0D01*
G01*
X12031980Y-10109200D02*
G75*
G02*
X12072620Y-10109200I20320J0D01*
G01*
X12212320Y-7086600D02*
G75*
G02*
X12171680Y-7086600I-20320J0D01*
G01*
X12171680Y-7086600D02*
G75*
G02*
X12212320Y-7086600I20320J0D01*
G01*
X12237720Y-7670800D02*
G75*
G02*
X12197080Y-7670800I-20320J0D01*
G01*
X12197080Y-7670800D02*
G75*
G02*
X12237720Y-7670800I20320J0D01*
G01*
X12237720Y-7950200D02*
G75*
G02*
X12197080Y-7950200I-20320J0D01*
G01*
X12197080Y-7950200D02*
G75*
G02*
X12237720Y-7950200I20320J0D01*
G01*
X12237720Y-9474200D02*
G75*
G02*
X12197080Y-9474200I-20320J0D01*
G01*
X12197080Y-9474200D02*
G75*
G02*
X12237720Y-9474200I20320J0D01*
G01*
X12237720Y-9753600D02*
G75*
G02*
X12197080Y-9753600I-20320J0D01*
G01*
X12197080Y-9753600D02*
G75*
G02*
X12237720Y-9753600I20320J0D01*
G01*
X12301220Y-10731500D02*
G75*
G02*
X12260580Y-10731500I-20320J0D01*
G01*
X12260580Y-10731500D02*
G75*
G02*
X12301220Y-10731500I20320J0D01*
G01*
X12339320Y-10210800D02*
G75*
G02*
X12298680Y-10210800I-20320J0D01*
G01*
X12298680Y-10210800D02*
G75*
G02*
X12339320Y-10210800I20320J0D01*
G01*
X12466320Y-6705600D02*
G75*
G02*
X12425680Y-6705600I-20320J0D01*
G01*
X12425680Y-6705600D02*
G75*
G02*
X12466320Y-6705600I20320J0D01*
G01*
X12540320Y-7930000D02*
G75*
G02*
X12499680Y-7930000I-20320J0D01*
G01*
X12499680Y-7930000D02*
G75*
G02*
X12540320Y-7930000I20320J0D01*
G01*
X12567920Y-10515600D02*
G75*
G02*
X12527280Y-10515600I-20320J0D01*
G01*
X12527280Y-10515600D02*
G75*
G02*
X12567920Y-10515600I20320J0D01*
G01*
X12733020Y-10109200D02*
G75*
G02*
X12692380Y-10109200I-20320J0D01*
G01*
X12692380Y-10109200D02*
G75*
G02*
X12733020Y-10109200I20320J0D01*
G01*
X12872720Y-6705600D02*
G75*
G02*
X12832080Y-6705600I-20320J0D01*
G01*
X12832080Y-6705600D02*
G75*
G02*
X12872720Y-6705600I20320J0D01*
G01*
X12974320Y-8051800D02*
G75*
G02*
X12933680Y-8051800I-20320J0D01*
G01*
X12933680Y-8051800D02*
G75*
G02*
X12974320Y-8051800I20320J0D01*
G01*
X13202920Y-7010400D02*
G75*
G02*
X13162280Y-7010400I-20320J0D01*
G01*
X13162280Y-7010400D02*
G75*
G02*
X13202920Y-7010400I20320J0D01*
G01*
X13355320Y-9664700D02*
G75*
G02*
X13314680Y-9664700I-20320J0D01*
G01*
X13314680Y-9664700D02*
G75*
G02*
X13355320Y-9664700I20320J0D01*
G01*
X13647420Y-9664700D02*
G75*
G02*
X13606780Y-9664700I-20320J0D01*
G01*
X13606780Y-9664700D02*
G75*
G02*
X13647420Y-9664700I20320J0D01*
G01*
X13647420Y-9918700D02*
G75*
G02*
X13606780Y-9918700I-20320J0D01*
G01*
X13606780Y-9918700D02*
G75*
G02*
X13647420Y-9918700I20320J0D01*
G01*
X13787120Y-6604000D02*
G75*
G02*
X13746480Y-6604000I-20320J0D01*
G01*
X13746480Y-6604000D02*
G75*
G02*
X13787120Y-6604000I20320J0D01*
G01*
X13787120Y-6858000D02*
G75*
G02*
X13746480Y-6858000I-20320J0D01*
G01*
X13746480Y-6858000D02*
G75*
G02*
X13787120Y-6858000I20320J0D01*
G01*
X9996900Y-6432550D02*
X9996900Y-6521450D01*
X9952450Y-6477000D02*
X10041350Y-6477000D01*
X9996900Y-6686550D02*
X9996900Y-6775450D01*
X9952450Y-6731000D02*
X10041350Y-6731000D01*
X9996900Y-6940550D02*
X9996900Y-7029450D01*
X9952450Y-6985000D02*
X10041350Y-6985000D01*
X9996900Y-7194550D02*
X9996900Y-7283450D01*
X9952450Y-7239000D02*
X10041350Y-7239000D01*
X9996900Y-7448550D02*
X9996900Y-7537450D01*
X9952450Y-7493000D02*
X10041350Y-7493000D01*
X9996900Y-7702550D02*
X9996900Y-7791450D01*
X9952450Y-7747000D02*
X10041350Y-7747000D01*
X9996900Y-7956550D02*
X9996900Y-8045450D01*
X9952450Y-8001000D02*
X10041350Y-8001000D01*
X9996900Y-8210550D02*
X9996900Y-8299450D01*
X9952450Y-8255000D02*
X10041350Y-8255000D01*
X9996900Y-8464550D02*
X9996900Y-8553450D01*
X9952450Y-8509000D02*
X10041350Y-8509000D01*
X9996900Y-8718550D02*
X9996900Y-8807450D01*
X9952450Y-8763000D02*
X10041350Y-8763000D01*
X9996900Y-8972550D02*
X9996900Y-9061450D01*
X9952450Y-9017000D02*
X10041350Y-9017000D01*
X9996900Y-9226550D02*
X9996900Y-9315450D01*
X9952450Y-9271000D02*
X10041350Y-9271000D01*
X9996900Y-9480550D02*
X9996900Y-9569450D01*
X9952450Y-9525000D02*
X10041350Y-9525000D01*
X9996900Y-9734550D02*
X9996900Y-9823450D01*
X9952450Y-9779000D02*
X10041350Y-9779000D01*
X9996900Y-9988550D02*
X9996900Y-10077450D01*
X9952450Y-10033000D02*
X10041350Y-10033000D01*
X9996900Y-10242550D02*
X9996900Y-10331450D01*
X9952450Y-10287000D02*
X10041350Y-10287000D01*
X9996900Y-10496550D02*
X9996900Y-10585450D01*
X9952450Y-10541000D02*
X10041350Y-10541000D01*
X9996900Y-10750550D02*
X9996900Y-10839450D01*
X9952450Y-10795000D02*
X10041350Y-10795000D01*
X9996900Y-11004550D02*
X9996900Y-11093450D01*
X9952450Y-11049000D02*
X10041350Y-11049000D01*
X9996900Y-11258550D02*
X9996900Y-11347450D01*
X9952450Y-11303000D02*
X10041350Y-11303000D01*
X10250900Y-6432550D02*
X10250900Y-6521450D01*
X10206450Y-6477000D02*
X10295350Y-6477000D01*
X10250900Y-6686550D02*
X10250900Y-6775450D01*
X10206450Y-6731000D02*
X10295350Y-6731000D01*
X10250900Y-6940550D02*
X10250900Y-7029450D01*
X10206450Y-6985000D02*
X10295350Y-6985000D01*
X10250900Y-7194550D02*
X10250900Y-7283450D01*
X10206450Y-7239000D02*
X10295350Y-7239000D01*
X10250900Y-7448550D02*
X10250900Y-7537450D01*
X10206450Y-7493000D02*
X10295350Y-7493000D01*
X10250900Y-7702550D02*
X10250900Y-7791450D01*
X10206450Y-7747000D02*
X10295350Y-7747000D01*
X10250900Y-7956550D02*
X10250900Y-8045450D01*
X10206450Y-8001000D02*
X10295350Y-8001000D01*
X10250900Y-8210550D02*
X10250900Y-8299450D01*
X10206450Y-8255000D02*
X10295350Y-8255000D01*
X10250900Y-8464550D02*
X10250900Y-8553450D01*
X10206450Y-8509000D02*
X10295350Y-8509000D01*
X10250900Y-8718550D02*
X10250900Y-8807450D01*
X10206450Y-8763000D02*
X10295350Y-8763000D01*
X10250900Y-8972550D02*
X10250900Y-9061450D01*
X10206450Y-9017000D02*
X10295350Y-9017000D01*
X10250900Y-9226550D02*
X10250900Y-9315450D01*
X10206450Y-9271000D02*
X10295350Y-9271000D01*
X10250900Y-9480550D02*
X10250900Y-9569450D01*
X10206450Y-9525000D02*
X10295350Y-9525000D01*
X10250900Y-9734550D02*
X10250900Y-9823450D01*
X10206450Y-9779000D02*
X10295350Y-9779000D01*
X10250900Y-9988550D02*
X10250900Y-10077450D01*
X10206450Y-10033000D02*
X10295350Y-10033000D01*
X10250900Y-10242550D02*
X10250900Y-10331450D01*
X10206450Y-10287000D02*
X10295350Y-10287000D01*
X10250900Y-10496550D02*
X10250900Y-10585450D01*
X10206450Y-10541000D02*
X10295350Y-10541000D01*
X10250900Y-10750550D02*
X10250900Y-10839450D01*
X10206450Y-10795000D02*
X10295350Y-10795000D01*
X10250900Y-11004550D02*
X10250900Y-11093450D01*
X10206450Y-11049000D02*
X10295350Y-11049000D01*
X10250900Y-11258550D02*
X10250900Y-11347450D01*
X10206450Y-11303000D02*
X10295350Y-11303000D01*
X13996900Y-6432550D02*
X13996900Y-6521450D01*
X13952450Y-6477000D02*
X14041350Y-6477000D01*
X13996900Y-6686550D02*
X13996900Y-6775450D01*
X13952450Y-6731000D02*
X14041350Y-6731000D01*
X13996900Y-6940550D02*
X13996900Y-7029450D01*
X13952450Y-6985000D02*
X14041350Y-6985000D01*
X13996900Y-7194550D02*
X13996900Y-7283450D01*
X13952450Y-7239000D02*
X14041350Y-7239000D01*
X13996900Y-7448550D02*
X13996900Y-7537450D01*
X13952450Y-7493000D02*
X14041350Y-7493000D01*
X13996900Y-7702550D02*
X13996900Y-7791450D01*
X13952450Y-7747000D02*
X14041350Y-7747000D01*
X13996900Y-7956550D02*
X13996900Y-8045450D01*
X13952450Y-8001000D02*
X14041350Y-8001000D01*
X13996900Y-8210550D02*
X13996900Y-8299450D01*
X13952450Y-8255000D02*
X14041350Y-8255000D01*
X13996900Y-8464550D02*
X13996900Y-8553450D01*
X13952450Y-8509000D02*
X14041350Y-8509000D01*
X13996900Y-8718550D02*
X13996900Y-8807450D01*
X13952450Y-8763000D02*
X14041350Y-8763000D01*
X13996900Y-8972550D02*
X13996900Y-9061450D01*
X13952450Y-9017000D02*
X14041350Y-9017000D01*
X13996900Y-9226550D02*
X13996900Y-9315450D01*
X13952450Y-9271000D02*
X14041350Y-9271000D01*
X13996900Y-9480550D02*
X13996900Y-9569450D01*
X13952450Y-9525000D02*
X14041350Y-9525000D01*
X13996900Y-9734550D02*
X13996900Y-9823450D01*
X13952450Y-9779000D02*
X14041350Y-9779000D01*
X13996900Y-9988550D02*
X13996900Y-10077450D01*
X13952450Y-10033000D02*
X14041350Y-10033000D01*
X13996900Y-10242550D02*
X13996900Y-10331450D01*
X13952450Y-10287000D02*
X14041350Y-10287000D01*
X13996900Y-10496550D02*
X13996900Y-10585450D01*
X13952450Y-10541000D02*
X14041350Y-10541000D01*
X13996900Y-10750550D02*
X13996900Y-10839450D01*
X13952450Y-10795000D02*
X14041350Y-10795000D01*
X13996900Y-11004550D02*
X13996900Y-11093450D01*
X13952450Y-11049000D02*
X14041350Y-11049000D01*
X13996900Y-11258550D02*
X13996900Y-11347450D01*
X13952450Y-11303000D02*
X14041350Y-11303000D01*
X14250900Y-6432550D02*
X14250900Y-6521450D01*
X14206450Y-6477000D02*
X14295350Y-6477000D01*
X14250900Y-6686550D02*
X14250900Y-6775450D01*
X14206450Y-6731000D02*
X14295350Y-6731000D01*
X14250900Y-6940550D02*
X14250900Y-7029450D01*
X14206450Y-6985000D02*
X14295350Y-6985000D01*
X14250900Y-7194550D02*
X14250900Y-7283450D01*
X14206450Y-7239000D02*
X14295350Y-7239000D01*
X14250900Y-7448550D02*
X14250900Y-7537450D01*
X14206450Y-7493000D02*
X14295350Y-7493000D01*
X14250900Y-7702550D02*
X14250900Y-7791450D01*
X14206450Y-7747000D02*
X14295350Y-7747000D01*
X14250900Y-7956550D02*
X14250900Y-8045450D01*
X14206450Y-8001000D02*
X14295350Y-8001000D01*
X14250900Y-8210550D02*
X14250900Y-8299450D01*
X14206450Y-8255000D02*
X14295350Y-8255000D01*
X14250900Y-8464550D02*
X14250900Y-8553450D01*
X14206450Y-8509000D02*
X14295350Y-8509000D01*
X14250900Y-8718550D02*
X14250900Y-8807450D01*
X14206450Y-8763000D02*
X14295350Y-8763000D01*
X14250900Y-8972550D02*
X14250900Y-9061450D01*
X14206450Y-9017000D02*
X14295350Y-9017000D01*
X14250900Y-9226550D02*
X14250900Y-9315450D01*
X14206450Y-9271000D02*
X14295350Y-9271000D01*
X14250900Y-9480550D02*
X14250900Y-9569450D01*
X14206450Y-9525000D02*
X14295350Y-9525000D01*
X14250900Y-9734550D02*
X14250900Y-9823450D01*
X14206450Y-9779000D02*
X14295350Y-9779000D01*
X14250900Y-9988550D02*
X14250900Y-10077450D01*
X14206450Y-10033000D02*
X14295350Y-10033000D01*
X14250900Y-10242550D02*
X14250900Y-10331450D01*
X14206450Y-10287000D02*
X14295350Y-10287000D01*
X14250900Y-10496550D02*
X14250900Y-10585450D01*
X14206450Y-10541000D02*
X14295350Y-10541000D01*
X14250900Y-10750550D02*
X14250900Y-10839450D01*
X14206450Y-10795000D02*
X14295350Y-10795000D01*
X14250900Y-11004550D02*
X14250900Y-11093450D01*
X14206450Y-11049000D02*
X14295350Y-11049000D01*
X14250900Y-11258550D02*
X14250900Y-11347450D01*
X14206450Y-11303000D02*
X14295350Y-11303000D01*
X13014756Y-10220756D02*
X13014756Y-10150044D01*
X12944044Y-10150044D01*
X12944044Y-10220756D01*
X13014756Y-10220756D01*
X13014756Y-10474756D02*
X13014756Y-10404044D01*
X12944044Y-10404044D01*
X12944044Y-10474756D01*
X13014756Y-10474756D01*
X13014756Y-10728756D02*
X13014756Y-10658044D01*
X12944044Y-10658044D01*
X12944044Y-10728756D01*
X13014756Y-10728756D01*
X13014756Y-10982756D02*
X13014756Y-10912044D01*
X12944044Y-10912044D01*
X12944044Y-10982756D01*
X13014756Y-10982756D01*
X13014756Y-11236756D02*
X13014756Y-11166044D01*
X12944044Y-11166044D01*
X12944044Y-11236756D01*
X13014756Y-11236756D01*
X13268756Y-10220756D02*
X13268756Y-10150044D01*
X13198044Y-10150044D01*
X13198044Y-10220756D01*
X13268756Y-10220756D01*
X13268756Y-10474756D02*
X13268756Y-10404044D01*
X13198044Y-10404044D01*
X13198044Y-10474756D01*
X13268756Y-10474756D01*
X13268756Y-10728756D02*
X13268756Y-10658044D01*
X13198044Y-10658044D01*
X13198044Y-10728756D01*
X13268756Y-10728756D01*
X13268756Y-10982756D02*
X13268756Y-10912044D01*
X13198044Y-10912044D01*
X13198044Y-10982756D01*
X13268756Y-10982756D01*
X13268756Y-11236756D02*
X13268756Y-11166044D01*
X13198044Y-11166044D01*
X13198044Y-11236756D01*
X13268756Y-11236756D01*
D11*
X9875677Y-11810484D02*
X9875677Y-11610484D01*
X9875677Y-11610484D02*
X9923296Y-11610484D01*
X9923296Y-11610484D02*
X9951867Y-11620008D01*
X9951867Y-11620008D02*
X9970915Y-11639055D01*
X9970915Y-11639055D02*
X9980439Y-11658103D01*
X9980439Y-11658103D02*
X9989963Y-11696198D01*
X9989963Y-11696198D02*
X9989963Y-11724769D01*
X9989963Y-11724769D02*
X9980439Y-11762865D01*
X9980439Y-11762865D02*
X9970915Y-11781912D01*
X9970915Y-11781912D02*
X9951867Y-11800960D01*
X9951867Y-11800960D02*
X9923296Y-11810484D01*
X9923296Y-11810484D02*
X9875677Y-11810484D01*
X10075677Y-11810484D02*
X10075677Y-11677150D01*
X10075677Y-11715246D02*
X10085201Y-11696198D01*
X10085201Y-11696198D02*
X10094724Y-11686674D01*
X10094724Y-11686674D02*
X10113772Y-11677150D01*
X10113772Y-11677150D02*
X10132820Y-11677150D01*
X10199486Y-11810484D02*
X10199486Y-11677150D01*
X10199486Y-11610484D02*
X10189963Y-11620008D01*
X10189963Y-11620008D02*
X10199486Y-11629531D01*
X10199486Y-11629531D02*
X10209010Y-11620008D01*
X10209010Y-11620008D02*
X10199486Y-11610484D01*
X10199486Y-11610484D02*
X10199486Y-11629531D01*
X10323296Y-11810484D02*
X10304248Y-11800960D01*
X10304248Y-11800960D02*
X10294724Y-11781912D01*
X10294724Y-11781912D02*
X10294724Y-11610484D01*
X10428058Y-11810484D02*
X10409010Y-11800960D01*
X10409010Y-11800960D02*
X10399486Y-11781912D01*
X10399486Y-11781912D02*
X10399486Y-11610484D01*
X10656629Y-11810484D02*
X10656629Y-11610484D01*
X10656629Y-11610484D02*
X10723296Y-11753341D01*
X10723296Y-11753341D02*
X10789963Y-11610484D01*
X10789963Y-11610484D02*
X10789963Y-11810484D01*
X10970915Y-11810484D02*
X10970915Y-11705722D01*
X10970915Y-11705722D02*
X10961391Y-11686674D01*
X10961391Y-11686674D02*
X10942344Y-11677150D01*
X10942344Y-11677150D02*
X10904248Y-11677150D01*
X10904248Y-11677150D02*
X10885201Y-11686674D01*
X10970915Y-11800960D02*
X10951867Y-11810484D01*
X10951867Y-11810484D02*
X10904248Y-11810484D01*
X10904248Y-11810484D02*
X10885201Y-11800960D01*
X10885201Y-11800960D02*
X10875677Y-11781912D01*
X10875677Y-11781912D02*
X10875677Y-11762865D01*
X10875677Y-11762865D02*
X10885201Y-11743817D01*
X10885201Y-11743817D02*
X10904248Y-11734293D01*
X10904248Y-11734293D02*
X10951867Y-11734293D01*
X10951867Y-11734293D02*
X10970915Y-11724769D01*
X11066153Y-11677150D02*
X11066153Y-11877150D01*
X11066153Y-11686674D02*
X11085201Y-11677150D01*
X11085201Y-11677150D02*
X11123296Y-11677150D01*
X11123296Y-11677150D02*
X11142344Y-11686674D01*
X11142344Y-11686674D02*
X11151867Y-11696198D01*
X11151867Y-11696198D02*
X11161391Y-11715246D01*
X11161391Y-11715246D02*
X11161391Y-11772388D01*
X11161391Y-11772388D02*
X11151867Y-11791436D01*
X11151867Y-11791436D02*
X11142344Y-11800960D01*
X11142344Y-11800960D02*
X11123296Y-11810484D01*
X11123296Y-11810484D02*
X11085201Y-11810484D01*
X11085201Y-11810484D02*
X11066153Y-11800960D01*
X11247105Y-11791436D02*
X11256629Y-11800960D01*
X11256629Y-11800960D02*
X11247105Y-11810484D01*
X11247105Y-11810484D02*
X11237582Y-11800960D01*
X11237582Y-11800960D02*
X11247105Y-11791436D01*
X11247105Y-11791436D02*
X11247105Y-11810484D01*
X11247105Y-11686674D02*
X11256629Y-11696198D01*
X11256629Y-11696198D02*
X11247105Y-11705722D01*
X11247105Y-11705722D02*
X11237582Y-11696198D01*
X11237582Y-11696198D02*
X11247105Y-11686674D01*
X11247105Y-11686674D02*
X11247105Y-11705722D01*
D12*
X9584420Y-12123760D02*
X9614900Y-12154240D01*
X9614900Y-12123760D02*
X9584420Y-12154240D01*
D11*
X9913772Y-12030484D02*
X9932820Y-12030484D01*
X9932820Y-12030484D02*
X9951867Y-12040008D01*
X9951867Y-12040008D02*
X9961391Y-12049531D01*
X9961391Y-12049531D02*
X9970915Y-12068579D01*
X9970915Y-12068579D02*
X9980439Y-12106674D01*
X9980439Y-12106674D02*
X9980439Y-12154293D01*
X9980439Y-12154293D02*
X9970915Y-12192388D01*
X9970915Y-12192388D02*
X9961391Y-12211436D01*
X9961391Y-12211436D02*
X9951867Y-12220960D01*
X9951867Y-12220960D02*
X9932820Y-12230484D01*
X9932820Y-12230484D02*
X9913772Y-12230484D01*
X9913772Y-12230484D02*
X9894724Y-12220960D01*
X9894724Y-12220960D02*
X9885201Y-12211436D01*
X9885201Y-12211436D02*
X9875677Y-12192388D01*
X9875677Y-12192388D02*
X9866153Y-12154293D01*
X9866153Y-12154293D02*
X9866153Y-12106674D01*
X9866153Y-12106674D02*
X9875677Y-12068579D01*
X9875677Y-12068579D02*
X9885201Y-12049531D01*
X9885201Y-12049531D02*
X9894724Y-12040008D01*
X9894724Y-12040008D02*
X9913772Y-12030484D01*
X10066153Y-12211436D02*
X10075677Y-12220960D01*
X10075677Y-12220960D02*
X10066153Y-12230484D01*
X10066153Y-12230484D02*
X10056629Y-12220960D01*
X10056629Y-12220960D02*
X10066153Y-12211436D01*
X10066153Y-12211436D02*
X10066153Y-12230484D01*
X10142344Y-12030484D02*
X10266153Y-12030484D01*
X10266153Y-12030484D02*
X10199486Y-12106674D01*
X10199486Y-12106674D02*
X10228058Y-12106674D01*
X10228058Y-12106674D02*
X10247105Y-12116198D01*
X10247105Y-12116198D02*
X10256629Y-12125722D01*
X10256629Y-12125722D02*
X10266153Y-12144769D01*
X10266153Y-12144769D02*
X10266153Y-12192388D01*
X10266153Y-12192388D02*
X10256629Y-12211436D01*
X10256629Y-12211436D02*
X10247105Y-12220960D01*
X10247105Y-12220960D02*
X10228058Y-12230484D01*
X10228058Y-12230484D02*
X10170915Y-12230484D01*
X10170915Y-12230484D02*
X10151867Y-12220960D01*
X10151867Y-12220960D02*
X10142344Y-12211436D01*
X10389963Y-12030484D02*
X10409010Y-12030484D01*
X10409010Y-12030484D02*
X10428058Y-12040008D01*
X10428058Y-12040008D02*
X10437582Y-12049531D01*
X10437582Y-12049531D02*
X10447105Y-12068579D01*
X10447105Y-12068579D02*
X10456629Y-12106674D01*
X10456629Y-12106674D02*
X10456629Y-12154293D01*
X10456629Y-12154293D02*
X10447105Y-12192388D01*
X10447105Y-12192388D02*
X10437582Y-12211436D01*
X10437582Y-12211436D02*
X10428058Y-12220960D01*
X10428058Y-12220960D02*
X10409010Y-12230484D01*
X10409010Y-12230484D02*
X10389963Y-12230484D01*
X10389963Y-12230484D02*
X10370915Y-12220960D01*
X10370915Y-12220960D02*
X10361391Y-12211436D01*
X10361391Y-12211436D02*
X10351867Y-12192388D01*
X10351867Y-12192388D02*
X10342344Y-12154293D01*
X10342344Y-12154293D02*
X10342344Y-12106674D01*
X10342344Y-12106674D02*
X10351867Y-12068579D01*
X10351867Y-12068579D02*
X10361391Y-12049531D01*
X10361391Y-12049531D02*
X10370915Y-12040008D01*
X10370915Y-12040008D02*
X10389963Y-12030484D01*
X10637582Y-12030484D02*
X10542344Y-12030484D01*
X10542344Y-12030484D02*
X10532820Y-12125722D01*
X10532820Y-12125722D02*
X10542344Y-12116198D01*
X10542344Y-12116198D02*
X10561391Y-12106674D01*
X10561391Y-12106674D02*
X10609010Y-12106674D01*
X10609010Y-12106674D02*
X10628058Y-12116198D01*
X10628058Y-12116198D02*
X10637582Y-12125722D01*
X10637582Y-12125722D02*
X10647105Y-12144769D01*
X10647105Y-12144769D02*
X10647105Y-12192388D01*
X10647105Y-12192388D02*
X10637582Y-12211436D01*
X10637582Y-12211436D02*
X10628058Y-12220960D01*
X10628058Y-12220960D02*
X10609010Y-12230484D01*
X10609010Y-12230484D02*
X10561391Y-12230484D01*
X10561391Y-12230484D02*
X10542344Y-12220960D01*
X10542344Y-12220960D02*
X10532820Y-12211436D01*
X10732820Y-12230484D02*
X10732820Y-12097150D01*
X10732820Y-12116198D02*
X10742344Y-12106674D01*
X10742344Y-12106674D02*
X10761391Y-12097150D01*
X10761391Y-12097150D02*
X10789963Y-12097150D01*
X10789963Y-12097150D02*
X10809010Y-12106674D01*
X10809010Y-12106674D02*
X10818534Y-12125722D01*
X10818534Y-12125722D02*
X10818534Y-12230484D01*
X10818534Y-12125722D02*
X10828058Y-12106674D01*
X10828058Y-12106674D02*
X10847105Y-12097150D01*
X10847105Y-12097150D02*
X10875677Y-12097150D01*
X10875677Y-12097150D02*
X10894725Y-12106674D01*
X10894725Y-12106674D02*
X10904248Y-12125722D01*
X10904248Y-12125722D02*
X10904248Y-12230484D01*
X10999486Y-12230484D02*
X10999486Y-12097150D01*
X10999486Y-12116198D02*
X11009010Y-12106674D01*
X11009010Y-12106674D02*
X11028058Y-12097150D01*
X11028058Y-12097150D02*
X11056629Y-12097150D01*
X11056629Y-12097150D02*
X11075677Y-12106674D01*
X11075677Y-12106674D02*
X11085201Y-12125722D01*
X11085201Y-12125722D02*
X11085201Y-12230484D01*
X11085201Y-12125722D02*
X11094725Y-12106674D01*
X11094725Y-12106674D02*
X11113772Y-12097150D01*
X11113772Y-12097150D02*
X11142344Y-12097150D01*
X11142344Y-12097150D02*
X11161391Y-12106674D01*
X11161391Y-12106674D02*
X11170915Y-12125722D01*
X11170915Y-12125722D02*
X11170915Y-12230484D01*
X11561391Y-12020960D02*
X11389963Y-12278103D01*
X11818534Y-12030484D02*
X11837582Y-12030484D01*
X11837582Y-12030484D02*
X11856629Y-12040008D01*
X11856629Y-12040008D02*
X11866153Y-12049531D01*
X11866153Y-12049531D02*
X11875677Y-12068579D01*
X11875677Y-12068579D02*
X11885201Y-12106674D01*
X11885201Y-12106674D02*
X11885201Y-12154293D01*
X11885201Y-12154293D02*
X11875677Y-12192388D01*
X11875677Y-12192388D02*
X11866153Y-12211436D01*
X11866153Y-12211436D02*
X11856629Y-12220960D01*
X11856629Y-12220960D02*
X11837582Y-12230484D01*
X11837582Y-12230484D02*
X11818534Y-12230484D01*
X11818534Y-12230484D02*
X11799486Y-12220960D01*
X11799486Y-12220960D02*
X11789963Y-12211436D01*
X11789963Y-12211436D02*
X11780439Y-12192388D01*
X11780439Y-12192388D02*
X11770915Y-12154293D01*
X11770915Y-12154293D02*
X11770915Y-12106674D01*
X11770915Y-12106674D02*
X11780439Y-12068579D01*
X11780439Y-12068579D02*
X11789963Y-12049531D01*
X11789963Y-12049531D02*
X11799486Y-12040008D01*
X11799486Y-12040008D02*
X11818534Y-12030484D01*
X11970915Y-12211436D02*
X11980439Y-12220960D01*
X11980439Y-12220960D02*
X11970915Y-12230484D01*
X11970915Y-12230484D02*
X11961391Y-12220960D01*
X11961391Y-12220960D02*
X11970915Y-12211436D01*
X11970915Y-12211436D02*
X11970915Y-12230484D01*
X12104248Y-12030484D02*
X12123296Y-12030484D01*
X12123296Y-12030484D02*
X12142344Y-12040008D01*
X12142344Y-12040008D02*
X12151867Y-12049531D01*
X12151867Y-12049531D02*
X12161391Y-12068579D01*
X12161391Y-12068579D02*
X12170915Y-12106674D01*
X12170915Y-12106674D02*
X12170915Y-12154293D01*
X12170915Y-12154293D02*
X12161391Y-12192388D01*
X12161391Y-12192388D02*
X12151867Y-12211436D01*
X12151867Y-12211436D02*
X12142344Y-12220960D01*
X12142344Y-12220960D02*
X12123296Y-12230484D01*
X12123296Y-12230484D02*
X12104248Y-12230484D01*
X12104248Y-12230484D02*
X12085201Y-12220960D01*
X12085201Y-12220960D02*
X12075677Y-12211436D01*
X12075677Y-12211436D02*
X12066153Y-12192388D01*
X12066153Y-12192388D02*
X12056629Y-12154293D01*
X12056629Y-12154293D02*
X12056629Y-12106674D01*
X12056629Y-12106674D02*
X12066153Y-12068579D01*
X12066153Y-12068579D02*
X12075677Y-12049531D01*
X12075677Y-12049531D02*
X12085201Y-12040008D01*
X12085201Y-12040008D02*
X12104248Y-12030484D01*
X12361391Y-12230484D02*
X12247106Y-12230484D01*
X12304248Y-12230484D02*
X12304248Y-12030484D01*
X12304248Y-12030484D02*
X12285201Y-12059055D01*
X12285201Y-12059055D02*
X12266153Y-12078103D01*
X12266153Y-12078103D02*
X12247106Y-12087627D01*
X12437582Y-12049531D02*
X12447106Y-12040008D01*
X12447106Y-12040008D02*
X12466153Y-12030484D01*
X12466153Y-12030484D02*
X12513772Y-12030484D01*
X12513772Y-12030484D02*
X12532820Y-12040008D01*
X12532820Y-12040008D02*
X12542344Y-12049531D01*
X12542344Y-12049531D02*
X12551867Y-12068579D01*
X12551867Y-12068579D02*
X12551867Y-12087627D01*
X12551867Y-12087627D02*
X12542344Y-12116198D01*
X12542344Y-12116198D02*
X12428058Y-12230484D01*
X12428058Y-12230484D02*
X12551867Y-12230484D01*
X12675677Y-12030484D02*
X12694725Y-12030484D01*
X12694725Y-12030484D02*
X12713772Y-12040008D01*
X12713772Y-12040008D02*
X12723296Y-12049531D01*
X12723296Y-12049531D02*
X12732820Y-12068579D01*
X12732820Y-12068579D02*
X12742344Y-12106674D01*
X12742344Y-12106674D02*
X12742344Y-12154293D01*
X12742344Y-12154293D02*
X12732820Y-12192388D01*
X12732820Y-12192388D02*
X12723296Y-12211436D01*
X12723296Y-12211436D02*
X12713772Y-12220960D01*
X12713772Y-12220960D02*
X12694725Y-12230484D01*
X12694725Y-12230484D02*
X12675677Y-12230484D01*
X12675677Y-12230484D02*
X12656629Y-12220960D01*
X12656629Y-12220960D02*
X12647106Y-12211436D01*
X12647106Y-12211436D02*
X12637582Y-12192388D01*
X12637582Y-12192388D02*
X12628058Y-12154293D01*
X12628058Y-12154293D02*
X12628058Y-12106674D01*
X12628058Y-12106674D02*
X12637582Y-12068579D01*
X12637582Y-12068579D02*
X12647106Y-12049531D01*
X12647106Y-12049531D02*
X12656629Y-12040008D01*
X12656629Y-12040008D02*
X12675677Y-12030484D01*
X12818534Y-12030484D02*
X12818534Y-12068579D01*
X12894725Y-12030484D02*
X12894725Y-12068579D01*
X13189963Y-12306674D02*
X13180439Y-12297150D01*
X13180439Y-12297150D02*
X13161391Y-12268579D01*
X13161391Y-12268579D02*
X13151868Y-12249531D01*
X13151868Y-12249531D02*
X13142344Y-12220960D01*
X13142344Y-12220960D02*
X13132820Y-12173341D01*
X13132820Y-12173341D02*
X13132820Y-12135246D01*
X13132820Y-12135246D02*
X13142344Y-12087627D01*
X13142344Y-12087627D02*
X13151868Y-12059055D01*
X13151868Y-12059055D02*
X13161391Y-12040008D01*
X13161391Y-12040008D02*
X13180439Y-12011436D01*
X13180439Y-12011436D02*
X13189963Y-12001912D01*
X13247106Y-12030484D02*
X13380439Y-12030484D01*
X13380439Y-12030484D02*
X13294725Y-12230484D01*
X13447106Y-12049531D02*
X13456629Y-12040008D01*
X13456629Y-12040008D02*
X13475677Y-12030484D01*
X13475677Y-12030484D02*
X13523296Y-12030484D01*
X13523296Y-12030484D02*
X13542344Y-12040008D01*
X13542344Y-12040008D02*
X13551868Y-12049531D01*
X13551868Y-12049531D02*
X13561391Y-12068579D01*
X13561391Y-12068579D02*
X13561391Y-12087627D01*
X13561391Y-12087627D02*
X13551868Y-12116198D01*
X13551868Y-12116198D02*
X13437582Y-12230484D01*
X13437582Y-12230484D02*
X13561391Y-12230484D01*
X13799487Y-12230484D02*
X13799487Y-12030484D01*
X13885201Y-12230484D02*
X13885201Y-12125722D01*
X13885201Y-12125722D02*
X13875677Y-12106674D01*
X13875677Y-12106674D02*
X13856630Y-12097150D01*
X13856630Y-12097150D02*
X13828058Y-12097150D01*
X13828058Y-12097150D02*
X13809010Y-12106674D01*
X13809010Y-12106674D02*
X13799487Y-12116198D01*
X14009010Y-12230484D02*
X13989963Y-12220960D01*
X13989963Y-12220960D02*
X13980439Y-12211436D01*
X13980439Y-12211436D02*
X13970915Y-12192388D01*
X13970915Y-12192388D02*
X13970915Y-12135246D01*
X13970915Y-12135246D02*
X13980439Y-12116198D01*
X13980439Y-12116198D02*
X13989963Y-12106674D01*
X13989963Y-12106674D02*
X14009010Y-12097150D01*
X14009010Y-12097150D02*
X14037582Y-12097150D01*
X14037582Y-12097150D02*
X14056630Y-12106674D01*
X14056630Y-12106674D02*
X14066153Y-12116198D01*
X14066153Y-12116198D02*
X14075677Y-12135246D01*
X14075677Y-12135246D02*
X14075677Y-12192388D01*
X14075677Y-12192388D02*
X14066153Y-12211436D01*
X14066153Y-12211436D02*
X14056630Y-12220960D01*
X14056630Y-12220960D02*
X14037582Y-12230484D01*
X14037582Y-12230484D02*
X14009010Y-12230484D01*
X14189963Y-12230484D02*
X14170915Y-12220960D01*
X14170915Y-12220960D02*
X14161391Y-12201912D01*
X14161391Y-12201912D02*
X14161391Y-12030484D01*
X14342344Y-12220960D02*
X14323296Y-12230484D01*
X14323296Y-12230484D02*
X14285201Y-12230484D01*
X14285201Y-12230484D02*
X14266153Y-12220960D01*
X14266153Y-12220960D02*
X14256630Y-12201912D01*
X14256630Y-12201912D02*
X14256630Y-12125722D01*
X14256630Y-12125722D02*
X14266153Y-12106674D01*
X14266153Y-12106674D02*
X14285201Y-12097150D01*
X14285201Y-12097150D02*
X14323296Y-12097150D01*
X14323296Y-12097150D02*
X14342344Y-12106674D01*
X14342344Y-12106674D02*
X14351868Y-12125722D01*
X14351868Y-12125722D02*
X14351868Y-12144769D01*
X14351868Y-12144769D02*
X14256630Y-12163817D01*
X14428058Y-12220960D02*
X14447106Y-12230484D01*
X14447106Y-12230484D02*
X14485201Y-12230484D01*
X14485201Y-12230484D02*
X14504249Y-12220960D01*
X14504249Y-12220960D02*
X14513772Y-12201912D01*
X14513772Y-12201912D02*
X14513772Y-12192388D01*
X14513772Y-12192388D02*
X14504249Y-12173341D01*
X14504249Y-12173341D02*
X14485201Y-12163817D01*
X14485201Y-12163817D02*
X14456630Y-12163817D01*
X14456630Y-12163817D02*
X14437582Y-12154293D01*
X14437582Y-12154293D02*
X14428058Y-12135246D01*
X14428058Y-12135246D02*
X14428058Y-12125722D01*
X14428058Y-12125722D02*
X14437582Y-12106674D01*
X14437582Y-12106674D02*
X14456630Y-12097150D01*
X14456630Y-12097150D02*
X14485201Y-12097150D01*
X14485201Y-12097150D02*
X14504249Y-12106674D01*
X14580439Y-12306674D02*
X14589963Y-12297150D01*
X14589963Y-12297150D02*
X14609011Y-12268579D01*
X14609011Y-12268579D02*
X14618534Y-12249531D01*
X14618534Y-12249531D02*
X14628058Y-12220960D01*
X14628058Y-12220960D02*
X14637582Y-12173341D01*
X14637582Y-12173341D02*
X14637582Y-12135246D01*
X14637582Y-12135246D02*
X14628058Y-12087627D01*
X14628058Y-12087627D02*
X14618534Y-12059055D01*
X14618534Y-12059055D02*
X14609011Y-12040008D01*
X14609011Y-12040008D02*
X14589963Y-12011436D01*
X14589963Y-12011436D02*
X14580439Y-12001912D01*
D12*
X9614900Y-12403000D02*
G75*
G02*
X9574260Y-12403000I-20320J0D01*
G01*
X9574260Y-12403000D02*
G75*
G02*
X9614900Y-12403000I20320J0D01*
G01*
D11*
X9913772Y-12294484D02*
X9932820Y-12294484D01*
X9932820Y-12294484D02*
X9951867Y-12304008D01*
X9951867Y-12304008D02*
X9961391Y-12313531D01*
X9961391Y-12313531D02*
X9970915Y-12332579D01*
X9970915Y-12332579D02*
X9980439Y-12370674D01*
X9980439Y-12370674D02*
X9980439Y-12418293D01*
X9980439Y-12418293D02*
X9970915Y-12456388D01*
X9970915Y-12456388D02*
X9961391Y-12475436D01*
X9961391Y-12475436D02*
X9951867Y-12484960D01*
X9951867Y-12484960D02*
X9932820Y-12494484D01*
X9932820Y-12494484D02*
X9913772Y-12494484D01*
X9913772Y-12494484D02*
X9894724Y-12484960D01*
X9894724Y-12484960D02*
X9885201Y-12475436D01*
X9885201Y-12475436D02*
X9875677Y-12456388D01*
X9875677Y-12456388D02*
X9866153Y-12418293D01*
X9866153Y-12418293D02*
X9866153Y-12370674D01*
X9866153Y-12370674D02*
X9875677Y-12332579D01*
X9875677Y-12332579D02*
X9885201Y-12313531D01*
X9885201Y-12313531D02*
X9894724Y-12304008D01*
X9894724Y-12304008D02*
X9913772Y-12294484D01*
X10066153Y-12475436D02*
X10075677Y-12484960D01*
X10075677Y-12484960D02*
X10066153Y-12494484D01*
X10066153Y-12494484D02*
X10056629Y-12484960D01*
X10056629Y-12484960D02*
X10066153Y-12475436D01*
X10066153Y-12475436D02*
X10066153Y-12494484D01*
X10247105Y-12361150D02*
X10247105Y-12494484D01*
X10199486Y-12284960D02*
X10151867Y-12427817D01*
X10151867Y-12427817D02*
X10275677Y-12427817D01*
X10389963Y-12294484D02*
X10409010Y-12294484D01*
X10409010Y-12294484D02*
X10428058Y-12304008D01*
X10428058Y-12304008D02*
X10437582Y-12313531D01*
X10437582Y-12313531D02*
X10447105Y-12332579D01*
X10447105Y-12332579D02*
X10456629Y-12370674D01*
X10456629Y-12370674D02*
X10456629Y-12418293D01*
X10456629Y-12418293D02*
X10447105Y-12456388D01*
X10447105Y-12456388D02*
X10437582Y-12475436D01*
X10437582Y-12475436D02*
X10428058Y-12484960D01*
X10428058Y-12484960D02*
X10409010Y-12494484D01*
X10409010Y-12494484D02*
X10389963Y-12494484D01*
X10389963Y-12494484D02*
X10370915Y-12484960D01*
X10370915Y-12484960D02*
X10361391Y-12475436D01*
X10361391Y-12475436D02*
X10351867Y-12456388D01*
X10351867Y-12456388D02*
X10342344Y-12418293D01*
X10342344Y-12418293D02*
X10342344Y-12370674D01*
X10342344Y-12370674D02*
X10351867Y-12332579D01*
X10351867Y-12332579D02*
X10361391Y-12313531D01*
X10361391Y-12313531D02*
X10370915Y-12304008D01*
X10370915Y-12304008D02*
X10389963Y-12294484D01*
X10628058Y-12294484D02*
X10589963Y-12294484D01*
X10589963Y-12294484D02*
X10570915Y-12304008D01*
X10570915Y-12304008D02*
X10561391Y-12313531D01*
X10561391Y-12313531D02*
X10542344Y-12342103D01*
X10542344Y-12342103D02*
X10532820Y-12380198D01*
X10532820Y-12380198D02*
X10532820Y-12456388D01*
X10532820Y-12456388D02*
X10542344Y-12475436D01*
X10542344Y-12475436D02*
X10551867Y-12484960D01*
X10551867Y-12484960D02*
X10570915Y-12494484D01*
X10570915Y-12494484D02*
X10609010Y-12494484D01*
X10609010Y-12494484D02*
X10628058Y-12484960D01*
X10628058Y-12484960D02*
X10637582Y-12475436D01*
X10637582Y-12475436D02*
X10647105Y-12456388D01*
X10647105Y-12456388D02*
X10647105Y-12408769D01*
X10647105Y-12408769D02*
X10637582Y-12389722D01*
X10637582Y-12389722D02*
X10628058Y-12380198D01*
X10628058Y-12380198D02*
X10609010Y-12370674D01*
X10609010Y-12370674D02*
X10570915Y-12370674D01*
X10570915Y-12370674D02*
X10551867Y-12380198D01*
X10551867Y-12380198D02*
X10542344Y-12389722D01*
X10542344Y-12389722D02*
X10532820Y-12408769D01*
X10732820Y-12494484D02*
X10732820Y-12361150D01*
X10732820Y-12380198D02*
X10742344Y-12370674D01*
X10742344Y-12370674D02*
X10761391Y-12361150D01*
X10761391Y-12361150D02*
X10789963Y-12361150D01*
X10789963Y-12361150D02*
X10809010Y-12370674D01*
X10809010Y-12370674D02*
X10818534Y-12389722D01*
X10818534Y-12389722D02*
X10818534Y-12494484D01*
X10818534Y-12389722D02*
X10828058Y-12370674D01*
X10828058Y-12370674D02*
X10847105Y-12361150D01*
X10847105Y-12361150D02*
X10875677Y-12361150D01*
X10875677Y-12361150D02*
X10894725Y-12370674D01*
X10894725Y-12370674D02*
X10904248Y-12389722D01*
X10904248Y-12389722D02*
X10904248Y-12494484D01*
X10999486Y-12494484D02*
X10999486Y-12361150D01*
X10999486Y-12380198D02*
X11009010Y-12370674D01*
X11009010Y-12370674D02*
X11028058Y-12361150D01*
X11028058Y-12361150D02*
X11056629Y-12361150D01*
X11056629Y-12361150D02*
X11075677Y-12370674D01*
X11075677Y-12370674D02*
X11085201Y-12389722D01*
X11085201Y-12389722D02*
X11085201Y-12494484D01*
X11085201Y-12389722D02*
X11094725Y-12370674D01*
X11094725Y-12370674D02*
X11113772Y-12361150D01*
X11113772Y-12361150D02*
X11142344Y-12361150D01*
X11142344Y-12361150D02*
X11161391Y-12370674D01*
X11161391Y-12370674D02*
X11170915Y-12389722D01*
X11170915Y-12389722D02*
X11170915Y-12494484D01*
X11561391Y-12284960D02*
X11389963Y-12542103D01*
X11818534Y-12294484D02*
X11837582Y-12294484D01*
X11837582Y-12294484D02*
X11856629Y-12304008D01*
X11856629Y-12304008D02*
X11866153Y-12313531D01*
X11866153Y-12313531D02*
X11875677Y-12332579D01*
X11875677Y-12332579D02*
X11885201Y-12370674D01*
X11885201Y-12370674D02*
X11885201Y-12418293D01*
X11885201Y-12418293D02*
X11875677Y-12456388D01*
X11875677Y-12456388D02*
X11866153Y-12475436D01*
X11866153Y-12475436D02*
X11856629Y-12484960D01*
X11856629Y-12484960D02*
X11837582Y-12494484D01*
X11837582Y-12494484D02*
X11818534Y-12494484D01*
X11818534Y-12494484D02*
X11799486Y-12484960D01*
X11799486Y-12484960D02*
X11789963Y-12475436D01*
X11789963Y-12475436D02*
X11780439Y-12456388D01*
X11780439Y-12456388D02*
X11770915Y-12418293D01*
X11770915Y-12418293D02*
X11770915Y-12370674D01*
X11770915Y-12370674D02*
X11780439Y-12332579D01*
X11780439Y-12332579D02*
X11789963Y-12313531D01*
X11789963Y-12313531D02*
X11799486Y-12304008D01*
X11799486Y-12304008D02*
X11818534Y-12294484D01*
X11970915Y-12475436D02*
X11980439Y-12484960D01*
X11980439Y-12484960D02*
X11970915Y-12494484D01*
X11970915Y-12494484D02*
X11961391Y-12484960D01*
X11961391Y-12484960D02*
X11970915Y-12475436D01*
X11970915Y-12475436D02*
X11970915Y-12494484D01*
X12104248Y-12294484D02*
X12123296Y-12294484D01*
X12123296Y-12294484D02*
X12142344Y-12304008D01*
X12142344Y-12304008D02*
X12151867Y-12313531D01*
X12151867Y-12313531D02*
X12161391Y-12332579D01*
X12161391Y-12332579D02*
X12170915Y-12370674D01*
X12170915Y-12370674D02*
X12170915Y-12418293D01*
X12170915Y-12418293D02*
X12161391Y-12456388D01*
X12161391Y-12456388D02*
X12151867Y-12475436D01*
X12151867Y-12475436D02*
X12142344Y-12484960D01*
X12142344Y-12484960D02*
X12123296Y-12494484D01*
X12123296Y-12494484D02*
X12104248Y-12494484D01*
X12104248Y-12494484D02*
X12085201Y-12484960D01*
X12085201Y-12484960D02*
X12075677Y-12475436D01*
X12075677Y-12475436D02*
X12066153Y-12456388D01*
X12066153Y-12456388D02*
X12056629Y-12418293D01*
X12056629Y-12418293D02*
X12056629Y-12370674D01*
X12056629Y-12370674D02*
X12066153Y-12332579D01*
X12066153Y-12332579D02*
X12075677Y-12313531D01*
X12075677Y-12313531D02*
X12085201Y-12304008D01*
X12085201Y-12304008D02*
X12104248Y-12294484D01*
X12361391Y-12494484D02*
X12247106Y-12494484D01*
X12304248Y-12494484D02*
X12304248Y-12294484D01*
X12304248Y-12294484D02*
X12285201Y-12323055D01*
X12285201Y-12323055D02*
X12266153Y-12342103D01*
X12266153Y-12342103D02*
X12247106Y-12351627D01*
X12532820Y-12294484D02*
X12494725Y-12294484D01*
X12494725Y-12294484D02*
X12475677Y-12304008D01*
X12475677Y-12304008D02*
X12466153Y-12313531D01*
X12466153Y-12313531D02*
X12447106Y-12342103D01*
X12447106Y-12342103D02*
X12437582Y-12380198D01*
X12437582Y-12380198D02*
X12437582Y-12456388D01*
X12437582Y-12456388D02*
X12447106Y-12475436D01*
X12447106Y-12475436D02*
X12456629Y-12484960D01*
X12456629Y-12484960D02*
X12475677Y-12494484D01*
X12475677Y-12494484D02*
X12513772Y-12494484D01*
X12513772Y-12494484D02*
X12532820Y-12484960D01*
X12532820Y-12484960D02*
X12542344Y-12475436D01*
X12542344Y-12475436D02*
X12551867Y-12456388D01*
X12551867Y-12456388D02*
X12551867Y-12408769D01*
X12551867Y-12408769D02*
X12542344Y-12389722D01*
X12542344Y-12389722D02*
X12532820Y-12380198D01*
X12532820Y-12380198D02*
X12513772Y-12370674D01*
X12513772Y-12370674D02*
X12475677Y-12370674D01*
X12475677Y-12370674D02*
X12456629Y-12380198D01*
X12456629Y-12380198D02*
X12447106Y-12389722D01*
X12447106Y-12389722D02*
X12437582Y-12408769D01*
X12675677Y-12294484D02*
X12694725Y-12294484D01*
X12694725Y-12294484D02*
X12713772Y-12304008D01*
X12713772Y-12304008D02*
X12723296Y-12313531D01*
X12723296Y-12313531D02*
X12732820Y-12332579D01*
X12732820Y-12332579D02*
X12742344Y-12370674D01*
X12742344Y-12370674D02*
X12742344Y-12418293D01*
X12742344Y-12418293D02*
X12732820Y-12456388D01*
X12732820Y-12456388D02*
X12723296Y-12475436D01*
X12723296Y-12475436D02*
X12713772Y-12484960D01*
X12713772Y-12484960D02*
X12694725Y-12494484D01*
X12694725Y-12494484D02*
X12675677Y-12494484D01*
X12675677Y-12494484D02*
X12656629Y-12484960D01*
X12656629Y-12484960D02*
X12647106Y-12475436D01*
X12647106Y-12475436D02*
X12637582Y-12456388D01*
X12637582Y-12456388D02*
X12628058Y-12418293D01*
X12628058Y-12418293D02*
X12628058Y-12370674D01*
X12628058Y-12370674D02*
X12637582Y-12332579D01*
X12637582Y-12332579D02*
X12647106Y-12313531D01*
X12647106Y-12313531D02*
X12656629Y-12304008D01*
X12656629Y-12304008D02*
X12675677Y-12294484D01*
X12818534Y-12294484D02*
X12818534Y-12332579D01*
X12894725Y-12294484D02*
X12894725Y-12332579D01*
X13189963Y-12570674D02*
X13180439Y-12561150D01*
X13180439Y-12561150D02*
X13161391Y-12532579D01*
X13161391Y-12532579D02*
X13151868Y-12513531D01*
X13151868Y-12513531D02*
X13142344Y-12484960D01*
X13142344Y-12484960D02*
X13132820Y-12437341D01*
X13132820Y-12437341D02*
X13132820Y-12399246D01*
X13132820Y-12399246D02*
X13142344Y-12351627D01*
X13142344Y-12351627D02*
X13151868Y-12323055D01*
X13151868Y-12323055D02*
X13161391Y-12304008D01*
X13161391Y-12304008D02*
X13180439Y-12275436D01*
X13180439Y-12275436D02*
X13189963Y-12265912D01*
X13247106Y-12294484D02*
X13370915Y-12294484D01*
X13370915Y-12294484D02*
X13304248Y-12370674D01*
X13304248Y-12370674D02*
X13332820Y-12370674D01*
X13332820Y-12370674D02*
X13351868Y-12380198D01*
X13351868Y-12380198D02*
X13361391Y-12389722D01*
X13361391Y-12389722D02*
X13370915Y-12408769D01*
X13370915Y-12408769D02*
X13370915Y-12456388D01*
X13370915Y-12456388D02*
X13361391Y-12475436D01*
X13361391Y-12475436D02*
X13351868Y-12484960D01*
X13351868Y-12484960D02*
X13332820Y-12494484D01*
X13332820Y-12494484D02*
X13275677Y-12494484D01*
X13275677Y-12494484D02*
X13256629Y-12484960D01*
X13256629Y-12484960D02*
X13247106Y-12475436D01*
X13551868Y-12294484D02*
X13456629Y-12294484D01*
X13456629Y-12294484D02*
X13447106Y-12389722D01*
X13447106Y-12389722D02*
X13456629Y-12380198D01*
X13456629Y-12380198D02*
X13475677Y-12370674D01*
X13475677Y-12370674D02*
X13523296Y-12370674D01*
X13523296Y-12370674D02*
X13542344Y-12380198D01*
X13542344Y-12380198D02*
X13551868Y-12389722D01*
X13551868Y-12389722D02*
X13561391Y-12408769D01*
X13561391Y-12408769D02*
X13561391Y-12456388D01*
X13561391Y-12456388D02*
X13551868Y-12475436D01*
X13551868Y-12475436D02*
X13542344Y-12484960D01*
X13542344Y-12484960D02*
X13523296Y-12494484D01*
X13523296Y-12494484D02*
X13475677Y-12494484D01*
X13475677Y-12494484D02*
X13456629Y-12484960D01*
X13456629Y-12484960D02*
X13447106Y-12475436D01*
X13799487Y-12494484D02*
X13799487Y-12294484D01*
X13885201Y-12494484D02*
X13885201Y-12389722D01*
X13885201Y-12389722D02*
X13875677Y-12370674D01*
X13875677Y-12370674D02*
X13856630Y-12361150D01*
X13856630Y-12361150D02*
X13828058Y-12361150D01*
X13828058Y-12361150D02*
X13809010Y-12370674D01*
X13809010Y-12370674D02*
X13799487Y-12380198D01*
X14009010Y-12494484D02*
X13989963Y-12484960D01*
X13989963Y-12484960D02*
X13980439Y-12475436D01*
X13980439Y-12475436D02*
X13970915Y-12456388D01*
X13970915Y-12456388D02*
X13970915Y-12399246D01*
X13970915Y-12399246D02*
X13980439Y-12380198D01*
X13980439Y-12380198D02*
X13989963Y-12370674D01*
X13989963Y-12370674D02*
X14009010Y-12361150D01*
X14009010Y-12361150D02*
X14037582Y-12361150D01*
X14037582Y-12361150D02*
X14056630Y-12370674D01*
X14056630Y-12370674D02*
X14066153Y-12380198D01*
X14066153Y-12380198D02*
X14075677Y-12399246D01*
X14075677Y-12399246D02*
X14075677Y-12456388D01*
X14075677Y-12456388D02*
X14066153Y-12475436D01*
X14066153Y-12475436D02*
X14056630Y-12484960D01*
X14056630Y-12484960D02*
X14037582Y-12494484D01*
X14037582Y-12494484D02*
X14009010Y-12494484D01*
X14189963Y-12494484D02*
X14170915Y-12484960D01*
X14170915Y-12484960D02*
X14161391Y-12465912D01*
X14161391Y-12465912D02*
X14161391Y-12294484D01*
X14342344Y-12484960D02*
X14323296Y-12494484D01*
X14323296Y-12494484D02*
X14285201Y-12494484D01*
X14285201Y-12494484D02*
X14266153Y-12484960D01*
X14266153Y-12484960D02*
X14256630Y-12465912D01*
X14256630Y-12465912D02*
X14256630Y-12389722D01*
X14256630Y-12389722D02*
X14266153Y-12370674D01*
X14266153Y-12370674D02*
X14285201Y-12361150D01*
X14285201Y-12361150D02*
X14323296Y-12361150D01*
X14323296Y-12361150D02*
X14342344Y-12370674D01*
X14342344Y-12370674D02*
X14351868Y-12389722D01*
X14351868Y-12389722D02*
X14351868Y-12408769D01*
X14351868Y-12408769D02*
X14256630Y-12427817D01*
X14428058Y-12484960D02*
X14447106Y-12494484D01*
X14447106Y-12494484D02*
X14485201Y-12494484D01*
X14485201Y-12494484D02*
X14504249Y-12484960D01*
X14504249Y-12484960D02*
X14513772Y-12465912D01*
X14513772Y-12465912D02*
X14513772Y-12456388D01*
X14513772Y-12456388D02*
X14504249Y-12437341D01*
X14504249Y-12437341D02*
X14485201Y-12427817D01*
X14485201Y-12427817D02*
X14456630Y-12427817D01*
X14456630Y-12427817D02*
X14437582Y-12418293D01*
X14437582Y-12418293D02*
X14428058Y-12399246D01*
X14428058Y-12399246D02*
X14428058Y-12389722D01*
X14428058Y-12389722D02*
X14437582Y-12370674D01*
X14437582Y-12370674D02*
X14456630Y-12361150D01*
X14456630Y-12361150D02*
X14485201Y-12361150D01*
X14485201Y-12361150D02*
X14504249Y-12370674D01*
X14580439Y-12570674D02*
X14589963Y-12561150D01*
X14589963Y-12561150D02*
X14609011Y-12532579D01*
X14609011Y-12532579D02*
X14618534Y-12513531D01*
X14618534Y-12513531D02*
X14628058Y-12484960D01*
X14628058Y-12484960D02*
X14637582Y-12437341D01*
X14637582Y-12437341D02*
X14637582Y-12399246D01*
X14637582Y-12399246D02*
X14628058Y-12351627D01*
X14628058Y-12351627D02*
X14618534Y-12323055D01*
X14618534Y-12323055D02*
X14609011Y-12304008D01*
X14609011Y-12304008D02*
X14589963Y-12275436D01*
X14589963Y-12275436D02*
X14580439Y-12265912D01*
D12*
X9570450Y-12622550D02*
X9570450Y-12711450D01*
X9526000Y-12667000D02*
X9614900Y-12667000D01*
D11*
X9913772Y-12558484D02*
X9932820Y-12558484D01*
X9932820Y-12558484D02*
X9951867Y-12568008D01*
X9951867Y-12568008D02*
X9961391Y-12577531D01*
X9961391Y-12577531D02*
X9970915Y-12596579D01*
X9970915Y-12596579D02*
X9980439Y-12634674D01*
X9980439Y-12634674D02*
X9980439Y-12682293D01*
X9980439Y-12682293D02*
X9970915Y-12720388D01*
X9970915Y-12720388D02*
X9961391Y-12739436D01*
X9961391Y-12739436D02*
X9951867Y-12748960D01*
X9951867Y-12748960D02*
X9932820Y-12758484D01*
X9932820Y-12758484D02*
X9913772Y-12758484D01*
X9913772Y-12758484D02*
X9894724Y-12748960D01*
X9894724Y-12748960D02*
X9885201Y-12739436D01*
X9885201Y-12739436D02*
X9875677Y-12720388D01*
X9875677Y-12720388D02*
X9866153Y-12682293D01*
X9866153Y-12682293D02*
X9866153Y-12634674D01*
X9866153Y-12634674D02*
X9875677Y-12596579D01*
X9875677Y-12596579D02*
X9885201Y-12577531D01*
X9885201Y-12577531D02*
X9894724Y-12568008D01*
X9894724Y-12568008D02*
X9913772Y-12558484D01*
X10066153Y-12739436D02*
X10075677Y-12748960D01*
X10075677Y-12748960D02*
X10066153Y-12758484D01*
X10066153Y-12758484D02*
X10056629Y-12748960D01*
X10056629Y-12748960D02*
X10066153Y-12739436D01*
X10066153Y-12739436D02*
X10066153Y-12758484D01*
X10189963Y-12644198D02*
X10170915Y-12634674D01*
X10170915Y-12634674D02*
X10161391Y-12625150D01*
X10161391Y-12625150D02*
X10151867Y-12606103D01*
X10151867Y-12606103D02*
X10151867Y-12596579D01*
X10151867Y-12596579D02*
X10161391Y-12577531D01*
X10161391Y-12577531D02*
X10170915Y-12568008D01*
X10170915Y-12568008D02*
X10189963Y-12558484D01*
X10189963Y-12558484D02*
X10228058Y-12558484D01*
X10228058Y-12558484D02*
X10247105Y-12568008D01*
X10247105Y-12568008D02*
X10256629Y-12577531D01*
X10256629Y-12577531D02*
X10266153Y-12596579D01*
X10266153Y-12596579D02*
X10266153Y-12606103D01*
X10266153Y-12606103D02*
X10256629Y-12625150D01*
X10256629Y-12625150D02*
X10247105Y-12634674D01*
X10247105Y-12634674D02*
X10228058Y-12644198D01*
X10228058Y-12644198D02*
X10189963Y-12644198D01*
X10189963Y-12644198D02*
X10170915Y-12653722D01*
X10170915Y-12653722D02*
X10161391Y-12663246D01*
X10161391Y-12663246D02*
X10151867Y-12682293D01*
X10151867Y-12682293D02*
X10151867Y-12720388D01*
X10151867Y-12720388D02*
X10161391Y-12739436D01*
X10161391Y-12739436D02*
X10170915Y-12748960D01*
X10170915Y-12748960D02*
X10189963Y-12758484D01*
X10189963Y-12758484D02*
X10228058Y-12758484D01*
X10228058Y-12758484D02*
X10247105Y-12748960D01*
X10247105Y-12748960D02*
X10256629Y-12739436D01*
X10256629Y-12739436D02*
X10266153Y-12720388D01*
X10266153Y-12720388D02*
X10266153Y-12682293D01*
X10266153Y-12682293D02*
X10256629Y-12663246D01*
X10256629Y-12663246D02*
X10247105Y-12653722D01*
X10247105Y-12653722D02*
X10228058Y-12644198D01*
X10380439Y-12644198D02*
X10361391Y-12634674D01*
X10361391Y-12634674D02*
X10351867Y-12625150D01*
X10351867Y-12625150D02*
X10342344Y-12606103D01*
X10342344Y-12606103D02*
X10342344Y-12596579D01*
X10342344Y-12596579D02*
X10351867Y-12577531D01*
X10351867Y-12577531D02*
X10361391Y-12568008D01*
X10361391Y-12568008D02*
X10380439Y-12558484D01*
X10380439Y-12558484D02*
X10418534Y-12558484D01*
X10418534Y-12558484D02*
X10437582Y-12568008D01*
X10437582Y-12568008D02*
X10447105Y-12577531D01*
X10447105Y-12577531D02*
X10456629Y-12596579D01*
X10456629Y-12596579D02*
X10456629Y-12606103D01*
X10456629Y-12606103D02*
X10447105Y-12625150D01*
X10447105Y-12625150D02*
X10437582Y-12634674D01*
X10437582Y-12634674D02*
X10418534Y-12644198D01*
X10418534Y-12644198D02*
X10380439Y-12644198D01*
X10380439Y-12644198D02*
X10361391Y-12653722D01*
X10361391Y-12653722D02*
X10351867Y-12663246D01*
X10351867Y-12663246D02*
X10342344Y-12682293D01*
X10342344Y-12682293D02*
X10342344Y-12720388D01*
X10342344Y-12720388D02*
X10351867Y-12739436D01*
X10351867Y-12739436D02*
X10361391Y-12748960D01*
X10361391Y-12748960D02*
X10380439Y-12758484D01*
X10380439Y-12758484D02*
X10418534Y-12758484D01*
X10418534Y-12758484D02*
X10437582Y-12748960D01*
X10437582Y-12748960D02*
X10447105Y-12739436D01*
X10447105Y-12739436D02*
X10456629Y-12720388D01*
X10456629Y-12720388D02*
X10456629Y-12682293D01*
X10456629Y-12682293D02*
X10447105Y-12663246D01*
X10447105Y-12663246D02*
X10437582Y-12653722D01*
X10437582Y-12653722D02*
X10418534Y-12644198D01*
X10551867Y-12758484D02*
X10589963Y-12758484D01*
X10589963Y-12758484D02*
X10609010Y-12748960D01*
X10609010Y-12748960D02*
X10618534Y-12739436D01*
X10618534Y-12739436D02*
X10637582Y-12710865D01*
X10637582Y-12710865D02*
X10647105Y-12672769D01*
X10647105Y-12672769D02*
X10647105Y-12596579D01*
X10647105Y-12596579D02*
X10637582Y-12577531D01*
X10637582Y-12577531D02*
X10628058Y-12568008D01*
X10628058Y-12568008D02*
X10609010Y-12558484D01*
X10609010Y-12558484D02*
X10570915Y-12558484D01*
X10570915Y-12558484D02*
X10551867Y-12568008D01*
X10551867Y-12568008D02*
X10542344Y-12577531D01*
X10542344Y-12577531D02*
X10532820Y-12596579D01*
X10532820Y-12596579D02*
X10532820Y-12644198D01*
X10532820Y-12644198D02*
X10542344Y-12663246D01*
X10542344Y-12663246D02*
X10551867Y-12672769D01*
X10551867Y-12672769D02*
X10570915Y-12682293D01*
X10570915Y-12682293D02*
X10609010Y-12682293D01*
X10609010Y-12682293D02*
X10628058Y-12672769D01*
X10628058Y-12672769D02*
X10637582Y-12663246D01*
X10637582Y-12663246D02*
X10647105Y-12644198D01*
X10732820Y-12758484D02*
X10732820Y-12625150D01*
X10732820Y-12644198D02*
X10742344Y-12634674D01*
X10742344Y-12634674D02*
X10761391Y-12625150D01*
X10761391Y-12625150D02*
X10789963Y-12625150D01*
X10789963Y-12625150D02*
X10809010Y-12634674D01*
X10809010Y-12634674D02*
X10818534Y-12653722D01*
X10818534Y-12653722D02*
X10818534Y-12758484D01*
X10818534Y-12653722D02*
X10828058Y-12634674D01*
X10828058Y-12634674D02*
X10847105Y-12625150D01*
X10847105Y-12625150D02*
X10875677Y-12625150D01*
X10875677Y-12625150D02*
X10894725Y-12634674D01*
X10894725Y-12634674D02*
X10904248Y-12653722D01*
X10904248Y-12653722D02*
X10904248Y-12758484D01*
X10999486Y-12758484D02*
X10999486Y-12625150D01*
X10999486Y-12644198D02*
X11009010Y-12634674D01*
X11009010Y-12634674D02*
X11028058Y-12625150D01*
X11028058Y-12625150D02*
X11056629Y-12625150D01*
X11056629Y-12625150D02*
X11075677Y-12634674D01*
X11075677Y-12634674D02*
X11085201Y-12653722D01*
X11085201Y-12653722D02*
X11085201Y-12758484D01*
X11085201Y-12653722D02*
X11094725Y-12634674D01*
X11094725Y-12634674D02*
X11113772Y-12625150D01*
X11113772Y-12625150D02*
X11142344Y-12625150D01*
X11142344Y-12625150D02*
X11161391Y-12634674D01*
X11161391Y-12634674D02*
X11170915Y-12653722D01*
X11170915Y-12653722D02*
X11170915Y-12758484D01*
X11561391Y-12548960D02*
X11389963Y-12806103D01*
X11818534Y-12558484D02*
X11837582Y-12558484D01*
X11837582Y-12558484D02*
X11856629Y-12568008D01*
X11856629Y-12568008D02*
X11866153Y-12577531D01*
X11866153Y-12577531D02*
X11875677Y-12596579D01*
X11875677Y-12596579D02*
X11885201Y-12634674D01*
X11885201Y-12634674D02*
X11885201Y-12682293D01*
X11885201Y-12682293D02*
X11875677Y-12720388D01*
X11875677Y-12720388D02*
X11866153Y-12739436D01*
X11866153Y-12739436D02*
X11856629Y-12748960D01*
X11856629Y-12748960D02*
X11837582Y-12758484D01*
X11837582Y-12758484D02*
X11818534Y-12758484D01*
X11818534Y-12758484D02*
X11799486Y-12748960D01*
X11799486Y-12748960D02*
X11789963Y-12739436D01*
X11789963Y-12739436D02*
X11780439Y-12720388D01*
X11780439Y-12720388D02*
X11770915Y-12682293D01*
X11770915Y-12682293D02*
X11770915Y-12634674D01*
X11770915Y-12634674D02*
X11780439Y-12596579D01*
X11780439Y-12596579D02*
X11789963Y-12577531D01*
X11789963Y-12577531D02*
X11799486Y-12568008D01*
X11799486Y-12568008D02*
X11818534Y-12558484D01*
X11970915Y-12739436D02*
X11980439Y-12748960D01*
X11980439Y-12748960D02*
X11970915Y-12758484D01*
X11970915Y-12758484D02*
X11961391Y-12748960D01*
X11961391Y-12748960D02*
X11970915Y-12739436D01*
X11970915Y-12739436D02*
X11970915Y-12758484D01*
X12104248Y-12558484D02*
X12123296Y-12558484D01*
X12123296Y-12558484D02*
X12142344Y-12568008D01*
X12142344Y-12568008D02*
X12151867Y-12577531D01*
X12151867Y-12577531D02*
X12161391Y-12596579D01*
X12161391Y-12596579D02*
X12170915Y-12634674D01*
X12170915Y-12634674D02*
X12170915Y-12682293D01*
X12170915Y-12682293D02*
X12161391Y-12720388D01*
X12161391Y-12720388D02*
X12151867Y-12739436D01*
X12151867Y-12739436D02*
X12142344Y-12748960D01*
X12142344Y-12748960D02*
X12123296Y-12758484D01*
X12123296Y-12758484D02*
X12104248Y-12758484D01*
X12104248Y-12758484D02*
X12085201Y-12748960D01*
X12085201Y-12748960D02*
X12075677Y-12739436D01*
X12075677Y-12739436D02*
X12066153Y-12720388D01*
X12066153Y-12720388D02*
X12056629Y-12682293D01*
X12056629Y-12682293D02*
X12056629Y-12634674D01*
X12056629Y-12634674D02*
X12066153Y-12596579D01*
X12066153Y-12596579D02*
X12075677Y-12577531D01*
X12075677Y-12577531D02*
X12085201Y-12568008D01*
X12085201Y-12568008D02*
X12104248Y-12558484D01*
X12237582Y-12558484D02*
X12361391Y-12558484D01*
X12361391Y-12558484D02*
X12294725Y-12634674D01*
X12294725Y-12634674D02*
X12323296Y-12634674D01*
X12323296Y-12634674D02*
X12342344Y-12644198D01*
X12342344Y-12644198D02*
X12351867Y-12653722D01*
X12351867Y-12653722D02*
X12361391Y-12672769D01*
X12361391Y-12672769D02*
X12361391Y-12720388D01*
X12361391Y-12720388D02*
X12351867Y-12739436D01*
X12351867Y-12739436D02*
X12342344Y-12748960D01*
X12342344Y-12748960D02*
X12323296Y-12758484D01*
X12323296Y-12758484D02*
X12266153Y-12758484D01*
X12266153Y-12758484D02*
X12247106Y-12748960D01*
X12247106Y-12748960D02*
X12237582Y-12739436D01*
X12542344Y-12558484D02*
X12447106Y-12558484D01*
X12447106Y-12558484D02*
X12437582Y-12653722D01*
X12437582Y-12653722D02*
X12447106Y-12644198D01*
X12447106Y-12644198D02*
X12466153Y-12634674D01*
X12466153Y-12634674D02*
X12513772Y-12634674D01*
X12513772Y-12634674D02*
X12532820Y-12644198D01*
X12532820Y-12644198D02*
X12542344Y-12653722D01*
X12542344Y-12653722D02*
X12551867Y-12672769D01*
X12551867Y-12672769D02*
X12551867Y-12720388D01*
X12551867Y-12720388D02*
X12542344Y-12739436D01*
X12542344Y-12739436D02*
X12532820Y-12748960D01*
X12532820Y-12748960D02*
X12513772Y-12758484D01*
X12513772Y-12758484D02*
X12466153Y-12758484D01*
X12466153Y-12758484D02*
X12447106Y-12748960D01*
X12447106Y-12748960D02*
X12437582Y-12739436D01*
X12675677Y-12558484D02*
X12694725Y-12558484D01*
X12694725Y-12558484D02*
X12713772Y-12568008D01*
X12713772Y-12568008D02*
X12723296Y-12577531D01*
X12723296Y-12577531D02*
X12732820Y-12596579D01*
X12732820Y-12596579D02*
X12742344Y-12634674D01*
X12742344Y-12634674D02*
X12742344Y-12682293D01*
X12742344Y-12682293D02*
X12732820Y-12720388D01*
X12732820Y-12720388D02*
X12723296Y-12739436D01*
X12723296Y-12739436D02*
X12713772Y-12748960D01*
X12713772Y-12748960D02*
X12694725Y-12758484D01*
X12694725Y-12758484D02*
X12675677Y-12758484D01*
X12675677Y-12758484D02*
X12656629Y-12748960D01*
X12656629Y-12748960D02*
X12647106Y-12739436D01*
X12647106Y-12739436D02*
X12637582Y-12720388D01*
X12637582Y-12720388D02*
X12628058Y-12682293D01*
X12628058Y-12682293D02*
X12628058Y-12634674D01*
X12628058Y-12634674D02*
X12637582Y-12596579D01*
X12637582Y-12596579D02*
X12647106Y-12577531D01*
X12647106Y-12577531D02*
X12656629Y-12568008D01*
X12656629Y-12568008D02*
X12675677Y-12558484D01*
X12818534Y-12558484D02*
X12818534Y-12596579D01*
X12894725Y-12558484D02*
X12894725Y-12596579D01*
X13189963Y-12834674D02*
X13180439Y-12825150D01*
X13180439Y-12825150D02*
X13161391Y-12796579D01*
X13161391Y-12796579D02*
X13151868Y-12777531D01*
X13151868Y-12777531D02*
X13142344Y-12748960D01*
X13142344Y-12748960D02*
X13132820Y-12701341D01*
X13132820Y-12701341D02*
X13132820Y-12663246D01*
X13132820Y-12663246D02*
X13142344Y-12615627D01*
X13142344Y-12615627D02*
X13151868Y-12587055D01*
X13151868Y-12587055D02*
X13161391Y-12568008D01*
X13161391Y-12568008D02*
X13180439Y-12539436D01*
X13180439Y-12539436D02*
X13189963Y-12529912D01*
X13294725Y-12644198D02*
X13275677Y-12634674D01*
X13275677Y-12634674D02*
X13266153Y-12625150D01*
X13266153Y-12625150D02*
X13256629Y-12606103D01*
X13256629Y-12606103D02*
X13256629Y-12596579D01*
X13256629Y-12596579D02*
X13266153Y-12577531D01*
X13266153Y-12577531D02*
X13275677Y-12568008D01*
X13275677Y-12568008D02*
X13294725Y-12558484D01*
X13294725Y-12558484D02*
X13332820Y-12558484D01*
X13332820Y-12558484D02*
X13351868Y-12568008D01*
X13351868Y-12568008D02*
X13361391Y-12577531D01*
X13361391Y-12577531D02*
X13370915Y-12596579D01*
X13370915Y-12596579D02*
X13370915Y-12606103D01*
X13370915Y-12606103D02*
X13361391Y-12625150D01*
X13361391Y-12625150D02*
X13351868Y-12634674D01*
X13351868Y-12634674D02*
X13332820Y-12644198D01*
X13332820Y-12644198D02*
X13294725Y-12644198D01*
X13294725Y-12644198D02*
X13275677Y-12653722D01*
X13275677Y-12653722D02*
X13266153Y-12663246D01*
X13266153Y-12663246D02*
X13256629Y-12682293D01*
X13256629Y-12682293D02*
X13256629Y-12720388D01*
X13256629Y-12720388D02*
X13266153Y-12739436D01*
X13266153Y-12739436D02*
X13275677Y-12748960D01*
X13275677Y-12748960D02*
X13294725Y-12758484D01*
X13294725Y-12758484D02*
X13332820Y-12758484D01*
X13332820Y-12758484D02*
X13351868Y-12748960D01*
X13351868Y-12748960D02*
X13361391Y-12739436D01*
X13361391Y-12739436D02*
X13370915Y-12720388D01*
X13370915Y-12720388D02*
X13370915Y-12682293D01*
X13370915Y-12682293D02*
X13361391Y-12663246D01*
X13361391Y-12663246D02*
X13351868Y-12653722D01*
X13351868Y-12653722D02*
X13332820Y-12644198D01*
X13494725Y-12558484D02*
X13513772Y-12558484D01*
X13513772Y-12558484D02*
X13532820Y-12568008D01*
X13532820Y-12568008D02*
X13542344Y-12577531D01*
X13542344Y-12577531D02*
X13551868Y-12596579D01*
X13551868Y-12596579D02*
X13561391Y-12634674D01*
X13561391Y-12634674D02*
X13561391Y-12682293D01*
X13561391Y-12682293D02*
X13551868Y-12720388D01*
X13551868Y-12720388D02*
X13542344Y-12739436D01*
X13542344Y-12739436D02*
X13532820Y-12748960D01*
X13532820Y-12748960D02*
X13513772Y-12758484D01*
X13513772Y-12758484D02*
X13494725Y-12758484D01*
X13494725Y-12758484D02*
X13475677Y-12748960D01*
X13475677Y-12748960D02*
X13466153Y-12739436D01*
X13466153Y-12739436D02*
X13456629Y-12720388D01*
X13456629Y-12720388D02*
X13447106Y-12682293D01*
X13447106Y-12682293D02*
X13447106Y-12634674D01*
X13447106Y-12634674D02*
X13456629Y-12596579D01*
X13456629Y-12596579D02*
X13466153Y-12577531D01*
X13466153Y-12577531D02*
X13475677Y-12568008D01*
X13475677Y-12568008D02*
X13494725Y-12558484D01*
X13799487Y-12758484D02*
X13799487Y-12558484D01*
X13885201Y-12758484D02*
X13885201Y-12653722D01*
X13885201Y-12653722D02*
X13875677Y-12634674D01*
X13875677Y-12634674D02*
X13856630Y-12625150D01*
X13856630Y-12625150D02*
X13828058Y-12625150D01*
X13828058Y-12625150D02*
X13809010Y-12634674D01*
X13809010Y-12634674D02*
X13799487Y-12644198D01*
X14009010Y-12758484D02*
X13989963Y-12748960D01*
X13989963Y-12748960D02*
X13980439Y-12739436D01*
X13980439Y-12739436D02*
X13970915Y-12720388D01*
X13970915Y-12720388D02*
X13970915Y-12663246D01*
X13970915Y-12663246D02*
X13980439Y-12644198D01*
X13980439Y-12644198D02*
X13989963Y-12634674D01*
X13989963Y-12634674D02*
X14009010Y-12625150D01*
X14009010Y-12625150D02*
X14037582Y-12625150D01*
X14037582Y-12625150D02*
X14056630Y-12634674D01*
X14056630Y-12634674D02*
X14066153Y-12644198D01*
X14066153Y-12644198D02*
X14075677Y-12663246D01*
X14075677Y-12663246D02*
X14075677Y-12720388D01*
X14075677Y-12720388D02*
X14066153Y-12739436D01*
X14066153Y-12739436D02*
X14056630Y-12748960D01*
X14056630Y-12748960D02*
X14037582Y-12758484D01*
X14037582Y-12758484D02*
X14009010Y-12758484D01*
X14189963Y-12758484D02*
X14170915Y-12748960D01*
X14170915Y-12748960D02*
X14161391Y-12729912D01*
X14161391Y-12729912D02*
X14161391Y-12558484D01*
X14342344Y-12748960D02*
X14323296Y-12758484D01*
X14323296Y-12758484D02*
X14285201Y-12758484D01*
X14285201Y-12758484D02*
X14266153Y-12748960D01*
X14266153Y-12748960D02*
X14256630Y-12729912D01*
X14256630Y-12729912D02*
X14256630Y-12653722D01*
X14256630Y-12653722D02*
X14266153Y-12634674D01*
X14266153Y-12634674D02*
X14285201Y-12625150D01*
X14285201Y-12625150D02*
X14323296Y-12625150D01*
X14323296Y-12625150D02*
X14342344Y-12634674D01*
X14342344Y-12634674D02*
X14351868Y-12653722D01*
X14351868Y-12653722D02*
X14351868Y-12672769D01*
X14351868Y-12672769D02*
X14256630Y-12691817D01*
X14428058Y-12748960D02*
X14447106Y-12758484D01*
X14447106Y-12758484D02*
X14485201Y-12758484D01*
X14485201Y-12758484D02*
X14504249Y-12748960D01*
X14504249Y-12748960D02*
X14513772Y-12729912D01*
X14513772Y-12729912D02*
X14513772Y-12720388D01*
X14513772Y-12720388D02*
X14504249Y-12701341D01*
X14504249Y-12701341D02*
X14485201Y-12691817D01*
X14485201Y-12691817D02*
X14456630Y-12691817D01*
X14456630Y-12691817D02*
X14437582Y-12682293D01*
X14437582Y-12682293D02*
X14428058Y-12663246D01*
X14428058Y-12663246D02*
X14428058Y-12653722D01*
X14428058Y-12653722D02*
X14437582Y-12634674D01*
X14437582Y-12634674D02*
X14456630Y-12625150D01*
X14456630Y-12625150D02*
X14485201Y-12625150D01*
X14485201Y-12625150D02*
X14504249Y-12634674D01*
X14580439Y-12834674D02*
X14589963Y-12825150D01*
X14589963Y-12825150D02*
X14609011Y-12796579D01*
X14609011Y-12796579D02*
X14618534Y-12777531D01*
X14618534Y-12777531D02*
X14628058Y-12748960D01*
X14628058Y-12748960D02*
X14637582Y-12701341D01*
X14637582Y-12701341D02*
X14637582Y-12663246D01*
X14637582Y-12663246D02*
X14628058Y-12615627D01*
X14628058Y-12615627D02*
X14618534Y-12587055D01*
X14618534Y-12587055D02*
X14609011Y-12568008D01*
X14609011Y-12568008D02*
X14589963Y-12539436D01*
X14589963Y-12539436D02*
X14580439Y-12529912D01*
D12*
X9600256Y-12966356D02*
X9600256Y-12895644D01*
X9529544Y-12895644D01*
X9529544Y-12966356D01*
X9600256Y-12966356D01*
D11*
X9980439Y-13022484D02*
X9866153Y-13022484D01*
X9923296Y-13022484D02*
X9923296Y-12822484D01*
X9923296Y-12822484D02*
X9904248Y-12851055D01*
X9904248Y-12851055D02*
X9885201Y-12870103D01*
X9885201Y-12870103D02*
X9866153Y-12879627D01*
X10066153Y-13003436D02*
X10075677Y-13012960D01*
X10075677Y-13012960D02*
X10066153Y-13022484D01*
X10066153Y-13022484D02*
X10056629Y-13012960D01*
X10056629Y-13012960D02*
X10066153Y-13003436D01*
X10066153Y-13003436D02*
X10066153Y-13022484D01*
X10199486Y-12822484D02*
X10218534Y-12822484D01*
X10218534Y-12822484D02*
X10237582Y-12832008D01*
X10237582Y-12832008D02*
X10247105Y-12841531D01*
X10247105Y-12841531D02*
X10256629Y-12860579D01*
X10256629Y-12860579D02*
X10266153Y-12898674D01*
X10266153Y-12898674D02*
X10266153Y-12946293D01*
X10266153Y-12946293D02*
X10256629Y-12984388D01*
X10256629Y-12984388D02*
X10247105Y-13003436D01*
X10247105Y-13003436D02*
X10237582Y-13012960D01*
X10237582Y-13012960D02*
X10218534Y-13022484D01*
X10218534Y-13022484D02*
X10199486Y-13022484D01*
X10199486Y-13022484D02*
X10180439Y-13012960D01*
X10180439Y-13012960D02*
X10170915Y-13003436D01*
X10170915Y-13003436D02*
X10161391Y-12984388D01*
X10161391Y-12984388D02*
X10151867Y-12946293D01*
X10151867Y-12946293D02*
X10151867Y-12898674D01*
X10151867Y-12898674D02*
X10161391Y-12860579D01*
X10161391Y-12860579D02*
X10170915Y-12841531D01*
X10170915Y-12841531D02*
X10180439Y-12832008D01*
X10180439Y-12832008D02*
X10199486Y-12822484D01*
X10389963Y-12822484D02*
X10409010Y-12822484D01*
X10409010Y-12822484D02*
X10428058Y-12832008D01*
X10428058Y-12832008D02*
X10437582Y-12841531D01*
X10437582Y-12841531D02*
X10447105Y-12860579D01*
X10447105Y-12860579D02*
X10456629Y-12898674D01*
X10456629Y-12898674D02*
X10456629Y-12946293D01*
X10456629Y-12946293D02*
X10447105Y-12984388D01*
X10447105Y-12984388D02*
X10437582Y-13003436D01*
X10437582Y-13003436D02*
X10428058Y-13012960D01*
X10428058Y-13012960D02*
X10409010Y-13022484D01*
X10409010Y-13022484D02*
X10389963Y-13022484D01*
X10389963Y-13022484D02*
X10370915Y-13012960D01*
X10370915Y-13012960D02*
X10361391Y-13003436D01*
X10361391Y-13003436D02*
X10351867Y-12984388D01*
X10351867Y-12984388D02*
X10342344Y-12946293D01*
X10342344Y-12946293D02*
X10342344Y-12898674D01*
X10342344Y-12898674D02*
X10351867Y-12860579D01*
X10351867Y-12860579D02*
X10361391Y-12841531D01*
X10361391Y-12841531D02*
X10370915Y-12832008D01*
X10370915Y-12832008D02*
X10389963Y-12822484D01*
X10580439Y-12822484D02*
X10599486Y-12822484D01*
X10599486Y-12822484D02*
X10618534Y-12832008D01*
X10618534Y-12832008D02*
X10628058Y-12841531D01*
X10628058Y-12841531D02*
X10637582Y-12860579D01*
X10637582Y-12860579D02*
X10647105Y-12898674D01*
X10647105Y-12898674D02*
X10647105Y-12946293D01*
X10647105Y-12946293D02*
X10637582Y-12984388D01*
X10637582Y-12984388D02*
X10628058Y-13003436D01*
X10628058Y-13003436D02*
X10618534Y-13012960D01*
X10618534Y-13012960D02*
X10599486Y-13022484D01*
X10599486Y-13022484D02*
X10580439Y-13022484D01*
X10580439Y-13022484D02*
X10561391Y-13012960D01*
X10561391Y-13012960D02*
X10551867Y-13003436D01*
X10551867Y-13003436D02*
X10542344Y-12984388D01*
X10542344Y-12984388D02*
X10532820Y-12946293D01*
X10532820Y-12946293D02*
X10532820Y-12898674D01*
X10532820Y-12898674D02*
X10542344Y-12860579D01*
X10542344Y-12860579D02*
X10551867Y-12841531D01*
X10551867Y-12841531D02*
X10561391Y-12832008D01*
X10561391Y-12832008D02*
X10580439Y-12822484D01*
X10732820Y-13022484D02*
X10732820Y-12889150D01*
X10732820Y-12908198D02*
X10742344Y-12898674D01*
X10742344Y-12898674D02*
X10761391Y-12889150D01*
X10761391Y-12889150D02*
X10789963Y-12889150D01*
X10789963Y-12889150D02*
X10809010Y-12898674D01*
X10809010Y-12898674D02*
X10818534Y-12917722D01*
X10818534Y-12917722D02*
X10818534Y-13022484D01*
X10818534Y-12917722D02*
X10828058Y-12898674D01*
X10828058Y-12898674D02*
X10847105Y-12889150D01*
X10847105Y-12889150D02*
X10875677Y-12889150D01*
X10875677Y-12889150D02*
X10894725Y-12898674D01*
X10894725Y-12898674D02*
X10904248Y-12917722D01*
X10904248Y-12917722D02*
X10904248Y-13022484D01*
X10999486Y-13022484D02*
X10999486Y-12889150D01*
X10999486Y-12908198D02*
X11009010Y-12898674D01*
X11009010Y-12898674D02*
X11028058Y-12889150D01*
X11028058Y-12889150D02*
X11056629Y-12889150D01*
X11056629Y-12889150D02*
X11075677Y-12898674D01*
X11075677Y-12898674D02*
X11085201Y-12917722D01*
X11085201Y-12917722D02*
X11085201Y-13022484D01*
X11085201Y-12917722D02*
X11094725Y-12898674D01*
X11094725Y-12898674D02*
X11113772Y-12889150D01*
X11113772Y-12889150D02*
X11142344Y-12889150D01*
X11142344Y-12889150D02*
X11161391Y-12898674D01*
X11161391Y-12898674D02*
X11170915Y-12917722D01*
X11170915Y-12917722D02*
X11170915Y-13022484D01*
X11561391Y-12812960D02*
X11389963Y-13070103D01*
X11818534Y-12822484D02*
X11837582Y-12822484D01*
X11837582Y-12822484D02*
X11856629Y-12832008D01*
X11856629Y-12832008D02*
X11866153Y-12841531D01*
X11866153Y-12841531D02*
X11875677Y-12860579D01*
X11875677Y-12860579D02*
X11885201Y-12898674D01*
X11885201Y-12898674D02*
X11885201Y-12946293D01*
X11885201Y-12946293D02*
X11875677Y-12984388D01*
X11875677Y-12984388D02*
X11866153Y-13003436D01*
X11866153Y-13003436D02*
X11856629Y-13012960D01*
X11856629Y-13012960D02*
X11837582Y-13022484D01*
X11837582Y-13022484D02*
X11818534Y-13022484D01*
X11818534Y-13022484D02*
X11799486Y-13012960D01*
X11799486Y-13012960D02*
X11789963Y-13003436D01*
X11789963Y-13003436D02*
X11780439Y-12984388D01*
X11780439Y-12984388D02*
X11770915Y-12946293D01*
X11770915Y-12946293D02*
X11770915Y-12898674D01*
X11770915Y-12898674D02*
X11780439Y-12860579D01*
X11780439Y-12860579D02*
X11789963Y-12841531D01*
X11789963Y-12841531D02*
X11799486Y-12832008D01*
X11799486Y-12832008D02*
X11818534Y-12822484D01*
X11970915Y-13003436D02*
X11980439Y-13012960D01*
X11980439Y-13012960D02*
X11970915Y-13022484D01*
X11970915Y-13022484D02*
X11961391Y-13012960D01*
X11961391Y-13012960D02*
X11970915Y-13003436D01*
X11970915Y-13003436D02*
X11970915Y-13022484D01*
X12104248Y-12822484D02*
X12123296Y-12822484D01*
X12123296Y-12822484D02*
X12142344Y-12832008D01*
X12142344Y-12832008D02*
X12151867Y-12841531D01*
X12151867Y-12841531D02*
X12161391Y-12860579D01*
X12161391Y-12860579D02*
X12170915Y-12898674D01*
X12170915Y-12898674D02*
X12170915Y-12946293D01*
X12170915Y-12946293D02*
X12161391Y-12984388D01*
X12161391Y-12984388D02*
X12151867Y-13003436D01*
X12151867Y-13003436D02*
X12142344Y-13012960D01*
X12142344Y-13012960D02*
X12123296Y-13022484D01*
X12123296Y-13022484D02*
X12104248Y-13022484D01*
X12104248Y-13022484D02*
X12085201Y-13012960D01*
X12085201Y-13012960D02*
X12075677Y-13003436D01*
X12075677Y-13003436D02*
X12066153Y-12984388D01*
X12066153Y-12984388D02*
X12056629Y-12946293D01*
X12056629Y-12946293D02*
X12056629Y-12898674D01*
X12056629Y-12898674D02*
X12066153Y-12860579D01*
X12066153Y-12860579D02*
X12075677Y-12841531D01*
X12075677Y-12841531D02*
X12085201Y-12832008D01*
X12085201Y-12832008D02*
X12104248Y-12822484D01*
X12237582Y-12822484D02*
X12361391Y-12822484D01*
X12361391Y-12822484D02*
X12294725Y-12898674D01*
X12294725Y-12898674D02*
X12323296Y-12898674D01*
X12323296Y-12898674D02*
X12342344Y-12908198D01*
X12342344Y-12908198D02*
X12351867Y-12917722D01*
X12351867Y-12917722D02*
X12361391Y-12936769D01*
X12361391Y-12936769D02*
X12361391Y-12984388D01*
X12361391Y-12984388D02*
X12351867Y-13003436D01*
X12351867Y-13003436D02*
X12342344Y-13012960D01*
X12342344Y-13012960D02*
X12323296Y-13022484D01*
X12323296Y-13022484D02*
X12266153Y-13022484D01*
X12266153Y-13022484D02*
X12247106Y-13012960D01*
X12247106Y-13012960D02*
X12237582Y-13003436D01*
X12456629Y-13022484D02*
X12494725Y-13022484D01*
X12494725Y-13022484D02*
X12513772Y-13012960D01*
X12513772Y-13012960D02*
X12523296Y-13003436D01*
X12523296Y-13003436D02*
X12542344Y-12974865D01*
X12542344Y-12974865D02*
X12551867Y-12936769D01*
X12551867Y-12936769D02*
X12551867Y-12860579D01*
X12551867Y-12860579D02*
X12542344Y-12841531D01*
X12542344Y-12841531D02*
X12532820Y-12832008D01*
X12532820Y-12832008D02*
X12513772Y-12822484D01*
X12513772Y-12822484D02*
X12475677Y-12822484D01*
X12475677Y-12822484D02*
X12456629Y-12832008D01*
X12456629Y-12832008D02*
X12447106Y-12841531D01*
X12447106Y-12841531D02*
X12437582Y-12860579D01*
X12437582Y-12860579D02*
X12437582Y-12908198D01*
X12437582Y-12908198D02*
X12447106Y-12927246D01*
X12447106Y-12927246D02*
X12456629Y-12936769D01*
X12456629Y-12936769D02*
X12475677Y-12946293D01*
X12475677Y-12946293D02*
X12513772Y-12946293D01*
X12513772Y-12946293D02*
X12532820Y-12936769D01*
X12532820Y-12936769D02*
X12542344Y-12927246D01*
X12542344Y-12927246D02*
X12551867Y-12908198D01*
X12723296Y-12889150D02*
X12723296Y-13022484D01*
X12675677Y-12812960D02*
X12628058Y-12955817D01*
X12628058Y-12955817D02*
X12751867Y-12955817D01*
X12818534Y-12822484D02*
X12818534Y-12860579D01*
X12894725Y-12822484D02*
X12894725Y-12860579D01*
X13189963Y-13098674D02*
X13180439Y-13089150D01*
X13180439Y-13089150D02*
X13161391Y-13060579D01*
X13161391Y-13060579D02*
X13151868Y-13041531D01*
X13151868Y-13041531D02*
X13142344Y-13012960D01*
X13142344Y-13012960D02*
X13132820Y-12965341D01*
X13132820Y-12965341D02*
X13132820Y-12927246D01*
X13132820Y-12927246D02*
X13142344Y-12879627D01*
X13142344Y-12879627D02*
X13151868Y-12851055D01*
X13151868Y-12851055D02*
X13161391Y-12832008D01*
X13161391Y-12832008D02*
X13180439Y-12803436D01*
X13180439Y-12803436D02*
X13189963Y-12793912D01*
X13370915Y-13022484D02*
X13256629Y-13022484D01*
X13313772Y-13022484D02*
X13313772Y-12822484D01*
X13313772Y-12822484D02*
X13294725Y-12851055D01*
X13294725Y-12851055D02*
X13275677Y-12870103D01*
X13275677Y-12870103D02*
X13256629Y-12879627D01*
X13494725Y-12822484D02*
X13513772Y-12822484D01*
X13513772Y-12822484D02*
X13532820Y-12832008D01*
X13532820Y-12832008D02*
X13542344Y-12841531D01*
X13542344Y-12841531D02*
X13551868Y-12860579D01*
X13551868Y-12860579D02*
X13561391Y-12898674D01*
X13561391Y-12898674D02*
X13561391Y-12946293D01*
X13561391Y-12946293D02*
X13551868Y-12984388D01*
X13551868Y-12984388D02*
X13542344Y-13003436D01*
X13542344Y-13003436D02*
X13532820Y-13012960D01*
X13532820Y-13012960D02*
X13513772Y-13022484D01*
X13513772Y-13022484D02*
X13494725Y-13022484D01*
X13494725Y-13022484D02*
X13475677Y-13012960D01*
X13475677Y-13012960D02*
X13466153Y-13003436D01*
X13466153Y-13003436D02*
X13456629Y-12984388D01*
X13456629Y-12984388D02*
X13447106Y-12946293D01*
X13447106Y-12946293D02*
X13447106Y-12898674D01*
X13447106Y-12898674D02*
X13456629Y-12860579D01*
X13456629Y-12860579D02*
X13466153Y-12841531D01*
X13466153Y-12841531D02*
X13475677Y-12832008D01*
X13475677Y-12832008D02*
X13494725Y-12822484D01*
X13799487Y-13022484D02*
X13799487Y-12822484D01*
X13885201Y-13022484D02*
X13885201Y-12917722D01*
X13885201Y-12917722D02*
X13875677Y-12898674D01*
X13875677Y-12898674D02*
X13856630Y-12889150D01*
X13856630Y-12889150D02*
X13828058Y-12889150D01*
X13828058Y-12889150D02*
X13809010Y-12898674D01*
X13809010Y-12898674D02*
X13799487Y-12908198D01*
X14009010Y-13022484D02*
X13989963Y-13012960D01*
X13989963Y-13012960D02*
X13980439Y-13003436D01*
X13980439Y-13003436D02*
X13970915Y-12984388D01*
X13970915Y-12984388D02*
X13970915Y-12927246D01*
X13970915Y-12927246D02*
X13980439Y-12908198D01*
X13980439Y-12908198D02*
X13989963Y-12898674D01*
X13989963Y-12898674D02*
X14009010Y-12889150D01*
X14009010Y-12889150D02*
X14037582Y-12889150D01*
X14037582Y-12889150D02*
X14056630Y-12898674D01*
X14056630Y-12898674D02*
X14066153Y-12908198D01*
X14066153Y-12908198D02*
X14075677Y-12927246D01*
X14075677Y-12927246D02*
X14075677Y-12984388D01*
X14075677Y-12984388D02*
X14066153Y-13003436D01*
X14066153Y-13003436D02*
X14056630Y-13012960D01*
X14056630Y-13012960D02*
X14037582Y-13022484D01*
X14037582Y-13022484D02*
X14009010Y-13022484D01*
X14189963Y-13022484D02*
X14170915Y-13012960D01*
X14170915Y-13012960D02*
X14161391Y-12993912D01*
X14161391Y-12993912D02*
X14161391Y-12822484D01*
X14342344Y-13012960D02*
X14323296Y-13022484D01*
X14323296Y-13022484D02*
X14285201Y-13022484D01*
X14285201Y-13022484D02*
X14266153Y-13012960D01*
X14266153Y-13012960D02*
X14256630Y-12993912D01*
X14256630Y-12993912D02*
X14256630Y-12917722D01*
X14256630Y-12917722D02*
X14266153Y-12898674D01*
X14266153Y-12898674D02*
X14285201Y-12889150D01*
X14285201Y-12889150D02*
X14323296Y-12889150D01*
X14323296Y-12889150D02*
X14342344Y-12898674D01*
X14342344Y-12898674D02*
X14351868Y-12917722D01*
X14351868Y-12917722D02*
X14351868Y-12936769D01*
X14351868Y-12936769D02*
X14256630Y-12955817D01*
X14428058Y-13012960D02*
X14447106Y-13022484D01*
X14447106Y-13022484D02*
X14485201Y-13022484D01*
X14485201Y-13022484D02*
X14504249Y-13012960D01*
X14504249Y-13012960D02*
X14513772Y-12993912D01*
X14513772Y-12993912D02*
X14513772Y-12984388D01*
X14513772Y-12984388D02*
X14504249Y-12965341D01*
X14504249Y-12965341D02*
X14485201Y-12955817D01*
X14485201Y-12955817D02*
X14456630Y-12955817D01*
X14456630Y-12955817D02*
X14437582Y-12946293D01*
X14437582Y-12946293D02*
X14428058Y-12927246D01*
X14428058Y-12927246D02*
X14428058Y-12917722D01*
X14428058Y-12917722D02*
X14437582Y-12898674D01*
X14437582Y-12898674D02*
X14456630Y-12889150D01*
X14456630Y-12889150D02*
X14485201Y-12889150D01*
X14485201Y-12889150D02*
X14504249Y-12898674D01*
X14580439Y-13098674D02*
X14589963Y-13089150D01*
X14589963Y-13089150D02*
X14609011Y-13060579D01*
X14609011Y-13060579D02*
X14618534Y-13041531D01*
X14618534Y-13041531D02*
X14628058Y-13012960D01*
X14628058Y-13012960D02*
X14637582Y-12965341D01*
X14637582Y-12965341D02*
X14637582Y-12927246D01*
X14637582Y-12927246D02*
X14628058Y-12879627D01*
X14628058Y-12879627D02*
X14618534Y-12851055D01*
X14618534Y-12851055D02*
X14609011Y-12832008D01*
X14609011Y-12832008D02*
X14589963Y-12803436D01*
X14589963Y-12803436D02*
X14580439Y-12793912D01*
M02*
